<?xml version="1.0" encoding="utf-8" standalone="no"?>
<!DOCTYPE svg PUBLIC "-//W3C//DTD SVG 1.1//EN"
  "http://www.w3.org/Graphics/SVG/1.1/DTD/svg11.dtd">
<svg xmlns:xlink="http://www.w3.org/1999/xlink" width="720pt" height="720pt" viewBox="0 0 720 720" xmlns="http://www.w3.org/2000/svg" version="1.1">
 <metadata>
  <rdf:RDF xmlns:dc="http://purl.org/dc/elements/1.1/" xmlns:cc="http://creativecommons.org/ns#" xmlns:rdf="http://www.w3.org/1999/02/22-rdf-syntax-ns#">
   <cc:Work>
    <dc:type rdf:resource="http://purl.org/dc/dcmitype/StillImage"/>
    <dc:date>2025-04-25T10:41:18.728507</dc:date>
    <dc:format>image/svg+xml</dc:format>
    <dc:creator>
     <cc:Agent>
      <dc:title>Matplotlib v3.8.3, https://matplotlib.org/</dc:title>
     </cc:Agent>
    </dc:creator>
   </cc:Work>
  </rdf:RDF>
 </metadata>
 <defs>
  <style type="text/css">*{stroke-linejoin: round; stroke-linecap: butt}</style>
 </defs>
 <g id="figure_1">
  <g id="patch_1">
   <path d="M 0 720 
L 720 720 
L 720 0 
L 0 0 
z
" style="fill: #ffffff"/>
  </g>
  <g id="axes_1">
   <g id="PatchCollection_1">
    <path d="M 466.774804 444.222031 
L 490.278946 509.207856 
L 371.60652 565.350819 
L 350.284581 490.762198 
L 466.774804 444.222031 
" clip-path="url(#p9aa7f524f7)" style="fill: #6cb257; fill-opacity: 0.5"/>
   </g>
   <g id="PatchCollection_2">
    <path d="M 411.295331 480.077073 
L 415.932512 491.245792 
L 408.613041 481.205459 
L 411.295331 480.077073 
" clip-path="url(#p9aa7f524f7)" style="fill: #6bb05b; fill-opacity: 0.5"/>
    <path d="M 420.372688 504.970651 
L 425.009869 516.13937 
L 417.690398 506.099037 
L 420.372688 504.970651 
" clip-path="url(#p9aa7f524f7)" style="fill: #6bb05b; fill-opacity: 0.5"/>
    <path d="M 295.320351 362.747953 
L 302.139734 383.703694 
L 291.562113 400.42223 
L 280.029778 368.228686 
L 295.320351 362.747953 
" clip-path="url(#p9aa7f524f7)" style="fill: #6bb05b; fill-opacity: 0.5"/>
   </g>
   <g id="PatchCollection_3">
    <path d="M 626.605997 529.472748 
L 622.847759 534.262632 
L 652.595425 550.566659 
L 626.545381 530.140568 
L 626.605997 529.472748 
" clip-path="url(#p9aa7f524f7)"/>
    <path d="M 673.280888 498.200335 
L 652.716659 467.61877 
L 631.57657 478.557207 
L 626.545381 530.140568 
L 653.534985 551.303564 
L 664.764236 541.700768 
L 649.367584 516.530851 
L 673.280888 498.200335 
" clip-path="url(#p9aa7f524f7)"/>
    <path d="M 597.706966 340.387487 
L 568.626084 350.934442 
L 575.203 370.024892 
L 601.056041 376.610982 
L 589.114543 380.963328 
L 591.827142 388.516606 
L 580.794895 392.408386 
L 584.022736 399.247788 
L 614.588728 388.309351 
L 596.146085 352.385224 
L 601.131812 350.542962 
L 597.706966 340.387487 
" clip-path="url(#p9aa7f524f7)"/>
    <path d="M 613.997715 205.602926 
L 627.257627 226.167186 
L 622.044587 228.216703 
L 629.561063 248.919133 
L 640.987319 236.115406 
L 636.31983 225.015771 
L 660.718069 235.056104 
L 649.034192 218.268483 
L 646.09428 193.927585 
L 613.997715 205.602926 
" clip-path="url(#p9aa7f524f7)"/>
    <path d="M 646.215513 374.308153 
L 636.441064 379.397405 
L 643.896923 398.856307 
L 638.45657 403.945558 
L 623.847936 385.016307 
L 613.103618 388.815974 
L 636.228905 433.951415 
L 668.401241 417.163795 
L 646.215513 374.308153 
" clip-path="url(#p9aa7f524f7)"/>
    <path d="M 531.710488 235.470614 
L 542.742735 266.950281 
L 558.093925 256.610581 
L 563.852516 272.684325 
L 576.400181 268.147752 
L 560.958066 224.877602 
L 531.710488 235.470614 
" clip-path="url(#p9aa7f524f7)"/>
    <path d="M 597.706966 340.387487 
L 614.588728 388.309351 
L 624.681416 384.670882 
L 615.088816 362.011048 
L 627.712253 356.184892 
L 618.862209 332.673011 
L 597.706966 340.387487 
" clip-path="url(#p9aa7f524f7)"/>
    <path d="M 650.534456 372.051381 
L 646.215513 374.308153 
L 650.640535 382.943761 
L 654.732165 380.733045 
L 650.534456 372.051381 
" clip-path="url(#p9aa7f524f7)"/>
    <path d="M 493.158241 168.228017 
L 459.318945 184.209648 
L 472.654628 219.373841 
L 522.042118 208.113009 
L 510.615862 177.18602 
L 488.975686 189.989748 
L 496.264849 177.024822 
L 493.158241 168.228017 
" clip-path="url(#p9aa7f524f7)"/>
    <path d="M 595.388375 395.148753 
L 584.022736 399.247788 
L 589.114543 409.955941 
L 595.388375 395.148753 
" clip-path="url(#p9aa7f524f7)"/>
    <path d="M 646.09428 193.927585 
L 657.687232 211.014573 
L 660.718069 235.056104 
L 671.310844 228.354873 
L 667.779919 215.551146 
L 673.144501 211.86662 
L 676.40265 222.989282 
L 693.269259 226.098101 
L 676.87243 182.758866 
L 646.09428 193.927585 
" clip-path="url(#p9aa7f524f7)"/>
    <path d="M 635.819742 246.731446 
L 629.561063 248.919133 
L 643.593839 271.993476 
L 638.517187 273.743626 
L 645.169874 292.23534 
L 677.175514 280.513942 
L 664.324765 260.272078 
L 669.219567 258.383759 
L 662.4608 239.82296 
L 651.958949 246.662361 
L 655.353487 259.189749 
L 650.170756 263.035473 
L 635.819742 246.731446 
" clip-path="url(#p9aa7f524f7)"/>
    <path d="M 618.862209 332.673011 
L 640.41146 377.301831 
L 660.233135 367.008186 
L 649.4282 321.573377 
L 618.862209 332.673011 
" clip-path="url(#p9aa7f524f7)"/>
    <path d="M 584.022736 399.247788 
L 581.294983 393.375575 
L 575.627318 397.589751 
L 583.068023 406.018104 
L 584.022736 399.247788 
" clip-path="url(#p9aa7f524f7)"/>
    <path d="M 576.400181 268.147752 
L 563.852516 272.684325 
L 569.565644 288.343559 
L 551.198771 290.531247 
L 562.625027 322.494508 
L 592.221151 311.602129 
L 576.400181 268.147752 
" clip-path="url(#p9aa7f524f7)"/>
    <path d="M 568.626084 350.934442 
L 532.301502 364.152679 
L 527.861325 373.479135 
L 536.090048 396.415308 
L 570.944674 383.841864 
L 562.731106 373.502163 
L 574.793837 369.034676 
L 568.626084 350.934442 
" clip-path="url(#p9aa7f524f7)"/>
    <path d="M 559.927582 387.710616 
L 536.090048 396.415308 
L 548.955951 431.994011 
L 588.644763 440.652647 
L 590.629961 413.179901 
L 567.928991 410.071082 
L 559.927582 387.710616 
" clip-path="url(#p9aa7f524f7)"/>
    <path d="M 533.438066 149.183624 
L 515.662206 157.56592 
L 522.01181 176.011578 
L 511.555422 179.811245 
L 522.042118 208.113009 
L 551.198771 197.519997 
L 533.438066 149.183624 
" clip-path="url(#p9aa7f524f7)"/>
    <path d="M 531.710488 235.470614 
L 491.006347 250.277802 
L 486.581324 259.719399 
L 499.583615 296.104092 
L 537.181149 282.28712 
L 515.419739 268.44712 
L 542.742735 266.950281 
L 531.710488 235.470614 
" clip-path="url(#p9aa7f524f7)"/>
    <path d="M 51.186424 203.438267 
L 65.992063 244.38256 
L 45.397525 251.889782 
L 53.141314 273.306088 
L 66.492151 279.961263 
L 113.045809 262.597935 
L 83.389068 179.327651 
L 47.185719 192.476803 
L 28.743076 141.100695 
L 48.458671 134.146153 
L 40.820961 112.983157 
L 3.314353 137.94582 
L 30.60704 210.945488 
L 51.186424 203.438267 
" clip-path="url(#p9aa7f524f7)"/>
    <path d="M 237.673829 10.161858 
L 218.443168 17.208513 
L 227.262904 41.71061 
L 216.942904 45.533306 
L 241.76546 113.789147 
L 233.900437 116.736768 
L 237.052508 125.395404 
L 271.452509 111.992941 
L 272.422377 103.011909 
L 237.673829 10.161858 
" clip-path="url(#p9aa7f524f7)"/>
    <path d="M 210.290217 126.155337 
L 203.470833 108.009047 
L 186.361758 113.789147 
L 193.075062 132.326918 
L 210.290217 126.155337 
" clip-path="url(#p9aa7f524f7)"/>
    <path d="M 69.750301 43.875269 
L 116.500963 27.018564 
L 108.666249 5.487116 
L 94.618319 -0.362069 
L 18.998934 28.377232 
L 59.127217 129.978033 
L 85.010566 120.582492 
L 103.81691 172.580363 
L 140.535501 159.223957 
L 162.372682 221.100963 
L 136.534796 230.68073 
L 144.324048 252.074008 
L 181.224489 238.510347 
L 187.937793 224.140697 
L 157.614268 140.571045 
L 136.625721 148.147351 
L 121.911007 107.249114 
L 95.982196 116.621627 
L 69.750301 43.875269 
" clip-path="url(#p9aa7f524f7)"/>
    <path d="M 271.452509 111.992941 
L 252.691627 124.197933 
L 222.32264 121.641793 
L 227.399292 135.712076 
L 244.099204 129.701693 
L 260.08687 170.899298 
L 248.675768 175.182559 
L 257.313654 197.842393 
L 237.234358 205.165388 
L 219.473653 175.527984 
L 210.078058 179.189481 
L 225.641406 222.275405 
L 302.457972 194.111811 
L 271.452509 111.992941 
" clip-path="url(#p9aa7f524f7)"/>
    <path d="M 185.543432 56.978364 
L 168.37374 64.001992 
L 181.815502 101.238731 
L 199.091274 94.975037 
L 185.543432 56.978364 
" clip-path="url(#p9aa7f524f7)"/>
    <path d="M 210.290217 126.155337 
L 193.075062 132.326918 
L 201.303785 155.14795 
L 215.472948 139.972309 
L 210.290217 126.155337 
" clip-path="url(#p9aa7f524f7)"/>
    <path d="M 442.20987 403.484992 
L 451.514539 399.869551 
L 443.194892 376.680067 
L 433.965993 380.157338 
L 442.20987 403.484992 
" clip-path="url(#p9aa7f524f7)"/>
    <path d="M 142.475237 349.299434 
L 113.273122 360.260898 
L 96.042813 366.639734 
L 105.726337 394.457904 
L 152.810391 377.163661 
L 142.475237 349.299434 
" clip-path="url(#p9aa7f524f7)"/>
    <path d="M 231.066605 601.574313 
L 233.794358 607.515611 
L 202.955591 621.816177 
L 211.775327 645.258973 
L 248.933389 627.711419 
L 238.052684 598.350353 
L 231.066605 601.574313 
" clip-path="url(#p9aa7f524f7)"/>
    <path d="M 56.187305 527.97591 
L 69.341138 566.13378 
L 82.979905 561.205727 
L 68.174266 530.78536 
L 78.282108 526.870552 
L 94.04246 557.221833 
L 113.318584 550.037008 
L 99.513121 512.040335 
L 56.187305 527.97591 
" clip-path="url(#p9aa7f524f7)"/>
    <path d="M 314.535858 468.079336 
L 325.583259 464.371782 
L 313.717532 431.418304 
L 302.927752 435.310084 
L 314.535858 468.079336 
" clip-path="url(#p9aa7f524f7)"/>
    <path d="M 244.629601 543.95754 
L 226.080878 491.337906 
L 234.749072 483.185892 
L 199.409511 489.93318 
L 224.262375 552.454978 
L 244.629601 543.95754 
" clip-path="url(#p9aa7f524f7)"/>
    <path d="M 200.439996 410.669818 
L 157.690039 426.329053 
L 112.697263 442.563995 
L 127.366514 483.001666 
L 150.840347 474.412115 
L 139.823254 444.314144 
L 192.423432 425.845459 
L 202.864666 455.598005 
L 215.776032 451.452913 
L 200.439996 410.669818 
" clip-path="url(#p9aa7f524f7)"/>
    <path d="M 94.04246 557.221833 
L 106.332505 572.696842 
L 98.164399 572.604729 
L 102.165104 583.842533 
L 122.668717 575.805661 
L 113.318584 550.037008 
L 94.04246 557.221833 
" clip-path="url(#p9aa7f524f7)"/>
    <path d="M 268.315592 250.96865 
L 280.514712 246.570248 
L 266.724403 245.787286 
L 268.315592 250.96865 
" clip-path="url(#p9aa7f524f7)"/>
    <path d="M 423.888459 323.346555 
L 414.795948 326.662628 
L 423.176213 350.358735 
L 432.526345 347.272945 
L 423.888459 323.346555 
" clip-path="url(#p9aa7f524f7)"/>
    <path d="M 185.543432 573.456775 
L 162.994004 581.470619 
L 178.375502 623.819638 
L 200.803696 615.990021 
L 185.543432 573.456775 
" clip-path="url(#p9aa7f524f7)"/>
    <path d="M 215.776032 451.452913 
L 202.864666 455.598005 
L 187.649864 461.124794 
L 191.165635 470.750617 
L 221.48916 467.158205 
L 215.776032 451.452913 
" clip-path="url(#p9aa7f524f7)"/>
    <path d="M 326.78044 348.723727 
L 333.614977 366.593677 
L 348.996475 360.698436 
L 342.525638 342.828486 
L 326.78044 348.723727 
" clip-path="url(#p9aa7f524f7)"/>
    <path d="M 168.676823 526.594212 
L 146.157704 534.95348 
L 153.901493 556.277674 
L 176.420612 547.872349 
L 167.025017 538.361667 
L 168.676823 526.594212 
" clip-path="url(#p9aa7f524f7)"/>
    <path d="M 187.649864 461.124794 
L 150.840347 474.412115 
L 127.366514 483.001666 
L 133.337263 499.559004 
L 162.463607 489.518671 
L 174.874885 503.358671 
L 193.984313 496.427157 
L 183.72493 468.447789 
L 187.649864 461.124794 
" clip-path="url(#p9aa7f524f7)"/>
    <path d="M 176.420612 547.872349 
L 153.901493 556.277674 
L 162.994004 581.470619 
L 185.543432 573.456775 
L 170.752947 561.896576 
L 180.148542 558.396276 
L 176.420612 547.872349 
" clip-path="url(#p9aa7f524f7)"/>
    <path d="M 171.99559 329.080598 
L 170.146779 329.771447 
L 170.965105 332.051247 
L 172.753299 331.429484 
L 171.99559 329.080598 
" clip-path="url(#p9aa7f524f7)"/>
    <path d="M -1.18644 454.8611 
L -6.611639 456.795476 
L 10.164044 497.555543 
L 67.946953 479.616508 
L 77.888099 503.611982 
L 25.439463 523.116941 
L 28.333913 538.085327 
L 99.513121 512.040335 
L 79.797526 457.647522 
L 17.331974 480.514611 
L 6.633119 451.982564 
L -1.18644 454.8611 
" clip-path="url(#p9aa7f524f7)"/>
    <path d="M 60.900257 569.196542 
L 24.515058 582.368722 
L 73.235764 629.876078 
L 94.072769 609.219705 
L 83.964927 598.350353 
L 90.05691 591.787292 
L 60.900257 569.196542 
" clip-path="url(#p9aa7f524f7)"/>
    <path d="M 117.122285 358.787088 
L 115.682637 354.757138 
L 111.788012 356.138835 
L 113.273122 360.260898 
L 117.122285 358.787088 
" clip-path="url(#p9aa7f524f7)"/>
    <path d="M 276.892861 337.278668 
L 275.544139 333.755341 
L 267.027487 336.795074 
L 268.330747 340.272346 
L 276.892861 337.278668 
" clip-path="url(#p9aa7f524f7)"/>
    <path d="M 196.999996 578.661168 
L 218.549248 570.831551 
L 212.214798 553.882732 
L 191.286868 561.96566 
L 196.999996 578.661168 
" clip-path="url(#p9aa7f524f7)"/>
    <path d="M 247.736209 542.898239 
L 262.58731 585.155145 
L 236.522111 593.698639 
L 246.826957 622.276743 
L 299.305901 604.130453 
L 283.348544 601.321002 
L 265.890923 551.280536 
L 297.714712 540.042732 
L 315.142025 589.783831 
L 304.928104 601.528257 
L 336.115418 586.951351 
L 308.034712 522.656375 
L 247.736209 542.898239 
" clip-path="url(#p9aa7f524f7)"/>
    <path d="M 157.659731 471.948088 
L 156.265546 468.263562 
L 152.067836 469.737373 
L 153.507484 473.490983 
L 157.659731 471.948088 
" clip-path="url(#p9aa7f524f7)"/>
    <path d="M 219.519115 311.694242 
L 208.09286 280.145489 
L 192.317353 273.121862 
L 68.113649 319.546888 
L 86.51083 370.18609 
L 111.651624 360.836606 
L 100.634531 330.485324 
L 105.241403 326.409317 
L 112.591183 323.738036 
L 122.532329 351.049584 
L 118.561932 358.280466 
L 219.519115 311.694242 
" clip-path="url(#p9aa7f524f7)"/>
    <path d="M 219.519115 311.694242 
L 189.513828 322.655706 
L 211.169159 373.617305 
L 169.222374 391.326057 
L 164.812506 380.249451 
L 143.445105 388.102097 
L 157.690039 426.329053 
L 248.842464 392.615641 
L 219.519115 311.694242 
" clip-path="url(#p9aa7f524f7)"/>
    <path d="M 102.165104 583.842533 
L 107.863078 601.505229 
L 96.330742 606.755678 
L 106.42343 622.691252 
L 136.080171 612.812117 
L 122.668717 575.805661 
L 102.165104 583.842533 
" clip-path="url(#p9aa7f524f7)"/>
    <path d="M 204.668014 626.191552 
L 182.148894 634.320537 
L 189.892683 655.621702 
L 211.775327 645.258973 
L 204.668014 626.191552 
" clip-path="url(#p9aa7f524f7)"/>
    <path d="M 156.220083 491.798471 
L 133.337263 499.559004 
L 146.157704 534.95348 
L 168.676823 526.594212 
L 156.220083 491.798471 
" clip-path="url(#p9aa7f524f7)"/>
    <path d="M 336.706431 501.378239 
L 327.886695 504.99368 
L 353.163876 574.60819 
L 371.288282 565.995611 
L 346.76881 497.739769 
L 336.706431 501.378239 
" clip-path="url(#p9aa7f524f7)"/>
    <path d="M 248.842464 392.615641 
L 200.439996 410.669818 
L 206.607749 427.181099 
L 255.631539 411.222497 
L 248.842464 392.615641 
" clip-path="url(#p9aa7f524f7)"/>
    <path d="M 270.997883 320.8595 
L 280.878412 317.174974 
L 256.768103 249.471812 
L 237.825371 256.380298 
L 262.390306 324.129517 
L 270.997883 320.8595 
" clip-path="url(#p9aa7f524f7)"/>
    <path d="M 202.955591 621.816177 
L 200.803696 615.990021 
L 178.375502 623.819638 
L 182.148894 634.320537 
L 202.955591 621.816177 
" clip-path="url(#p9aa7f524f7)"/>
    <path d="M 387.685111 364.26782 
L 398.277886 392.684726 
L 321.794713 420.272613 
L 311.520175 391.924792 
L 387.685111 364.26782 
" clip-path="url(#p9aa7f524f7)"/>
    <path d="M 397.505023 284.728119 
L 407.446168 312.13178 
L 304.670483 349.276406 
L 294.517179 321.987886 
L 397.505023 284.728119 
" clip-path="url(#p9aa7f524f7)"/>
    <path d="M 447.635068 419.881132 
L 457.409518 446.824228 
L 353.83066 484.682731 
L 344.116828 457.394211 
L 447.635068 419.881132 
" clip-path="url(#p9aa7f524f7)"/>
    <path d="M 318.551717 344.256239 
L 333.630131 383.933977 
L 319.32458 389.230483 
L 304.670483 349.276406 
L 318.551717 344.256239 
" clip-path="url(#p9aa7f524f7)"/>
    <path d="M 344.207753 412.051515 
L 353.027489 436.300301 
L 358.770925 452.074677 
L 344.116828 457.394211 
L 330.11436 417.324993 
L 344.207753 412.051515 
" clip-path="url(#p9aa7f524f7)"/>
    <path d="M 391.988899 394.941498 
L 406.930926 434.619236 
L 385.214978 442.49491 
L 370.379031 402.679002 
L 391.988899 394.941498 
" clip-path="url(#p9aa7f524f7)"/>
    <path d="M 366.817797 326.823826 
L 381.259736 366.639734 
L 360.028722 374.469351 
L 344.99577 334.6995 
L 366.817797 326.823826 
" clip-path="url(#p9aa7f524f7)"/>
    <path d="M 360.028722 374.469351 
L 338.343083 382.160799 
L 336.024493 376.265558 
L 357.588898 367.998403 
L 360.028722 374.469351 
" clip-path="url(#p9aa7f524f7)"/>
    <path d="M 356.816035 365.971914 
L 357.588898 367.998403 
L 351.860616 368.067488 
L 356.816035 365.971914 
" clip-path="url(#p9aa7f524f7)"/>
    <path d="M 376.046696 564.636942 
L 384.89674 560.445794 
L 385.972688 562.748622 
L 377.122643 566.916742 
L 376.046696 564.636942 
" clip-path="url(#p9aa7f524f7)"/>
    <path d="M 485.065906 436.300301 
L 481.322822 437.774111 
L 478.398064 430.359003 
L 482.141148 428.885192 
L 485.065906 436.300301 
" clip-path="url(#p9aa7f524f7)"/>
    <path d="M 271.073654 320.882528 
L 282.090747 316.82955 
L 285.65198 326.455374 
L 274.513654 330.370182 
L 271.073654 320.882528 
" clip-path="url(#p9aa7f524f7)"/>
    <path d="M 307.367928 417.140766 
L 312.702201 431.7407 
L 302.927752 435.310084 
L 297.790483 420.641066 
L 307.367928 417.140766 
" clip-path="url(#p9aa7f524f7)"/>
    <path d="M 333.19066 491.40699 
L 336.706431 501.378239 
L 347.78414 498.683929 
L 344.116828 487.400069 
L 333.19066 491.40699 
" clip-path="url(#p9aa7f524f7)"/>
    <path d="M 368.257445 479.593479 
L 349.648105 490.186491 
L 358.528458 515.425493 
L 353.739735 517.313813 
L 344.389603 488.229087 
L 368.257445 479.593479 
" clip-path="url(#p9aa7f524f7)"/>
    <path d="M 324.158765 494.677007 
L 333.19066 491.40699 
L 334.827312 490.808255 
L 322.597884 490.347689 
L 324.158765 494.677007 
" clip-path="url(#p9aa7f524f7)"/>
    <path d="M 313.520527 397.750949 
L 308.716651 410.140167 
L 319.582201 414.423428 
L 313.520527 397.750949 
" clip-path="url(#p9aa7f524f7)"/>
    <path d="M 278.014271 309.207187 
L 286.606694 320.836472 
L 313.171981 315.447853 
L 285.303434 325.419101 
L 278.014271 309.207187 
" clip-path="url(#p9aa7f524f7)"/>
    <path d="M 541.075775 145.614239 
L 545.485643 158.072542 
L 564.898154 144.854306 
L 580.279653 186.950014 
L 551.198771 197.519997 
L 533.438066 149.183624 
L 541.075775 145.614239 
M 553.229432 175.389814 
L 564.776921 171.175637 
L 550.622912 167.882592 
L 553.229432 175.389814 
" clip-path="url(#p9aa7f524f7)"/>
    <path d="M 709.5297 269.045855 
L 666.582738 155.539431 
L 629.712605 55.389413 
L 640.290227 51.221293 
L 678.17569 152.660895 
L 714.606352 139.41963 
L 770.964767 291.037869 
L 751.158247 298.406921 
L 755.992432 289.863426 
L 746.687762 264.831679 
L 724.395956 273.121862 
L 736.170758 304.670615 
L 724.623268 308.76965 
L 709.5297 269.045855 
M 714.500273 246.524191 
L 736.50415 238.326121 
L 724.456572 205.925322 
L 702.195074 214.28459 
L 714.500273 246.524191 
" clip-path="url(#p9aa7f524f7)"/>
    <path d="M 644.624324 94.905952 
L 666.582738 155.539431 
L 638.168641 165.90216 
L 615.998068 105.29171 
L 644.624324 94.905952 
M 630.470315 125.786885 
L 641.275249 141.238865 
L 647.488465 140.317733 
L 644.518244 116.4374 
L 630.470315 125.786885 
" clip-path="url(#p9aa7f524f7)"/>
    <path d="M 588.220446 214.975438 
L 613.997715 205.602926 
L 620.695865 224.463093 
L 614.528112 230.772843 
L 622.044587 228.216703 
L 629.561063 248.919133 
L 593.418331 254.33078 
L 576.400181 268.147752 
L 568.838243 247.330181 
L 574.566525 240.421695 
L 567.216745 242.954807 
L 560.958066 224.877602 
L 588.220446 214.975438 
M 584.568287 244.497702 
L 606.860094 236.575971 
L 588.735688 235.148218 
L 584.568287 244.497702 
" clip-path="url(#p9aa7f524f7)"/>
    <path d="M 582.961943 265.798867 
L 624.029786 258.475872 
L 629.561063 248.919133 
L 637.123002 270.082128 
L 631.21287 276.36885 
L 638.517187 273.743626 
L 645.169874 292.23534 
L 592.221151 311.602129 
L 585.795776 294.077603 
L 591.3119 287.077004 
L 584.128816 289.54103 
L 576.400181 268.147752 
L 582.961943 265.798867 
M 599.055688 284.958401 
L 606.951019 285.994674 
L 621.968817 278.39534 
L 620.13516 273.237004 
L 599.055688 284.958401 
" clip-path="url(#p9aa7f524f7)"/>
    <path d="M 615.998068 105.29171 
L 638.168641 165.90216 
L 609.34538 176.357002 
L 587.220269 115.723523 
L 615.998068 105.29171 
M 601.919829 136.126585 
L 612.815689 151.486452 
L 619.028905 150.611378 
L 616.573927 126.800129 
L 601.919829 136.126585 
" clip-path="url(#p9aa7f524f7)"/>
    <path d="M 355.497621 -102.584633 
L 540.04529 -184.634418 
L 547.819387 -163.978045 
L 533.013748 -157.484068 
L 538.317713 -143.528927 
L 545.349255 -146.17718 
L 629.955072 86.915137 
L 566.595423 104.370578 
L 575.900093 130.093174 
L 459.318945 184.209648 
L 355.497621 -102.584633 
M 499.386611 98.866818 
L 597.54027 72.36126 
L 517.101854 -150.414384 
L 378.607754 -88.65252 
L 387.215331 -68.065232 
L 412.128812 -77.138377 
L 418.38749 -59.245398 
L 455.68194 -72.970257 
L 449.165641 -90.840207 
L 474.791368 -100.604201 
L 467.865905 -118.819575 
L 482.247227 -124.231223 
L 496.658858 -87.224766 
L 465.486698 -75.664566 
L 478.004055 -39.786496 
L 423.615684 -19.751886 
L 413.962468 -48.836612 
L 396.520001 -42.503834 
L 404.430485 -20.926329 
L 415.432424 -17.495114 
L 465.138152 120.46735 
L 502.265906 107.064888 
L 499.386611 98.866818 
M 484.338505 156.667817 
L 514.874188 142.620562 
L 508.160884 123.645254 
L 471.442293 137.116802 
L 484.338505 156.667817 
" clip-path="url(#p9aa7f524f7)"/>
    <path d="M 516.829078 335.827886 
L 499.583615 296.104092 
L 537.181149 282.28712 
L 540.636304 291.728718 
L 551.198771 290.531247 
L 562.625027 322.494508 
L 516.829078 335.827886 
M 531.710488 309.43747 
L 538.317713 307.15767 
L 533.331986 303.081663 
L 531.710488 309.43747 
" clip-path="url(#p9aa7f524f7)"/>
    <path d="M 588.644763 440.652647 
L 590.629961 413.179901 
L 608.148199 408.712413 
L 598.237362 394.135508 
L 613.103618 388.815974 
L 636.228905 433.951415 
L 615.604059 444.152946 
L 588.644763 440.652647 
M 608.951371 420.502896 
L 612.921768 418.200067 
L 615.422208 417.532247 
L 611.845821 415.874211 
L 608.951371 420.502896 
" clip-path="url(#p9aa7f524f7)"/>
    <path d="M 578.915776 142.413308 
L 572.399476 121.066086 
L 587.220269 115.723523 
L 609.34538 176.357002 
L 580.279653 186.950014 
L 565.701326 147.157135 
L 578.915776 142.413308 
M 579.40071 163.276935 
L 592.296922 158.464023 
L 579.900798 155.654572 
L 579.40071 163.276935 
" clip-path="url(#p9aa7f524f7)"/>
    <path d="M 96.982372 653.042534 
L 73.235764 629.876078 
L 96.330742 606.755678 
L 104.074531 619.052783 
L 97.285456 626.191552 
L 106.938672 635.771319 
L 122.577792 634.389622 
L 106.42343 622.691252 
L 136.080171 612.812117 
L 153.568101 661.010321 
L 131.761228 678.857243 
L 96.982372 653.042534 
M 125.563166 654.009722 
L 130.685281 651.568724 
L 114.955236 643.531852 
L 125.563166 654.009722 
" clip-path="url(#p9aa7f524f7)"/>
    <path d="M 533.074365 670.728258 
L 564.655687 653.480071 
L 598.222208 610.325062 
L 658.172165 657.463965 
L 605.299213 723.64726 
L 570.884058 742.392286 
L 533.074365 670.728258 
M 593.903265 686.802002 
L 603.798948 674.504897 
L 590.19049 663.474348 
L 580.05234 676.093849 
L 593.903265 686.802002 
" clip-path="url(#p9aa7f524f7)"/>
    <path d="M 587.674895 606.202999 
L 596.191547 612.789089 
L 576.475952 637.982034 
L 569.489873 632.455246 
L 524.178858 653.871552 
L 574.899917 749.99162 
L 461.743615 802.634283 
L 446.589429 770.624965 
L 384.002644 800.101172 
L 311.201937 633.952084 
L 509.176215 540.572382 
L 587.674895 606.202999 
M 384.608811 675.978707 
L 424.009693 657.556078 
L 408.552424 624.625628 
L 369.151542 643.27854 
L 384.608811 675.978707 
M 427.192072 723.186695 
L 410.370926 731.016312 
L 425.676653 763.716479 
L 442.497799 755.886862 
L 427.192072 723.186695 
M 449.771808 712.3634 
L 432.344495 720.653583 
L 447.801764 753.35375 
L 465.229077 745.063567 
L 449.771808 712.3634 
M 486.74802 628.540437 
L 464.62291 581.332449 
L 450.074892 588.240935 
L 472.351544 635.448923 
L 486.74802 628.540437 
M 500.386787 695.092185 
L 514.783263 688.413982 
L 504.933043 667.458241 
L 490.536567 674.366727 
L 500.386787 695.092185 
" clip-path="url(#p9aa7f524f7)"/>
   </g>
   <g id="LineCollection_1">
    <path d="M 515.601589 354.941364 
L 520.450929 367.606922 
" clip-path="url(#p9aa7f524f7)" style="fill: none; stroke: #ffffff; stroke-width: 8"/>
    <path d="M 515.601589 354.941364 
L 514.222559 342.644259 
" clip-path="url(#p9aa7f524f7)" style="fill: none; stroke: #ffffff; stroke-width: 8"/>
    <path d="M 475.155069 240.698035 
L 481.019738 251.314075 
" clip-path="url(#p9aa7f524f7)" style="fill: none; stroke: #ffffff; stroke-width: 8"/>
    <path d="M 475.155069 240.698035 
L 473.730575 228.723326 
" clip-path="url(#p9aa7f524f7)" style="fill: none; stroke: #ffffff; stroke-width: 8"/>
    <path d="M 420.16053 189.644323 
L 401.869428 196.115272 
" clip-path="url(#p9aa7f524f7)" style="fill: none; stroke: #ffffff; stroke-width: 8"/>
    <path d="M 420.16053 189.644323 
L 445.18009 180.732376 
" clip-path="url(#p9aa7f524f7)" style="fill: none; stroke: #ffffff; stroke-width: 8"/>
    <path d="M 445.18009 180.732376 
L 454.939385 177.093907 
" clip-path="url(#p9aa7f524f7)" style="fill: none; stroke: #ffffff; stroke-width: 8"/>
    <path d="M 445.18009 180.732376 
L 420.16053 189.644323 
" clip-path="url(#p9aa7f524f7)" style="fill: none; stroke: #ffffff; stroke-width: 8"/>
    <path d="M 405.779208 150.542293 
L 388.609516 157.358666 
" clip-path="url(#p9aa7f524f7)" style="fill: none; stroke: #ffffff; stroke-width: 8"/>
    <path d="M 405.779208 150.542293 
L 431.632248 141.284921 
" clip-path="url(#p9aa7f524f7)" style="fill: none; stroke: #ffffff; stroke-width: 8"/>
    <path d="M 431.632248 141.284921 
L 440.891455 138.498499 
" clip-path="url(#p9aa7f524f7)" style="fill: none; stroke: #ffffff; stroke-width: 8"/>
    <path d="M 431.632248 141.284921 
L 405.779208 150.542293 
" clip-path="url(#p9aa7f524f7)" style="fill: none; stroke: #ffffff; stroke-width: 8"/>
    <path d="M 221.277001 262.229483 
L 234.370217 255.067685 
" clip-path="url(#p9aa7f524f7)" style="fill: none; stroke: #ffffff; stroke-width: 8"/>
    <path d="M 221.277001 262.229483 
L 205.425723 266.259433 
" clip-path="url(#p9aa7f524f7)" style="fill: none; stroke: #ffffff; stroke-width: 8"/>
    <path d="M 198.212331 251.291046 
L 205.425723 266.259433 
" clip-path="url(#p9aa7f524f7)" style="fill: none; stroke: #ffffff; stroke-width: 8"/>
    <path d="M 198.212331 251.291046 
L 194.454093 236.345688 
" clip-path="url(#p9aa7f524f7)" style="fill: none; stroke: #ffffff; stroke-width: 8"/>
    <path d="M 231.233301 239.247253 
L 234.370217 255.067685 
" clip-path="url(#p9aa7f524f7)" style="fill: none; stroke: #ffffff; stroke-width: 8"/>
    <path d="M 231.233301 239.247253 
L 224.504842 226.213242 
" clip-path="url(#p9aa7f524f7)" style="fill: none; stroke: #ffffff; stroke-width: 8"/>
    <path d="M 209.562816 230.911013 
L 194.454093 236.345688 
" clip-path="url(#p9aa7f524f7)" style="fill: none; stroke: #ffffff; stroke-width: 8"/>
    <path d="M 209.562816 230.911013 
L 224.504842 226.213242 
" clip-path="url(#p9aa7f524f7)" style="fill: none; stroke: #ffffff; stroke-width: 8"/>
    <path d="M 383.032776 183.841195 
L 387.866961 199.454373 
" clip-path="url(#p9aa7f524f7)" style="fill: none; stroke: #ffffff; stroke-width: 8"/>
    <path d="M 383.032776 183.841195 
L 377.531806 169.287318 
" clip-path="url(#p9aa7f524f7)" style="fill: none; stroke: #ffffff; stroke-width: 8"/>
    <path d="M 343.768281 582.437807 
L 352.891101 578.453914 
" clip-path="url(#p9aa7f524f7)" style="fill: none; stroke: #ffffff; stroke-width: 8"/>
    <path d="M 343.768281 582.437807 
L 337.918766 584.993947 
" clip-path="url(#p9aa7f524f7)" style="fill: none; stroke: #ffffff; stroke-width: 8"/>
    <path d="M 521.284409 474.941766 
L 512.828373 479.225027 
" clip-path="url(#p9aa7f524f7)" style="fill: none; stroke: #ffffff; stroke-width: 8"/>
    <path d="M 521.284409 474.941766 
L 535.847581 449.794877 
" clip-path="url(#p9aa7f524f7)" style="fill: none; stroke: #ffffff; stroke-width: 8"/>
    <path d="M 512.828373 479.225027 
L 507.766876 481.642997 
" clip-path="url(#p9aa7f524f7)" style="fill: none; stroke: #ffffff; stroke-width: 8"/>
    <path d="M 512.828373 479.225027 
L 521.284409 474.941766 
" clip-path="url(#p9aa7f524f7)" style="fill: none; stroke: #ffffff; stroke-width: 8"/>
    <path d="M 507.766876 481.642997 
L 512.828373 479.225027 
" clip-path="url(#p9aa7f524f7)" style="fill: none; stroke: #ffffff; stroke-width: 8"/>
    <path d="M 507.766876 481.642997 
L 493.400708 487.077673 
" clip-path="url(#p9aa7f524f7)" style="fill: none; stroke: #ffffff; stroke-width: 8"/>
    <path d="M 507.766876 481.642997 
L 502.462911 505.454245 
" clip-path="url(#p9aa7f524f7)" style="fill: none; stroke: #ffffff; stroke-width: 8"/>
    <path d="M 535.847581 449.794877 
L 547.531458 439.639402 
" clip-path="url(#p9aa7f524f7)" style="fill: none; stroke: #ffffff; stroke-width: 8"/>
    <path d="M 535.847581 449.794877 
L 521.284409 474.941766 
" clip-path="url(#p9aa7f524f7)" style="fill: none; stroke: #ffffff; stroke-width: 8"/>
    <path d="M 566.913661 543.036409 
L 552.729344 564.936309 
" clip-path="url(#p9aa7f524f7)" style="fill: none; stroke: #ffffff; stroke-width: 8"/>
    <path d="M 566.913661 543.036409 
L 593.797186 521.551018 
" clip-path="url(#p9aa7f524f7)" style="fill: none; stroke: #ffffff; stroke-width: 8"/>
    <path d="M 468.578152 447.238737 
L 475.367227 444.63654 
" clip-path="url(#p9aa7f524f7)" style="fill: none; stroke: #ffffff; stroke-width: 8"/>
    <path d="M 608.890755 477.797273 
L 616.22538 482.518072 
" clip-path="url(#p9aa7f524f7)" style="fill: none; stroke: #ffffff; stroke-width: 8"/>
    <path d="M 608.890755 477.797273 
L 599.222384 465.707423 
" clip-path="url(#p9aa7f524f7)" style="fill: none; stroke: #ffffff; stroke-width: 8"/>
    <path d="M 599.222384 465.707423 
L 608.890755 477.797273 
" clip-path="url(#p9aa7f524f7)" style="fill: none; stroke: #ffffff; stroke-width: 8"/>
    <path d="M 599.222384 465.707423 
L 597.176569 454.446591 
" clip-path="url(#p9aa7f524f7)" style="fill: none; stroke: #ffffff; stroke-width: 8"/>
    <path d="M 593.797186 521.551018 
L 621.135336 516.599936 
" clip-path="url(#p9aa7f524f7)" style="fill: none; stroke: #ffffff; stroke-width: 8"/>
    <path d="M 593.797186 521.551018 
L 566.913661 543.036409 
" clip-path="url(#p9aa7f524f7)" style="fill: none; stroke: #ffffff; stroke-width: 8"/>
    <path d="M 272.967927 402.011182 
L 284.863963 397.843062 
" clip-path="url(#p9aa7f524f7)" style="fill: none; stroke: #ffffff; stroke-width: 8"/>
    <path d="M 272.967927 402.011182 
L 258.13198 409.380234 
" clip-path="url(#p9aa7f524f7)" style="fill: none; stroke: #ffffff; stroke-width: 8"/>
    <path d="M 516.14714 534.608056 
L 552.729344 564.936309 
" clip-path="url(#p9aa7f524f7)" style="fill: none; stroke: #ffffff; stroke-width: 8"/>
    <path d="M 516.14714 534.608056 
L 369.666784 601.942766 
" clip-path="url(#p9aa7f524f7)" style="fill: none; stroke: #ffffff; stroke-width: 8"/>
    <path d="M 516.14714 534.608056 
L 510.449166 522.172781 
" clip-path="url(#p9aa7f524f7)" style="fill: none; stroke: #ffffff; stroke-width: 8"/>
    <path d="M 288.576738 640.284863 
L 369.666784 601.942766 
" clip-path="url(#p9aa7f524f7)" style="fill: none; stroke: #ffffff; stroke-width: 8"/>
    <path d="M 607.254103 606.387225 
L 552.729344 564.936309 
" clip-path="url(#p9aa7f524f7)" style="fill: none; stroke: #ffffff; stroke-width: 8"/>
    <path d="M 401.869428 196.115272 
L 420.16053 189.644323 
" clip-path="url(#p9aa7f524f7)" style="fill: none; stroke: #ffffff; stroke-width: 8"/>
    <path d="M 401.869428 196.115272 
L 387.866961 199.454373 
" clip-path="url(#p9aa7f524f7)" style="fill: none; stroke: #ffffff; stroke-width: 8"/>
    <path d="M 388.609516 157.358666 
L 405.779208 150.542293 
" clip-path="url(#p9aa7f524f7)" style="fill: none; stroke: #ffffff; stroke-width: 8"/>
    <path d="M 388.609516 157.358666 
L 375.04652 162.724256 
" clip-path="url(#p9aa7f524f7)" style="fill: none; stroke: #ffffff; stroke-width: 8"/>
    <path d="M 510.449166 522.172781 
L 516.14714 534.608056 
" clip-path="url(#p9aa7f524f7)" style="fill: none; stroke: #ffffff; stroke-width: 8"/>
    <path d="M 510.449166 522.172781 
L 502.462911 505.454245 
" clip-path="url(#p9aa7f524f7)" style="fill: none; stroke: #ffffff; stroke-width: 8"/>
    <path d="M 375.04652 162.724256 
L 377.531806 169.287318 
" clip-path="url(#p9aa7f524f7)" style="fill: none; stroke: #ffffff; stroke-width: 8"/>
    <path d="M 375.04652 162.724256 
L 388.609516 157.358666 
" clip-path="url(#p9aa7f524f7)" style="fill: none; stroke: #ffffff; stroke-width: 8"/>
    <path d="M 205.425723 266.259433 
L 198.212331 251.291046 
" clip-path="url(#p9aa7f524f7)" style="fill: none; stroke: #ffffff; stroke-width: 8"/>
    <path d="M 205.425723 266.259433 
L 221.277001 262.229483 
" clip-path="url(#p9aa7f524f7)" style="fill: none; stroke: #ffffff; stroke-width: 8"/>
    <path d="M 205.425723 266.259433 
L 258.13198 409.380234 
" clip-path="url(#p9aa7f524f7)" style="fill: none; stroke: #ffffff; stroke-width: 8"/>
    <path d="M 337.918766 584.993947 
L 258.13198 409.380234 
" clip-path="url(#p9aa7f524f7)" style="fill: none; stroke: #ffffff; stroke-width: 8"/>
    <path d="M 337.918766 584.993947 
L 343.768281 582.437807 
" clip-path="url(#p9aa7f524f7)" style="fill: none; stroke: #ffffff; stroke-width: 8"/>
    <path d="M 194.454093 236.345688 
L 198.212331 251.291046 
" clip-path="url(#p9aa7f524f7)" style="fill: none; stroke: #ffffff; stroke-width: 8"/>
    <path d="M 194.454093 236.345688 
L 209.562816 230.911013 
" clip-path="url(#p9aa7f524f7)" style="fill: none; stroke: #ffffff; stroke-width: 8"/>
    <path d="M 224.504842 226.213242 
L 209.562816 230.911013 
" clip-path="url(#p9aa7f524f7)" style="fill: none; stroke: #ffffff; stroke-width: 8"/>
    <path d="M 224.504842 226.213242 
L 231.233301 239.247253 
" clip-path="url(#p9aa7f524f7)" style="fill: none; stroke: #ffffff; stroke-width: 8"/>
    <path d="M 224.504842 226.213242 
L 377.531806 169.287318 
" clip-path="url(#p9aa7f524f7)" style="fill: none; stroke: #ffffff; stroke-width: 8"/>
    <path d="M 234.370217 255.067685 
L 284.863963 397.843062 
" clip-path="url(#p9aa7f524f7)" style="fill: none; stroke: #ffffff; stroke-width: 8"/>
    <path d="M 234.370217 255.067685 
L 387.866961 199.454373 
" clip-path="url(#p9aa7f524f7)" style="fill: none; stroke: #ffffff; stroke-width: 8"/>
    <path d="M 234.370217 255.067685 
L 221.277001 262.229483 
" clip-path="url(#p9aa7f524f7)" style="fill: none; stroke: #ffffff; stroke-width: 8"/>
    <path d="M 234.370217 255.067685 
L 231.233301 239.247253 
" clip-path="url(#p9aa7f524f7)" style="fill: none; stroke: #ffffff; stroke-width: 8"/>
    <path d="M 377.531806 169.287318 
L 375.04652 162.724256 
" clip-path="url(#p9aa7f524f7)" style="fill: none; stroke: #ffffff; stroke-width: 8"/>
    <path d="M 377.531806 169.287318 
L 383.032776 183.841195 
" clip-path="url(#p9aa7f524f7)" style="fill: none; stroke: #ffffff; stroke-width: 8"/>
    <path d="M 377.531806 169.287318 
L 224.504842 226.213242 
" clip-path="url(#p9aa7f524f7)" style="fill: none; stroke: #ffffff; stroke-width: 8"/>
    <path d="M 387.866961 199.454373 
L 234.370217 255.067685 
" clip-path="url(#p9aa7f524f7)" style="fill: none; stroke: #ffffff; stroke-width: 8"/>
    <path d="M 387.866961 199.454373 
L 443.300971 360.007587 
" clip-path="url(#p9aa7f524f7)" style="fill: none; stroke: #ffffff; stroke-width: 8"/>
    <path d="M 387.866961 199.454373 
L 383.032776 183.841195 
" clip-path="url(#p9aa7f524f7)" style="fill: none; stroke: #ffffff; stroke-width: 8"/>
    <path d="M 387.866961 199.454373 
L 401.869428 196.115272 
" clip-path="url(#p9aa7f524f7)" style="fill: none; stroke: #ffffff; stroke-width: 8"/>
    <path d="M 493.400708 487.077673 
L 507.766876 481.642997 
" clip-path="url(#p9aa7f524f7)" style="fill: none; stroke: #ffffff; stroke-width: 8"/>
    <path d="M 493.400708 487.077673 
L 475.367227 444.63654 
" clip-path="url(#p9aa7f524f7)" style="fill: none; stroke: #ffffff; stroke-width: 8"/>
    <path d="M 493.400708 487.077673 
L 502.462911 505.454245 
" clip-path="url(#p9aa7f524f7)" style="fill: none; stroke: #ffffff; stroke-width: 8"/>
    <path d="M 502.462911 505.454245 
L 493.400708 487.077673 
" clip-path="url(#p9aa7f524f7)" style="fill: none; stroke: #ffffff; stroke-width: 8"/>
    <path d="M 502.462911 505.454245 
L 507.766876 481.642997 
" clip-path="url(#p9aa7f524f7)" style="fill: none; stroke: #ffffff; stroke-width: 8"/>
    <path d="M 502.462911 505.454245 
L 510.449166 522.172781 
" clip-path="url(#p9aa7f524f7)" style="fill: none; stroke: #ffffff; stroke-width: 8"/>
    <path d="M 502.462911 505.454245 
L 485.960003 515.909087 
" clip-path="url(#p9aa7f524f7)" style="fill: none; stroke: #ffffff; stroke-width: 8"/>
    <path d="M 358.695154 576.381368 
L 352.891101 578.453914 
" clip-path="url(#p9aa7f524f7)" style="fill: none; stroke: #ffffff; stroke-width: 8"/>
    <path d="M 358.695154 576.381368 
L 485.960003 515.909087 
" clip-path="url(#p9aa7f524f7)" style="fill: none; stroke: #ffffff; stroke-width: 8"/>
    <path d="M 358.695154 576.381368 
L 365.120529 590.497708 
" clip-path="url(#p9aa7f524f7)" style="fill: none; stroke: #ffffff; stroke-width: 8"/>
    <path d="M 352.891101 578.453914 
L 305.549426 452.765526 
" clip-path="url(#p9aa7f524f7)" style="fill: none; stroke: #ffffff; stroke-width: 8"/>
    <path d="M 352.891101 578.453914 
L 358.695154 576.381368 
" clip-path="url(#p9aa7f524f7)" style="fill: none; stroke: #ffffff; stroke-width: 8"/>
    <path d="M 352.891101 578.453914 
L 343.768281 582.437807 
" clip-path="url(#p9aa7f524f7)" style="fill: none; stroke: #ffffff; stroke-width: 8"/>
    <path d="M 473.730575 228.723326 
L 454.939385 177.093907 
" clip-path="url(#p9aa7f524f7)" style="fill: none; stroke: #ffffff; stroke-width: 8"/>
    <path d="M 473.730575 228.723326 
L 664.173223 160.329314 
L 672.174633 181.63048 
L 481.019738 251.314075 
" clip-path="url(#p9aa7f524f7)" style="fill: none; stroke: #ffffff; stroke-width: 8"/>
    <path d="M 473.730575 228.723326 
L 475.155069 240.698035 
" clip-path="url(#p9aa7f524f7)" style="fill: none; stroke: #ffffff; stroke-width: 8"/>
    <path d="M 481.019738 251.314075 
L 514.222559 342.644259 
" clip-path="url(#p9aa7f524f7)" style="fill: none; stroke: #ffffff; stroke-width: 8"/>
    <path d="M 481.019738 251.314075 
L 672.174633 181.63048 
L 664.173223 160.329314 
L 473.730575 228.723326 
" clip-path="url(#p9aa7f524f7)" style="fill: none; stroke: #ffffff; stroke-width: 8"/>
    <path d="M 481.019738 251.314075 
L 475.155069 240.698035 
" clip-path="url(#p9aa7f524f7)" style="fill: none; stroke: #ffffff; stroke-width: 8"/>
    <path d="M 514.222559 342.644259 
L 481.019738 251.314075 
" clip-path="url(#p9aa7f524f7)" style="fill: none; stroke: #ffffff; stroke-width: 8"/>
    <path d="M 514.222559 342.644259 
L 708.074898 273.098834 
L 715.136748 293.801263 
L 520.450929 367.606922 
" clip-path="url(#p9aa7f524f7)" style="fill: none; stroke: #ffffff; stroke-width: 8"/>
    <path d="M 514.222559 342.644259 
L 515.601589 354.941364 
" clip-path="url(#p9aa7f524f7)" style="fill: none; stroke: #ffffff; stroke-width: 8"/>
    <path d="M 520.450929 367.606922 
L 547.531458 439.639402 
" clip-path="url(#p9aa7f524f7)" style="fill: none; stroke: #ffffff; stroke-width: 8"/>
    <path d="M 520.450929 367.606922 
L 715.136748 293.801263 
L 708.074898 273.098834 
L 514.222559 342.644259 
" clip-path="url(#p9aa7f524f7)" style="fill: none; stroke: #ffffff; stroke-width: 8"/>
    <path d="M 520.450929 367.606922 
L 515.601589 354.941364 
" clip-path="url(#p9aa7f524f7)" style="fill: none; stroke: #ffffff; stroke-width: 8"/>
    <path d="M 547.531458 439.639402 
L 598.358596 445.85704 
" clip-path="url(#p9aa7f524f7)" style="fill: none; stroke: #ffffff; stroke-width: 8"/>
    <path d="M 547.531458 439.639402 
L 520.450929 367.606922 
" clip-path="url(#p9aa7f524f7)" style="fill: none; stroke: #ffffff; stroke-width: 8"/>
    <path d="M 547.531458 439.639402 
L 535.847581 449.794877 
" clip-path="url(#p9aa7f524f7)" style="fill: none; stroke: #ffffff; stroke-width: 8"/>
    <path d="M 454.939385 177.093907 
L 473.730575 228.723326 
" clip-path="url(#p9aa7f524f7)" style="fill: none; stroke: #ffffff; stroke-width: 8"/>
    <path d="M 454.939385 177.093907 
L 440.891455 138.498499 
" clip-path="url(#p9aa7f524f7)" style="fill: none; stroke: #ffffff; stroke-width: 8"/>
    <path d="M 454.939385 177.093907 
L 445.18009 180.732376 
" clip-path="url(#p9aa7f524f7)" style="fill: none; stroke: #ffffff; stroke-width: 8"/>
    <path d="M 440.891455 138.498499 
L 454.939385 177.093907 
" clip-path="url(#p9aa7f524f7)" style="fill: none; stroke: #ffffff; stroke-width: 8"/>
    <path d="M 440.891455 138.498499 
L 431.632248 141.284921 
" clip-path="url(#p9aa7f524f7)" style="fill: none; stroke: #ffffff; stroke-width: 8"/>
    <path d="M 623.075072 483.001666 
L 621.135336 516.599936 
" clip-path="url(#p9aa7f524f7)" style="fill: none; stroke: #ffffff; stroke-width: 8"/>
    <path d="M 623.075072 483.001666 
L 616.22538 482.518072 
" clip-path="url(#p9aa7f524f7)" style="fill: none; stroke: #ffffff; stroke-width: 8"/>
    <path d="M 616.22538 482.518072 
L 623.075072 483.001666 
" clip-path="url(#p9aa7f524f7)" style="fill: none; stroke: #ffffff; stroke-width: 8"/>
    <path d="M 616.22538 482.518072 
L 608.890755 477.797273 
" clip-path="url(#p9aa7f524f7)" style="fill: none; stroke: #ffffff; stroke-width: 8"/>
    <path d="M 598.358596 445.85704 
L 547.531458 439.639402 
" clip-path="url(#p9aa7f524f7)" style="fill: none; stroke: #ffffff; stroke-width: 8"/>
    <path d="M 598.358596 445.85704 
L 597.176569 454.446591 
" clip-path="url(#p9aa7f524f7)" style="fill: none; stroke: #ffffff; stroke-width: 8"/>
    <path d="M 597.176569 454.446591 
L 598.358596 445.85704 
" clip-path="url(#p9aa7f524f7)" style="fill: none; stroke: #ffffff; stroke-width: 8"/>
    <path d="M 597.176569 454.446591 
L 599.222384 465.707423 
" clip-path="url(#p9aa7f524f7)" style="fill: none; stroke: #ffffff; stroke-width: 8"/>
    <path d="M 621.135336 516.599936 
L 623.075072 483.001666 
" clip-path="url(#p9aa7f524f7)" style="fill: none; stroke: #ffffff; stroke-width: 8"/>
    <path d="M 621.135336 516.599936 
L 593.797186 521.551018 
" clip-path="url(#p9aa7f524f7)" style="fill: none; stroke: #ffffff; stroke-width: 8"/>
    <path d="M 552.729344 564.936309 
L 607.254103 606.387225 
" clip-path="url(#p9aa7f524f7)" style="fill: none; stroke: #ffffff; stroke-width: 8"/>
    <path d="M 552.729344 564.936309 
L 516.14714 534.608056 
" clip-path="url(#p9aa7f524f7)" style="fill: none; stroke: #ffffff; stroke-width: 8"/>
    <path d="M 552.729344 564.936309 
L 566.913661 543.036409 
" clip-path="url(#p9aa7f524f7)" style="fill: none; stroke: #ffffff; stroke-width: 8"/>
    <path d="M 369.666784 601.942766 
L 288.576738 640.284863 
" clip-path="url(#p9aa7f524f7)" style="fill: none; stroke: #ffffff; stroke-width: 8"/>
    <path d="M 369.666784 601.942766 
L 516.14714 534.608056 
" clip-path="url(#p9aa7f524f7)" style="fill: none; stroke: #ffffff; stroke-width: 8"/>
    <path d="M 369.666784 601.942766 
L 365.120529 590.497708 
" clip-path="url(#p9aa7f524f7)" style="fill: none; stroke: #ffffff; stroke-width: 8"/>
    <path d="M 365.120529 590.497708 
L 369.666784 601.942766 
" clip-path="url(#p9aa7f524f7)" style="fill: none; stroke: #ffffff; stroke-width: 8"/>
    <path d="M 365.120529 590.497708 
L 358.695154 576.381368 
" clip-path="url(#p9aa7f524f7)" style="fill: none; stroke: #ffffff; stroke-width: 8"/>
    <path d="M 258.13198 409.380234 
L 337.918766 584.993947 
" clip-path="url(#p9aa7f524f7)" style="fill: none; stroke: #ffffff; stroke-width: 8"/>
    <path d="M 258.13198 409.380234 
L 205.425723 266.259433 
" clip-path="url(#p9aa7f524f7)" style="fill: none; stroke: #ffffff; stroke-width: 8"/>
    <path d="M 258.13198 409.380234 
L 272.967927 402.011182 
" clip-path="url(#p9aa7f524f7)" style="fill: none; stroke: #ffffff; stroke-width: 8"/>
    <path d="M 284.863963 397.843062 
L 234.370217 255.067685 
" clip-path="url(#p9aa7f524f7)" style="fill: none; stroke: #ffffff; stroke-width: 8"/>
    <path d="M 284.863963 397.843062 
L 305.549426 452.765526 
" clip-path="url(#p9aa7f524f7)" style="fill: none; stroke: #ffffff; stroke-width: 8"/>
    <path d="M 284.863963 397.843062 
L 272.967927 402.011182 
" clip-path="url(#p9aa7f524f7)" style="fill: none; stroke: #ffffff; stroke-width: 8"/>
    <path d="M 475.367227 444.63654 
L 468.578152 447.238737 
" clip-path="url(#p9aa7f524f7)" style="fill: none; stroke: #ffffff; stroke-width: 8"/>
    <path d="M 475.367227 444.63654 
L 493.400708 487.077673 
" clip-path="url(#p9aa7f524f7)" style="fill: none; stroke: #ffffff; stroke-width: 8"/>
    <path d="M 475.367227 444.63654 
L 443.300971 360.007587 
" clip-path="url(#p9aa7f524f7)" style="fill: none; stroke: #ffffff; stroke-width: 8"/>
    <path d="M 405.036653 316.576239 
L 412.250045 314.020099 
L 408.234186 302.229616 
" clip-path="url(#p9aa7f524f7)" style="fill: none; stroke: #ffffff; stroke-width: 8"/>
    <path d="M 441.649165 418.867888 
L 448.695861 416.334776 
L 453.711896 430.543229 
" clip-path="url(#p9aa7f524f7)" style="fill: none; stroke: #ffffff; stroke-width: 8"/>
    <path d="M 443.300971 360.007587 
L 475.367227 444.63654 
" clip-path="url(#p9aa7f524f7)" style="fill: none; stroke: #ffffff; stroke-width: 8"/>
    <path d="M 443.300971 360.007587 
L 387.866961 199.454373 
" clip-path="url(#p9aa7f524f7)" style="fill: none; stroke: #ffffff; stroke-width: 8"/>
    <path d="M 482.201765 506.46749 
L 476.655333 492.972914 
" clip-path="url(#p9aa7f524f7)" style="fill: none; stroke: #ffffff; stroke-width: 8"/>
    <path d="M 482.201765 506.46749 
L 433.193129 527.860768 
" clip-path="url(#p9aa7f524f7)" style="fill: none; stroke: #ffffff; stroke-width: 8"/>
    <path d="M 482.201765 506.46749 
L 485.960003 515.909087 
" clip-path="url(#p9aa7f524f7)" style="fill: none; stroke: #ffffff; stroke-width: 8"/>
    <path d="M 402.566521 477.659103 
L 413.810926 473.306757 
" clip-path="url(#p9aa7f524f7)" style="fill: none; stroke: #ffffff; stroke-width: 8"/>
    <path d="M 402.566521 477.659103 
L 406.233833 487.100701 
" clip-path="url(#p9aa7f524f7)" style="fill: none; stroke: #ffffff; stroke-width: 8"/>
    <path d="M 402.566521 477.659103 
L 354.48229 495.482997 
L 357.573744 505.177906 
" clip-path="url(#p9aa7f524f7)" style="fill: none; stroke: #ffffff; stroke-width: 8"/>
    <path d="M 423.645992 532.074945 
L 433.193129 527.860768 
" clip-path="url(#p9aa7f524f7)" style="fill: none; stroke: #ffffff; stroke-width: 8"/>
    <path d="M 423.645992 532.074945 
L 416.659913 514.043796 
" clip-path="url(#p9aa7f524f7)" style="fill: none; stroke: #ffffff; stroke-width: 8"/>
    <path d="M 423.645992 532.074945 
L 373.152247 554.1821 
L 366.302555 532.604595 
" clip-path="url(#p9aa7f524f7)" style="fill: none; stroke: #ffffff; stroke-width: 8"/>
    <path d="M 413.810926 473.306757 
L 402.566521 477.659103 
" clip-path="url(#p9aa7f524f7)" style="fill: none; stroke: #ffffff; stroke-width: 8"/>
    <path d="M 413.810926 473.306757 
L 445.968108 461.516274 
" clip-path="url(#p9aa7f524f7)" style="fill: none; stroke: #ffffff; stroke-width: 8"/>
    <path d="M 413.810926 473.306757 
L 427.464847 511.740967 
" clip-path="url(#p9aa7f524f7)" style="fill: none; stroke: #ffffff; stroke-width: 8"/>
    <path d="M 433.193129 527.860768 
L 482.201765 506.46749 
" clip-path="url(#p9aa7f524f7)" style="fill: none; stroke: #ffffff; stroke-width: 8"/>
    <path d="M 433.193129 527.860768 
L 423.645992 532.074945 
" clip-path="url(#p9aa7f524f7)" style="fill: none; stroke: #ffffff; stroke-width: 8"/>
    <path d="M 433.193129 527.860768 
L 427.464847 511.740967 
" clip-path="url(#p9aa7f524f7)" style="fill: none; stroke: #ffffff; stroke-width: 8"/>
    <path d="M 357.573744 505.177906 
L 366.302555 532.604595 
" clip-path="url(#p9aa7f524f7)" style="fill: none; stroke: #ffffff; stroke-width: 8"/>
    <path d="M 357.573744 505.177906 
L 406.233833 487.100701 
" clip-path="url(#p9aa7f524f7)" style="fill: none; stroke: #ffffff; stroke-width: 8"/>
    <path d="M 357.573744 505.177906 
L 354.48229 495.482997 
L 402.566521 477.659103 
" clip-path="url(#p9aa7f524f7)" style="fill: none; stroke: #ffffff; stroke-width: 8"/>
    <path d="M 406.233833 487.100701 
L 416.659913 514.043796 
" clip-path="url(#p9aa7f524f7)" style="fill: none; stroke: #ffffff; stroke-width: 8"/>
    <path d="M 406.233833 487.100701 
L 402.566521 477.659103 
" clip-path="url(#p9aa7f524f7)" style="fill: none; stroke: #ffffff; stroke-width: 8"/>
    <path d="M 406.233833 487.100701 
L 357.573744 505.177906 
" clip-path="url(#p9aa7f524f7)" style="fill: none; stroke: #ffffff; stroke-width: 8"/>
    <path d="M 366.302555 532.604595 
L 357.573744 505.177906 
" clip-path="url(#p9aa7f524f7)" style="fill: none; stroke: #ffffff; stroke-width: 8"/>
    <path d="M 366.302555 532.604595 
L 416.659913 514.043796 
" clip-path="url(#p9aa7f524f7)" style="fill: none; stroke: #ffffff; stroke-width: 8"/>
    <path d="M 366.302555 532.604595 
L 373.152247 554.1821 
L 423.645992 532.074945 
" clip-path="url(#p9aa7f524f7)" style="fill: none; stroke: #ffffff; stroke-width: 8"/>
    <path d="M 416.659913 514.043796 
L 423.645992 532.074945 
" clip-path="url(#p9aa7f524f7)" style="fill: none; stroke: #ffffff; stroke-width: 8"/>
    <path d="M 416.659913 514.043796 
L 406.233833 487.100701 
" clip-path="url(#p9aa7f524f7)" style="fill: none; stroke: #ffffff; stroke-width: 8"/>
    <path d="M 416.659913 514.043796 
L 366.302555 532.604595 
" clip-path="url(#p9aa7f524f7)" style="fill: none; stroke: #ffffff; stroke-width: 8"/>
    <path d="M 427.464847 511.740967 
L 433.193129 527.860768 
" clip-path="url(#p9aa7f524f7)" style="fill: none; stroke: #ffffff; stroke-width: 8"/>
    <path d="M 427.464847 511.740967 
L 413.810926 473.306757 
" clip-path="url(#p9aa7f524f7)" style="fill: none; stroke: #ffffff; stroke-width: 8"/>
    <path d="M 427.464847 511.740967 
L 476.655333 492.972914 
" clip-path="url(#p9aa7f524f7)" style="fill: none; stroke: #ffffff; stroke-width: 8"/>
    <path d="M 476.655333 492.972914 
L 482.201765 506.46749 
" clip-path="url(#p9aa7f524f7)" style="fill: none; stroke: #ffffff; stroke-width: 8"/>
    <path d="M 476.655333 492.972914 
L 427.464847 511.740967 
" clip-path="url(#p9aa7f524f7)" style="fill: none; stroke: #ffffff; stroke-width: 8"/>
    <path d="M 476.655333 492.972914 
L 460.773747 456.104627 
" clip-path="url(#p9aa7f524f7)" style="fill: none; stroke: #ffffff; stroke-width: 8"/>
    <path d="M 485.960003 515.909087 
L 358.695154 576.381368 
" clip-path="url(#p9aa7f524f7)" style="fill: none; stroke: #ffffff; stroke-width: 8"/>
    <path d="M 485.960003 515.909087 
L 502.462911 505.454245 
" clip-path="url(#p9aa7f524f7)" style="fill: none; stroke: #ffffff; stroke-width: 8"/>
    <path d="M 485.960003 515.909087 
L 482.201765 506.46749 
" clip-path="url(#p9aa7f524f7)" style="fill: none; stroke: #ffffff; stroke-width: 8"/>
    <path d="M 305.549426 452.765526 
L 284.863963 397.843062 
" clip-path="url(#p9aa7f524f7)" style="fill: none; stroke: #ffffff; stroke-width: 8"/>
    <path d="M 305.549426 452.765526 
L 352.891101 578.453914 
" clip-path="url(#p9aa7f524f7)" style="fill: none; stroke: #ffffff; stroke-width: 8"/>
    <path d="M 402.763525 299.35108 
L 403.733393 299.051713 
" clip-path="url(#p9aa7f524f7)" style="fill: none; stroke: #ffffff; stroke-width: 8"/>
    <path d="M 403.733393 299.051713 
L 402.763525 299.35108 
" clip-path="url(#p9aa7f524f7)" style="fill: none; stroke: #ffffff; stroke-width: 8"/>
    <path d="M 408.234186 302.229616 
L 405.066961 293.018302 
" clip-path="url(#p9aa7f524f7)" style="fill: none; stroke: #ffffff; stroke-width: 8"/>
    <path d="M 408.234186 302.229616 
L 412.250045 314.020099 
L 405.036653 316.576239 
" clip-path="url(#p9aa7f524f7)" style="fill: none; stroke: #ffffff; stroke-width: 8"/>
    <path d="M 405.066961 293.018302 
L 408.234186 302.229616 
" clip-path="url(#p9aa7f524f7)" style="fill: none; stroke: #ffffff; stroke-width: 8"/>
    <path d="M 452.605641 433.582963 
L 453.014804 433.444793 
" clip-path="url(#p9aa7f524f7)" style="fill: none; stroke: #ffffff; stroke-width: 8"/>
    <path d="M 453.014804 433.444793 
L 452.605641 433.582963 
" clip-path="url(#p9aa7f524f7)" style="fill: none; stroke: #ffffff; stroke-width: 8"/>
    <path d="M 453.711896 430.543229 
L 455.333394 435.125858 
" clip-path="url(#p9aa7f524f7)" style="fill: none; stroke: #ffffff; stroke-width: 8"/>
    <path d="M 453.711896 430.543229 
L 448.695861 416.334776 
L 441.649165 418.867888 
" clip-path="url(#p9aa7f524f7)" style="fill: none; stroke: #ffffff; stroke-width: 8"/>
    <path d="M 455.333394 435.125858 
L 453.711896 430.543229 
" clip-path="url(#p9aa7f524f7)" style="fill: none; stroke: #ffffff; stroke-width: 8"/>
    <path d="M 455.333394 435.125858 
L 460.773747 456.104627 
" clip-path="url(#p9aa7f524f7)" style="fill: none; stroke: #ffffff; stroke-width: 8"/>
    <path d="M 460.773747 456.104627 
L 445.968108 461.516274 
" clip-path="url(#p9aa7f524f7)" style="fill: none; stroke: #ffffff; stroke-width: 8"/>
    <path d="M 460.773747 456.104627 
L 476.655333 492.972914 
" clip-path="url(#p9aa7f524f7)" style="fill: none; stroke: #ffffff; stroke-width: 8"/>
    <path d="M 460.773747 456.104627 
L 455.333394 435.125858 
" clip-path="url(#p9aa7f524f7)" style="fill: none; stroke: #ffffff; stroke-width: 8"/>
    <path d="M 445.968108 461.516274 
L 413.810926 473.306757 
" clip-path="url(#p9aa7f524f7)" style="fill: none; stroke: #ffffff; stroke-width: 8"/>
    <path d="M 445.968108 461.516274 
L 460.773747 456.104627 
" clip-path="url(#p9aa7f524f7)" style="fill: none; stroke: #ffffff; stroke-width: 8"/>
   </g>
   <g id="LineCollection_2">
    <path d="M 442.997887 252.212178 
L 466.789958 243.737768 
" clip-path="url(#p9aa7f524f7)" style="fill: none; stroke: #800080; stroke-width: 8"/>
    <path d="M 214.775855 245.257635 
L 209.562816 230.911013 
" clip-path="url(#p9aa7f524f7)" style="fill: none; stroke: #800080; stroke-width: 8"/>
    <path d="M 349.890572 597.659505 
L 343.768281 582.437807 
" clip-path="url(#p9aa7f524f7)" style="fill: none; stroke: #800080; stroke-width: 8"/>
    <path d="M 483.505025 366.639734 
L 515.601589 354.941364 
" clip-path="url(#p9aa7f524f7)" style="fill: none; stroke: #800080; stroke-width: 8"/>
    <path d="M 466.789958 243.737768 
L 475.155069 240.698035 
" clip-path="url(#p9aa7f524f7)" style="fill: none; stroke: #800080; stroke-width: 8"/>
    <path d="M 466.789958 243.737768 
L 442.997887 252.212178 
" clip-path="url(#p9aa7f524f7)" style="fill: none; stroke: #800080; stroke-width: 8"/>
    <path d="M 515.601589 354.941364 
L 483.505025 366.639734 
" clip-path="url(#p9aa7f524f7)" style="fill: none; stroke: #800080; stroke-width: 8"/>
    <path d="M 475.155069 240.698035 
L 466.789958 243.737768 
" clip-path="url(#p9aa7f524f7)" style="fill: none; stroke: #800080; stroke-width: 8"/>
    <path d="M 221.277001 262.229483 
L 214.775855 245.257635 
" clip-path="url(#p9aa7f524f7)" style="fill: none; stroke: #800080; stroke-width: 8"/>
    <path d="M 293.562465 457.463296 
L 272.967927 402.011182 
" clip-path="url(#p9aa7f524f7)" style="fill: none; stroke: #800080; stroke-width: 8"/>
    <path d="M 343.768281 582.437807 
L 293.562465 457.463296 
" clip-path="url(#p9aa7f524f7)" style="fill: none; stroke: #800080; stroke-width: 8"/>
    <path d="M 272.967927 402.011182 
L 221.277001 262.229483 
" clip-path="url(#p9aa7f524f7)" style="fill: none; stroke: #800080; stroke-width: 8"/>
   </g>
   <g id="LineCollection_3">
    <path d="M 413.917005 172.557335 
L 396.550309 178.890113 
" clip-path="url(#p9aa7f524f7)" style="fill: none; stroke: #800080; stroke-width: 8"/>
    <path d="M 214.775855 245.257635 
L 231.233301 239.247253 
" clip-path="url(#p9aa7f524f7)" style="fill: none; stroke: #800080; stroke-width: 8"/>
    <path d="M 214.775855 245.257635 
L 198.212331 251.291046 
" clip-path="url(#p9aa7f524f7)" style="fill: none; stroke: #800080; stroke-width: 8"/>
    <path d="M 396.550309 178.890113 
L 413.917005 172.557335 
" clip-path="url(#p9aa7f524f7)" style="fill: none; stroke: #800080; stroke-width: 8"/>
    <path d="M 396.550309 178.890113 
L 383.032776 183.841195 
" clip-path="url(#p9aa7f524f7)" style="fill: none; stroke: #800080; stroke-width: 8"/>
    <path d="M 198.212331 251.291046 
L 214.775855 245.257635 
" clip-path="url(#p9aa7f524f7)" style="fill: none; stroke: #800080; stroke-width: 8"/>
    <path d="M 231.233301 239.247253 
L 383.032776 183.841195 
" clip-path="url(#p9aa7f524f7)" style="fill: none; stroke: #800080; stroke-width: 8"/>
    <path d="M 231.233301 239.247253 
L 214.775855 245.257635 
" clip-path="url(#p9aa7f524f7)" style="fill: none; stroke: #800080; stroke-width: 8"/>
    <path d="M 383.032776 183.841195 
L 396.550309 178.890113 
" clip-path="url(#p9aa7f524f7)" style="fill: none; stroke: #800080; stroke-width: 8"/>
    <path d="M 383.032776 183.841195 
L 231.233301 239.247253 
" clip-path="url(#p9aa7f524f7)" style="fill: none; stroke: #800080; stroke-width: 8"/>
   </g>
   <g id="LineCollection_4">
    <path d="M 528.331105 498.246392 
L 518.541501 518.373114 
" clip-path="url(#p9aa7f524f7)" style="fill: none; stroke: #800080; stroke-width: 8"/>
    <path d="M 608.890755 477.797273 
L 639.608288 452.327988 
" clip-path="url(#p9aa7f524f7)" style="fill: none; stroke: #800080; stroke-width: 8"/>
    <path d="M 535.908198 519.570585 
L 582.65886 499.973513 
" clip-path="url(#p9aa7f524f7)" style="fill: none; stroke: #800080; stroke-width: 8"/>
    <path d="M 518.541501 518.373114 
L 510.449166 522.172781 
" clip-path="url(#p9aa7f524f7)" style="fill: none; stroke: #800080; stroke-width: 8"/>
    <path d="M 599.222384 465.707423 
L 567.701679 476.162265 
" clip-path="url(#p9aa7f524f7)" style="fill: none; stroke: #800080; stroke-width: 8"/>
    <path d="M 567.701679 476.162265 
L 528.331105 498.246392 
" clip-path="url(#p9aa7f524f7)" style="fill: none; stroke: #800080; stroke-width: 8"/>
    <path d="M 639.608288 452.327988 
L 599.222384 465.707423 
" clip-path="url(#p9aa7f524f7)" style="fill: none; stroke: #800080; stroke-width: 8"/>
    <path d="M 582.65886 499.973513 
L 608.890755 477.797273 
" clip-path="url(#p9aa7f524f7)" style="fill: none; stroke: #800080; stroke-width: 8"/>
    <path d="M 510.449166 522.172781 
L 365.120529 590.497708 
" clip-path="url(#p9aa7f524f7)" style="fill: none; stroke: #800080; stroke-width: 8"/>
    <path d="M 365.120529 590.497708 
L 349.890572 597.659505 
" clip-path="url(#p9aa7f524f7)" style="fill: none; stroke: #800080; stroke-width: 8"/>
   </g>
   <g id="LineCollection_5">
    <path d="M 442.997887 252.212178 
L 664.158069 172.304023 
" clip-path="url(#p9aa7f524f7)" style="fill: none; stroke: #800080; stroke-width: 8"/>
    <path d="M 44.382195 307.457037 
L 178.784665 678.09731 
" clip-path="url(#p9aa7f524f7)" style="fill: none; stroke: #800080; stroke-width: 8"/>
    <path d="M 214.775855 245.257635 
L 128.326376 -1 
" clip-path="url(#p9aa7f524f7)" style="fill: none; stroke: #800080; stroke-width: 8"/>
    <path d="M 349.890572 597.659505 
L 214.775855 245.257635 
" clip-path="url(#p9aa7f524f7)" style="fill: none; stroke: #800080; stroke-width: 8"/>
    <path d="M 483.505025 366.639734 
L 709.196308 284.958401 
" clip-path="url(#p9aa7f524f7)" style="fill: none; stroke: #800080; stroke-width: 8"/>
   </g>
   <g id="LineCollection_6">
    <path d="M 545.819035 546.076143 
L 554.09322 552.800402 
" clip-path="url(#p9aa7f524f7)" style="fill: none; stroke: #ff6600; stroke-width: 8"/>
    <path d="M 463.395421 405.096972 
L 457.63683 385.430816 
" clip-path="url(#p9aa7f524f7)" style="fill: none; stroke: #ff6600; stroke-width: 8"/>
    <path d="M 457.63683 385.430816 
L 463.395421 405.096972 
" clip-path="url(#p9aa7f524f7)" style="fill: none; stroke: #ff6600; stroke-width: 8"/>
    <path d="M 511.434188 385.845325 
L 503.326699 366.110083 
" clip-path="url(#p9aa7f524f7)" style="fill: none; stroke: #ff6600; stroke-width: 8"/>
    <path d="M 503.326699 366.110083 
L 511.434188 385.845325 
" clip-path="url(#p9aa7f524f7)" style="fill: none; stroke: #ff6600; stroke-width: 8"/>
    <path d="M 516.571457 517.636209 
L 499.917008 525.926392 
" clip-path="url(#p9aa7f524f7)" style="fill: none; stroke: #ff6600; stroke-width: 8"/>
    <path d="M 499.917008 525.926392 
L 516.571457 517.636209 
" clip-path="url(#p9aa7f524f7)" style="fill: none; stroke: #ff6600; stroke-width: 8"/>
    <path d="M 498.219739 516.438738 
L 513.964937 508.609121 
" clip-path="url(#p9aa7f524f7)" style="fill: none; stroke: #ff6600; stroke-width: 8"/>
    <path d="M 554.09322 552.800402 
L 545.819035 546.076143 
" clip-path="url(#p9aa7f524f7)" style="fill: none; stroke: #ff6600; stroke-width: 8"/>
    <path d="M 472.078769 529.104296 
L 465.09269 532.581567 
" clip-path="url(#p9aa7f524f7)" style="fill: none; stroke: #ff6600; stroke-width: 8"/>
    <path d="M 480.004408 545.016842 
L 473.003174 548.517141 
" clip-path="url(#p9aa7f524f7)" style="fill: none; stroke: #ff6600; stroke-width: 8"/>
    <path d="M 473.003174 548.517141 
L 480.004408 545.016842 
" clip-path="url(#p9aa7f524f7)" style="fill: none; stroke: #ff6600; stroke-width: 8"/>
    <path d="M 465.09269 532.581567 
L 472.078769 529.104296 
" clip-path="url(#p9aa7f524f7)" style="fill: none; stroke: #ff6600; stroke-width: 8"/>
   </g>
   <g id="patch_2">
    <path d="M 603.028698 510.435475 
L 621.088083 513.678196 
L 621.301476 510.933893 
L 603.242092 507.691173 
z
" clip-path="url(#p9aa7f524f7)" style="fill: #ff6600"/>
   </g>
   <g id="patch_3">
    <path d="M 606.734923 506.927032 
L 618.022038 508.953732 
L 618.235432 506.209429 
L 606.948316 504.182729 
z
" clip-path="url(#p9aa7f524f7)" style="fill: #ff6600"/>
   </g>
   <g id="patch_4">
    <path d="M 610.441147 503.418588 
L 617.213417 504.634608 
L 617.42681 501.890306 
L 610.65454 500.674285 
z
" clip-path="url(#p9aa7f524f7)" style="fill: #ff6600"/>
   </g>
   <g id="patch_5">
    <path d="M 573.612618 434.235574 
L 572.221904 461.788591 
L 574.035081 461.999923 
L 575.425795 434.446907 
z
" clip-path="url(#p9aa7f524f7)" style="fill: #ff6600"/>
   </g>
   <g id="patch_6">
    <path d="M 576.071624 439.718764 
L 575.202428 456.939399 
L 577.015605 457.150732 
L 577.884801 439.930097 
z
" clip-path="url(#p9aa7f524f7)" style="fill: #ff6600"/>
   </g>
   <g id="patch_7">
    <path d="M 578.530631 445.201954 
L 578.009113 455.534335 
L 579.822289 455.745668 
L 580.343807 445.413287 
z
" clip-path="url(#p9aa7f524f7)" style="fill: #ff6600"/>
   </g>
   <g id="patch_8">
    <path d="M 488.368478 483.720176 
L 504.077547 469.799438 
L 503.161467 467.412289 
L 487.452398 481.333027 
z
" clip-path="url(#p9aa7f524f7)" style="fill: #ff6600"/>
   </g>
   <g id="patch_9">
    <path d="M 489.939809 477.529314 
L 499.757977 468.828853 
L 498.841897 466.441704 
L 489.023729 475.142165 
z
" clip-path="url(#p9aa7f524f7)" style="fill: #ff6600"/>
   </g>
   <g id="patch_10">
    <path d="M 491.51114 471.338453 
L 497.402041 466.118176 
L 496.485961 463.731027 
L 490.59506 468.951304 
z
" clip-path="url(#p9aa7f524f7)" style="fill: #ff6600"/>
   </g>
   <g id="patch_11">
    <path d="M 545.293692 526.063242 
L 536.717747 550.431293 
L 538.321332 551.734493 
L 546.897276 527.366442 
z
" clip-path="url(#p9aa7f524f7)" style="fill: #ff6600"/>
   </g>
   <g id="patch_12">
    <path d="M 546.091079 532.587052 
L 540.731113 547.817083 
L 542.334697 549.120283 
L 547.694663 533.890251 
z
" clip-path="url(#p9aa7f524f7)" style="fill: #ff6600"/>
   </g>
   <g id="patch_13">
    <path d="M 546.888465 539.110861 
L 543.672486 548.24888 
L 545.27607 549.552079 
L 548.492049 540.41406 
z
" clip-path="url(#p9aa7f524f7)" style="fill: #ff6600"/>
   </g>
   <g id="patch_14">
    <path d="M 503.757962 399.774506 
L 519.183884 385.14084 
L 518.220889 382.796719 
L 502.794967 397.430384 
z
" clip-path="url(#p9aa7f524f7)" style="fill: #ff6600"/>
   </g>
   <g id="patch_15">
    <path d="M 505.20583 393.514511 
L 514.847031 384.36847 
L 513.884036 382.024348 
L 504.242835 391.170389 
z
" clip-path="url(#p9aa7f524f7)" style="fill: #ff6600"/>
   </g>
   <g id="patch_16">
    <path d="M 506.653697 387.254516 
L 512.438418 381.766892 
L 511.475423 379.42277 
L 505.690702 384.910394 
z
" clip-path="url(#p9aa7f524f7)" style="fill: #ff6600"/>
   </g>
   <g id="patch_17">
    <path d="M 454.752615 418.064842 
L 471.367088 406.830663 
L 470.627803 404.30593 
L 454.01333 415.540108 
z
" clip-path="url(#p9aa7f524f7)" style="fill: #ff6600"/>
   </g>
   <g id="patch_18">
    <path d="M 456.758901 412.171333 
L 467.142946 405.149971 
L 466.40366 402.625237 
L 456.019615 409.646599 
z
" clip-path="url(#p9aa7f524f7)" style="fill: #ff6600"/>
   </g>
   <g id="patch_19">
    <path d="M 458.765186 406.277824 
L 464.995613 402.065007 
L 464.256327 399.540273 
L 458.0259 403.75309 
z
" clip-path="url(#p9aa7f524f7)" style="fill: #ff6600"/>
   </g>
   <g id="patch_20">
    <path d="M 522.583215 532.817931 
L 516.922314 506.557023 
L 515.194167 507.417253 
L 520.855068 533.678161 
z
" clip-path="url(#p9aa7f524f7)" style="fill: #ff6600"/>
   </g>
   <g id="patch_21">
    <path d="M 518.929575 529.184356 
L 515.391512 512.771288 
L 513.663365 513.631518 
L 517.201428 530.044586 
z
" clip-path="url(#p9aa7f524f7)" style="fill: #ff6600"/>
   </g>
   <g id="patch_22">
    <path d="M 515.275936 525.55078 
L 513.153098 515.70294 
L 511.424951 516.56317 
L 513.547789 526.41101 
z
" clip-path="url(#p9aa7f524f7)" style="fill: #ff6600"/>
   </g>
   <g id="patch_23">
    <path d="M 520.429137 523.567109 
L 514.773431 497.303616 
L 513.045114 498.163057 
L 518.70082 524.426549 
z
" clip-path="url(#p9aa7f524f7)" style="fill: #ff6600"/>
   </g>
   <g id="patch_24">
    <path d="M 516.776216 519.931865 
L 513.2414 503.517182 
L 511.513083 504.376622 
L 515.047899 520.791305 
z
" clip-path="url(#p9aa7f524f7)" style="fill: #ff6600"/>
   </g>
   <g id="patch_25">
    <path d="M 513.123295 516.296621 
L 511.002406 506.447811 
L 509.274088 507.307251 
L 511.394978 517.156061 
z
" clip-path="url(#p9aa7f524f7)" style="fill: #ff6600"/>
   </g>
   <g id="patch_26">
    <path d="M 490.852162 557.77541 
L 485.168898 531.525658 
L 483.441485 532.389286 
L 489.124749 558.639038 
z
" clip-path="url(#p9aa7f524f7)" style="fill: #ff6600"/>
   </g>
   <g id="patch_27">
    <path d="M 487.19543 554.149024 
L 483.643391 537.742929 
L 481.915978 538.606557 
L 485.468018 555.012652 
z
" clip-path="url(#p9aa7f524f7)" style="fill: #ff6600"/>
   </g>
   <g id="patch_28">
    <path d="M 483.538699 550.522638 
L 481.407475 540.678981 
L 479.680062 541.542609 
L 481.811286 551.386266 
z
" clip-path="url(#p9aa7f524f7)" style="fill: #ff6600"/>
   </g>
   <g id="patch_29">
    <path d="M 482.924569 541.879989 
L 477.264008 515.618912 
L 475.535849 516.479091 
L 481.196411 542.740167 
z
" clip-path="url(#p9aa7f524f7)" style="fill: #ff6600"/>
   </g>
   <g id="patch_30">
    <path d="M 479.270976 538.246305 
L 475.733125 521.833132 
L 474.004967 522.69331 
L 477.542818 539.106483 
z
" clip-path="url(#p9aa7f524f7)" style="fill: #ff6600"/>
   </g>
   <g id="patch_31">
    <path d="M 475.617384 534.61262 
L 473.494673 524.764717 
L 471.766515 525.624895 
L 473.889226 535.472799 
z
" clip-path="url(#p9aa7f524f7)" style="fill: #ff6600"/>
   </g>
   <g id="patch_32">
    <path d="M 381.236912 366.252371 
L 385.518696 393.109383 
L 387.286071 392.458723 
L 383.004287 365.601712 
z
" clip-path="url(#p9aa7f524f7)" style="fill: #ff6600"/>
   </g>
   <g id="patch_33">
    <path d="M 384.690809 370.312072 
L 387.366924 387.097704 
L 389.134299 386.447044 
L 386.458183 369.661412 
z
" clip-path="url(#p9aa7f524f7)" style="fill: #ff6600"/>
   </g>
   <g id="patch_34">
    <path d="M 388.144705 374.371772 
L 389.750375 384.443151 
L 391.517749 383.792492 
L 389.91208 373.721112 
z
" clip-path="url(#p9aa7f524f7)" style="fill: #ff6600"/>
   </g>
   <g id="patch_35">
    <path d="M 375.117763 384.836764 
L 359.345314 398.591014 
L 360.250437 400.987794 
L 376.022887 387.233544 
z
" clip-path="url(#p9aa7f524f7)" style="fill: #ff6600"/>
   </g>
   <g id="patch_36">
    <path d="M 373.518114 391.010856 
L 363.660333 399.607262 
L 364.565457 402.004042 
L 374.423238 393.407636 
z
" clip-path="url(#p9aa7f524f7)" style="fill: #ff6600"/>
   </g>
   <g id="patch_37">
    <path d="M 371.918465 397.184948 
L 366.003797 402.342792 
L 366.90892 404.739572 
L 372.823589 399.581728 
z
" clip-path="url(#p9aa7f524f7)" style="fill: #ff6600"/>
   </g>
   <g id="patch_38">
    <path d="M 448.432553 456.576506 
L 464.354953 443.227174 
L 463.476476 440.807607 
L 447.554076 454.15694 
z
" clip-path="url(#p9aa7f524f7)" style="fill: #ff6600"/>
   </g>
   <g id="patch_39">
    <path d="M 450.100287 450.444157 
L 460.051787 442.100824 
L 459.17331 439.681257 
L 449.22181 448.02459 
z
" clip-path="url(#p9aa7f524f7)" style="fill: #ff6600"/>
   </g>
   <g id="patch_40">
    <path d="M 451.768021 444.311807 
L 457.738921 439.305807 
L 456.860444 436.886241 
L 450.889544 441.892241 
z
" clip-path="url(#p9aa7f524f7)" style="fill: #ff6600"/>
   </g>
   <g id="patch_41">
    <path d="M 457.200903 410.144471 
L 441.512721 424.119495 
L 442.432373 426.50347 
L 458.120555 412.528446 
z
" clip-path="url(#p9aa7f524f7)" style="fill: #ff6600"/>
   </g>
   <g id="patch_42">
    <path d="M 455.638847 416.34075 
L 445.833733 425.07514 
L 446.753385 427.459115 
L 456.558499 418.724725 
z
" clip-path="url(#p9aa7f524f7)" style="fill: #ff6600"/>
   </g>
   <g id="patch_43">
    <path d="M 454.076791 422.537029 
L 448.193722 427.777663 
L 449.113374 430.161638 
L 454.996443 424.921004 
z
" clip-path="url(#p9aa7f524f7)" style="fill: #ff6600"/>
   </g>
   <g id="patch_44">
    <path d="M 464.372002 468.506749 
L 460.124191 441.637283 
L 458.355997 442.28278 
L 462.603807 469.152246 
z
" clip-path="url(#p9aa7f524f7)" style="fill: #ff6600"/>
   </g>
   <g id="patch_45">
    <path d="M 460.923246 464.43697 
L 458.268364 447.643553 
L 456.50017 448.28905 
L 459.155051 465.082467 
z
" clip-path="url(#p9aa7f524f7)" style="fill: #ff6600"/>
   </g>
   <g id="patch_46">
    <path d="M 457.47449 460.36719 
L 455.88156 450.29114 
L 454.113366 450.936637 
L 455.706295 461.012687 
z
" clip-path="url(#p9aa7f524f7)" style="fill: #ff6600"/>
   </g>
   <g id="patch_47">
    <path d="M 371.546846 273.656329 
L 375.858478 300.502312 
L 377.625127 299.847117 
L 373.313495 273.001134 
z
" clip-path="url(#p9aa7f524f7)" style="fill: #ff6600"/>
   </g>
   <g id="patch_48">
    <path d="M 375.005251 277.707158 
L 377.70002 294.485897 
L 379.466669 293.830702 
L 376.7719 277.051963 
z
" clip-path="url(#p9aa7f524f7)" style="fill: #ff6600"/>
   </g>
   <g id="patch_49">
    <path d="M 378.463655 281.757987 
L 380.080517 291.825231 
L 381.847166 291.170035 
L 380.230304 281.102792 
z
" clip-path="url(#p9aa7f524f7)" style="fill: #ff6600"/>
   </g>
   <g id="patch_50">
    <path d="M 398.657581 321.328449 
L 414.712635 308.35119 
L 413.858643 305.911466 
L 397.803589 318.888724 
z
" clip-path="url(#p9aa7f524f7)" style="fill: #ff6600"/>
   </g>
   <g id="patch_51">
    <path d="M 400.386915 315.235626 
L 410.421324 307.124839 
L 409.567332 304.685115 
L 399.532923 312.795901 
z
" clip-path="url(#p9aa7f524f7)" style="fill: #ff6600"/>
   </g>
   <g id="patch_52">
    <path d="M 402.11625 309.142803 
L 408.136895 304.276331 
L 407.282903 301.836606 
L 401.262257 306.703078 
z
" clip-path="url(#p9aa7f524f7)" style="fill: #ff6600"/>
   </g>
   <g id="patch_53">
    <path d="M 408.757831 276.759307 
L 392.735626 289.829978 
L 393.595766 292.264711 
L 409.617971 279.194039 
z
" clip-path="url(#p9aa7f524f7)" style="fill: #ff6600"/>
   </g>
   <g id="patch_54">
    <path d="M 407.043877 282.862157 
L 397.029999 291.031326 
L 397.890138 293.466059 
L 407.904016 285.29689 
z
" clip-path="url(#p9aa7f524f7)" style="fill: #ff6600"/>
   </g>
   <g id="patch_55">
    <path d="M 405.329923 288.965007 
L 399.321596 293.866508 
L 400.181735 296.301241 
L 406.190062 291.39974 
z
" clip-path="url(#p9aa7f524f7)" style="fill: #ff6600"/>
   </g>
   <g id="patch_56">
    <path d="M 148.673299 317.520399 
C 151.285608 317.520399 153.791275 317.035117 155.638456 316.171433 
C 157.485638 315.307748 158.523519 314.136176 158.523519 312.914741 
C 158.523519 311.693307 157.485638 310.521734 155.638456 309.65805 
C 153.791275 308.794365 151.285608 308.309084 148.673299 308.309084 
C 146.06099 308.309084 143.555322 308.794365 141.708141 309.65805 
C 139.86096 310.521734 138.823078 311.693307 138.823078 312.914741 
C 138.823078 314.136176 139.86096 315.307748 141.708141 316.171433 
C 143.555322 317.035117 146.06099 317.520399 148.673299 317.520399 
z
" clip-path="url(#p9aa7f524f7)" style="fill: #ff6600; stroke: #ff6600; stroke-linejoin: miter"/>
   </g>
   <g id="PathCollection_1">
    <defs>
     <path id="me25a282ad4" d="M 0 -2.236068 
L 0 0 
L -2.236068 -0 
L 0 0 
L -0 2.236068 
L 0 0 
L 2.236068 0 
L 0 0 
z
" style="stroke: #ff6600; stroke-width: 1.5"/>
    </defs>
    <g clip-path="url(#p9aa7f524f7)">
     <use xlink:href="#me25a282ad4" x="515.374277" y="485.672947" style="fill: #ff6600; stroke: #ff6600; stroke-width: 1.5"/>
     <use xlink:href="#me25a282ad4" x="514.222559" y="484.498504" style="fill: #ff6600; stroke: #ff6600; stroke-width: 1.5"/>
     <use xlink:href="#me25a282ad4" x="499.644232" y="492.788688" style="fill: #ff6600; stroke: #ff6600; stroke-width: 1.5"/>
     <use xlink:href="#me25a282ad4" x="542.182031" y="478.37298" style="fill: #ff6600; stroke: #ff6600; stroke-width: 1.5"/>
     <use xlink:href="#me25a282ad4" x="628.894279" y="506.237207" style="fill: #ff6600; stroke: #ff6600; stroke-width: 1.5"/>
     <use xlink:href="#me25a282ad4" x="629.348905" y="501.63155" style="fill: #ff6600; stroke: #ff6600; stroke-width: 1.5"/>
     <use xlink:href="#me25a282ad4" x="393.489164" y="379.512546" style="fill: #ff6600; stroke: #ff6600; stroke-width: 1.5"/>
     <use xlink:href="#me25a282ad4" x="361.301674" y="405.925991" style="fill: #ff6600; stroke: #ff6600; stroke-width: 1.5"/>
     <use xlink:href="#me25a282ad4" x="308.762113" y="451.683196" style="fill: #ff6600; stroke: #ff6600; stroke-width: 1.5"/>
     <use xlink:href="#me25a282ad4" x="402.763525" y="299.35108" style="fill: #ff6600; stroke: #ff6600; stroke-width: 1.5"/>
     <use xlink:href="#me25a282ad4" x="299.790835" y="335.78183" style="fill: #ff6600; stroke: #ff6600; stroke-width: 1.5"/>
     <use xlink:href="#me25a282ad4" x="452.605641" y="433.582963" style="fill: #ff6600; stroke: #ff6600; stroke-width: 1.5"/>
     <use xlink:href="#me25a282ad4" x="305.761584" y="318.050049" style="fill: #ff6600; stroke: #ff6600; stroke-width: 1.5"/>
     <use xlink:href="#me25a282ad4" x="279.575152" y="313.352279" style="fill: #ff6600; stroke: #ff6600; stroke-width: 1.5"/>
    </g>
   </g>
   <g id="patch_57">
    <path d="M 448.992204 250.077084 
L 453.51059 239.006727 
L 460.795641 245.872862 
L 456.277256 256.94322 
z
" clip-path="url(#p9aa7f524f7)" style="fill: #ff6600"/>
   </g>
   <g id="patch_58">
    <path d="M 209.239277 230.020613 
L 209.792922 250.600549 
L 220.405867 241.69552 
z
" clip-path="url(#p9aa7f524f7)" style="fill: #ff6600"/>
   </g>
   <g id="patch_59">
    <path d="M 343.66825 582.189102 
L 344.81848 602.711931 
L 355.162726 593.104488 
z
" clip-path="url(#p9aa7f524f7)" style="fill: #ff6600"/>
   </g>
   <g id="patch_60">
    <path d="M 493.65881 362.938941 
L 498.139518 351.833277 
L 505.447804 358.642157 
L 500.967096 369.747821 
z
" clip-path="url(#p9aa7f524f7)" style="fill: #ff6600"/>
   </g>
   <g id="patch_61">
    <path d="M 465.077057 244.360207 
L 469.56273 233.259171 
L 476.86797 240.075596 
L 472.382296 251.176632 
z
" clip-path="url(#p9aa7f524f7)" style="fill: #ff6600"/>
   </g>
   <g id="patch_62">
    <path d="M 460.795641 245.872862 
L 456.277256 256.94322 
L 448.992204 250.077084 
L 453.51059 239.006727 
z
" clip-path="url(#p9aa7f524f7)" style="fill: #ff6600"/>
   </g>
   <g id="patch_63">
    <path d="M 505.447804 358.642157 
L 500.967096 369.747821 
L 493.65881 362.938941 
L 498.139518 351.833277 
z
" clip-path="url(#p9aa7f524f7)" style="fill: #ff6600"/>
   </g>
   <g id="patch_64">
    <path d="M 476.86797 240.075596 
L 472.382296 251.176632 
L 465.077057 244.360207 
L 469.56273 233.259171 
z
" clip-path="url(#p9aa7f524f7)" style="fill: #ff6600"/>
   </g>
   <g id="patch_65">
    <path d="M 214.976989 245.782714 
L 215.837087 266.338329 
L 226.314647 257.070479 
z
" clip-path="url(#p9aa7f524f7)" style="fill: #ff6600"/>
   </g>
   <g id="patch_66">
    <path d="M 280.285901 421.715296 
L 280.965505 442.286516 
L 291.523477 433.231848 
z
" clip-path="url(#p9aa7f524f7)" style="fill: #ff6600"/>
   </g>
   <g id="patch_67">
    <path d="M 315.506943 512.088449 
L 316.650003 532.612202 
L 326.997604 523.013106 
z
" clip-path="url(#p9aa7f524f7)" style="fill: #ff6600"/>
   </g>
   <g id="patch_68">
    <path d="M 244.152892 324.090069 
L 244.807574 344.663154 
L 255.376498 335.638038 
z
" clip-path="url(#p9aa7f524f7)" style="fill: #ff6600"/>
   </g>
   <g id="patch_69">
    <path d="M 411.127999 173.574348 
L 406.648094 184.68076 
L 399.339316 177.8731 
L 403.819221 166.766688 
z
" clip-path="url(#p9aa7f524f7)" style="fill: #ff6600"/>
   </g>
   <g id="patch_70">
    <path d="M 217.110727 244.404923 
L 221.5881 233.296153 
L 228.898429 240.099965 
L 224.421056 251.208735 
z
" clip-path="url(#p9aa7f524f7)" style="fill: #ff6600"/>
   </g>
   <g id="patch_71">
    <path d="M 212.388779 246.127149 
L 207.907092 257.231901 
L 200.599407 250.421533 
L 205.081094 239.316781 
z
" clip-path="url(#p9aa7f524f7)" style="fill: #ff6600"/>
   </g>
   <g id="patch_72">
    <path d="M 399.339316 177.8731 
L 403.819221 166.766688 
L 411.127999 173.574348 
L 406.648094 184.68076 
z
" clip-path="url(#p9aa7f524f7)" style="fill: #ff6600"/>
   </g>
   <g id="patch_73">
    <path d="M 395.684455 179.207251 
L 391.211919 190.320519 
L 383.898629 183.524058 
L 388.371165 172.410789 
z
" clip-path="url(#p9aa7f524f7)" style="fill: #ff6600"/>
   </g>
   <g id="patch_74">
    <path d="M 200.599407 250.421533 
L 205.081094 239.316781 
L 212.388779 246.127149 
L 207.907092 257.231901 
z
" clip-path="url(#p9aa7f524f7)" style="fill: #ff6600"/>
   </g>
   <g id="patch_75">
    <path d="M 301.239 213.695519 
L 305.717339 202.587648 
L 313.027077 209.392929 
L 308.548737 220.500799 
z
" clip-path="url(#p9aa7f524f7)" style="fill: #ff6600"/>
   </g>
   <g id="patch_76">
    <path d="M 228.898429 240.099965 
L 224.421056 251.208735 
L 217.110727 244.404923 
L 221.5881 233.296153 
z
" clip-path="url(#p9aa7f524f7)" style="fill: #ff6600"/>
   </g>
   <g id="patch_77">
    <path d="M 383.898629 183.524058 
L 388.371165 172.410789 
L 395.684455 179.207251 
L 391.211919 190.320519 
z
" clip-path="url(#p9aa7f524f7)" style="fill: #ff6600"/>
   </g>
   <g id="patch_78">
    <path d="M 313.027077 209.392929 
L 308.548737 220.500799 
L 301.239 213.695519 
L 305.717339 202.587648 
z
" clip-path="url(#p9aa7f524f7)" style="fill: #ff6600"/>
   </g>
   <g id="patch_79">
    <path d="M 519.833298 515.717272 
L 531.913962 506.377356 
L 522.164654 495.42711 
z
" clip-path="url(#p9aa7f524f7)" style="fill: #ff6600"/>
   </g>
   <g id="patch_80">
    <path d="M 629.570637 460.650655 
L 616.025025 461.388644 
L 621.831787 477.560569 
z
" clip-path="url(#p9aa7f524f7)" style="fill: #ff6600"/>
   </g>
   <g id="patch_81">
    <path d="M 565.126955 507.322586 
L 551.828189 503.341848 
L 555.052017 521.101177 
z
" clip-path="url(#p9aa7f524f7)" style="fill: #ff6600"/>
   </g>
   <g id="patch_82">
    <path d="M 508.703827 522.992286 
L 522.076351 526.354377 
L 518.49733 508.752841 
z
" clip-path="url(#p9aa7f524f7)" style="fill: #ff6600"/>
   </g>
   <g id="patch_83">
    <path d="M 577.539788 472.899144 
L 590.676918 477.969979 
L 588.091631 459.971108 
z
" clip-path="url(#p9aa7f524f7)" style="fill: #ff6600"/>
   </g>
   <g id="patch_84">
    <path d="M 542.329771 490.394123 
L 555.802116 492.655917 
L 551.60391 475.373149 
z
" clip-path="url(#p9aa7f524f7)" style="fill: #ff6600"/>
   </g>
   <g id="patch_85">
    <path d="M 613.492775 460.979789 
L 626.629083 466.055541 
L 624.046713 448.055703 
z
" clip-path="url(#p9aa7f524f7)" style="fill: #ff6600"/>
   </g>
   <g id="patch_86">
    <path d="M 601.071931 484.407246 
L 587.530757 485.314036 
L 593.42461 501.413044 
z
" clip-path="url(#p9aa7f524f7)" style="fill: #ff6600"/>
   </g>
   <g id="patch_87">
    <path d="M 431.993988 559.057764 
L 445.36731 562.41251 
L 441.784103 544.812941 
z
" clip-path="url(#p9aa7f524f7)" style="fill: #ff6600"/>
   </g>
   <g id="patch_88">
    <path d="M 351.714802 596.801671 
L 365.088261 600.155157 
L 361.504336 582.555925 
z
" clip-path="url(#p9aa7f524f7)" style="fill: #ff6600"/>
   </g>
   <g id="patch_89">
    <path d="M 559.475246 210.127338 
L 546.278523 205.42738 
L 549.082897 223.350345 
z
" clip-path="url(#p9aa7f524f7)" style="fill: #ff6600"/>
   </g>
   <g id="patch_90">
    <path d="M 108.657955 484.709621 
L 116.892431 488.331624 
L 114.508905 500.844726 
L 106.274429 497.222723 
z
" clip-path="url(#p9aa7f524f7)" style="fill: #ff6600"/>
   </g>
   <g id="patch_91">
    <path d="M 165.050881 103.612426 
L 165.408784 124.20237 
L 176.105294 115.531297 
z
" clip-path="url(#p9aa7f524f7)" style="fill: #ff6600"/>
   </g>
   <g id="patch_92">
    <path d="M 279.281657 413.499598 
L 280.147223 434.054684 
L 290.622317 424.780399 
z
" clip-path="url(#p9aa7f524f7)" style="fill: #ff6600"/>
   </g>
   <g id="patch_93">
    <path d="M 602.247407 323.664942 
L 589.049525 318.972512 
L 591.858326 336.893876 
z
" clip-path="url(#p9aa7f524f7)" style="fill: #ff6600"/>
   </g>
   <g id="patch_94">
    <path d="M 511.120881 366.047029 
L 522.909875 361.750245 
L 520.082298 343.8357 
L 508.293304 348.132484 
z
" clip-path="url(#p9aa7f524f7)" style="fill: #ff6600"/>
   </g>
   <g id="patch_95">
    <path d="M 470.669395 251.79907 
L 482.460308 247.51446 
L 479.640742 229.596999 
L 467.849829 233.881609 
z
" clip-path="url(#p9aa7f524f7)" style="fill: #ff6600"/>
   </g>
   <g id="patch_96">
    <path d="M 411.918403 186.062729 
L 417.803596 202.169051 
L 428.402656 193.225918 
L 422.517464 177.119595 
z
" clip-path="url(#p9aa7f524f7)" style="fill: #ff6600"/>
   </g>
   <g id="patch_97">
    <path d="M 453.35711 184.643426 
L 447.753828 168.306584 
L 437.00307 176.821327 
L 442.606352 193.158169 
z
" clip-path="url(#p9aa7f524f7)" style="fill: #ff6600"/>
   </g>
   <g id="patch_98">
    <path d="M 414.032839 154.062176 
L 408.095532 138.000082 
L 397.525577 147.022409 
L 403.462884 163.084504 
z
" clip-path="url(#p9aa7f524f7)" style="fill: #ff6600"/>
   </g>
   <g id="patch_99">
    <path d="M 426.843645 152.089802 
L 438.742598 148.561678 
L 436.420851 130.480041 
L 424.521899 134.008165 
z
" clip-path="url(#p9aa7f524f7)" style="fill: #ff6600"/>
   </g>
   <g id="patch_100">
    <path d="M 212.988782 258.902562 
L 219.08766 274.824253 
L 229.56522 265.556403 
L 223.466342 249.634712 
z
" clip-path="url(#p9aa7f524f7)" style="fill: #ff6600"/>
   </g>
   <g id="patch_101">
    <path d="M 202.694018 240.186294 
L 190.904645 244.480678 
L 193.730643 262.395798 
L 205.520016 258.101415 
z
" clip-path="url(#p9aa7f524f7)" style="fill: #ff6600"/>
   </g>
   <g id="patch_102">
    <path d="M 226.755927 250.356023 
L 238.54363 246.051065 
L 235.710674 228.138483 
L 223.922971 232.44344 
z
" clip-path="url(#p9aa7f524f7)" style="fill: #ff6600"/>
   </g>
   <g id="patch_103">
    <path d="M 217.799347 234.522209 
L 211.939229 218.394788 
L 201.326285 227.299816 
L 207.186402 243.427238 
z
" clip-path="url(#p9aa7f524f7)" style="fill: #ff6600"/>
   </g>
   <g id="patch_104">
    <path d="M 387.505312 172.727926 
L 375.719486 177.044733 
L 378.56024 194.954464 
L 390.346066 190.637657 
z
" clip-path="url(#p9aa7f524f7)" style="fill: #ff6600"/>
   </g>
   <g id="patch_105">
    <path d="M 471.407067 368.604233 
L 461.596741 379.427906 
L 468.719458 394.335668 
L 478.529783 383.511994 
z
" clip-path="url(#p9aa7f524f7)" style="fill: #ff6600"/>
   </g>
   <g id="patch_106">
    <path d="M 352.097034 585.522132 
L 345.797977 569.781442 
L 335.439529 579.353483 
L 341.738585 595.094172 
z
" clip-path="url(#p9aa7f524f7)" style="fill: #ff6600"/>
   </g>
   <g id="patch_107">
    <path d="M 513.305078 470.180287 
L 518.151031 487.06715 
L 529.26374 479.703244 
L 524.417787 462.816381 
z
" clip-path="url(#p9aa7f524f7)" style="fill: #ff6600"/>
   </g>
   <g id="patch_108">
    <path d="M 521.35263 477.844913 
L 511.920164 466.271575 
L 504.304117 480.60514 
L 513.736582 492.178479 
z
" clip-path="url(#p9aa7f524f7)" style="fill: #ff6600"/>
   </g>
   <g id="patch_109">
    <path d="M 533.908869 462.484137 
L 544.197981 452.740942 
L 537.786293 437.105616 
L 527.497181 446.848812 
z
" clip-path="url(#p9aa7f524f7)" style="fill: #ff6600"/>
   </g>
   <g id="patch_110">
    <path d="M 566.970282 556.062891 
L 575.485976 542.950367 
L 566.85704 530.009927 
L 558.341346 543.12245 
z
" clip-path="url(#p9aa7f524f7)" style="fill: #ff6600"/>
   </g>
   <g id="patch_111">
    <path d="M 611.308489 465.299335 
L 600.666258 474.123286 
L 606.47302 490.295211 
L 617.115251 481.47126 
z
" clip-path="url(#p9aa7f524f7)" style="fill: #ff6600"/>
   </g>
   <g id="patch_112">
    <path d="M 607.684491 467.791294 
L 600.593714 452.848414 
L 590.760278 463.623552 
L 597.851055 478.566432 
z
" clip-path="url(#p9aa7f524f7)" style="fill: #ff6600"/>
   </g>
   <g id="patch_113">
    <path d="M 602.296111 523.254089 
L 594.917923 508.636058 
L 585.29826 519.847946 
L 592.676449 534.465977 
z
" clip-path="url(#p9aa7f524f7)" style="fill: #ff6600"/>
   </g>
   <g id="patch_114">
    <path d="M 281.226208 405.505791 
L 275.267618 389.461905 
L 264.709646 398.516573 
L 270.668236 414.560459 
z
" clip-path="url(#p9aa7f524f7)" style="fill: #ff6600"/>
   </g>
   <g id="patch_115">
    <path d="M 393.806854 191.689433 
L 398.956924 208.367153 
L 409.932003 200.54111 
L 404.781932 183.863391 
z
" clip-path="url(#p9aa7f524f7)" style="fill: #ff6600"/>
   </g>
   <g id="patch_116">
    <path d="M 392.94214 146.118135 
L 381.212479 150.774814 
L 384.276892 168.599196 
L 396.006553 163.942517 
z
" clip-path="url(#p9aa7f524f7)" style="fill: #ff6600"/>
   </g>
   <g id="patch_117">
    <path d="M 514.451162 510.652675 
L 502.86815 516.091352 
L 506.44717 533.692888 
L 518.030183 528.254211 
z
" clip-path="url(#p9aa7f524f7)" style="fill: #ff6600"/>
   </g>
   <g id="patch_118">
    <path d="M 369.117691 578.973727 
L 357.536962 584.423623 
L 361.123366 602.021688 
L 372.704095 596.571792 
z
" clip-path="url(#p9aa7f524f7)" style="fill: #ff6600"/>
   </g>
   <g id="patch_119">
    <path d="M 464.592601 562.978905 
L 476.71595 562.978905 
L 476.71595 544.556276 
L 464.592601 544.556276 
z
" clip-path="url(#p9aa7f524f7)" style="fill: #ff6600"/>
   </g>
   <g id="patch_120">
    <path d="M 516.874541 407.399801 
L 528.997889 407.399801 
L 528.997889 388.977172 
L 516.874541 388.977172 
z
" clip-path="url(#p9aa7f524f7)" style="fill: #ff6600"/>
   </g>
   <g id="patch_121">
    <path d="M 374.546432 573.410719 
L 386.66978 573.410719 
L 386.66978 554.98809 
L 374.546432 554.98809 
z
" clip-path="url(#p9aa7f524f7)" style="fill: #ff6600"/>
   </g>
   <g id="patch_122">
    <path d="M 477.049342 442.794278 
L 489.17269 442.794278 
L 489.17269 424.371648 
L 477.049342 424.371648 
z
" clip-path="url(#p9aa7f524f7)" style="fill: #ff6600"/>
   </g>
   <g id="patch_123">
    <path d="M 516.131204 364.220895 
L 517.899553 363.576378 
L 515.071975 345.661833 
L 513.303626 346.306351 
z
" clip-path="url(#p9aa7f524f7)" style="stroke: #000000; stroke-linejoin: miter"/>
   </g>
   <g id="patch_124">
    <path d="M 475.680533 249.978111 
L 477.44917 249.335419 
L 474.629604 231.417959 
L 472.860967 232.06065 
z
" clip-path="url(#p9aa7f524f7)" style="stroke: #000000; stroke-linejoin: miter"/>
   </g>
   <g id="patch_125">
    <path d="M 414.41961 192.907916 
L 415.302389 195.323864 
L 425.90145 186.380731 
L 425.018671 183.964782 
z
" clip-path="url(#p9aa7f524f7)" style="stroke: #000000; stroke-linejoin: miter"/>
   </g>
   <g id="patch_126">
    <path d="M 450.975715 177.700268 
L 450.135223 175.249742 
L 439.384465 183.764485 
L 440.224957 186.215011 
z
" clip-path="url(#p9aa7f524f7)" style="stroke: #000000; stroke-linejoin: miter"/>
   </g>
   <g id="patch_127">
    <path d="M 411.509484 147.235786 
L 410.618887 144.826472 
L 400.048932 153.848799 
L 400.939528 156.258113 
z
" clip-path="url(#p9aa7f524f7)" style="stroke: #000000; stroke-linejoin: miter"/>
   </g>
   <g id="patch_128">
    <path d="M 431.9007 150.590349 
L 433.685543 150.061131 
L 431.363796 131.979494 
L 429.578953 132.508712 
z
" clip-path="url(#p9aa7f524f7)" style="stroke: #000000; stroke-linejoin: miter"/>
   </g>
   <g id="patch_129">
    <path d="M 215.580805 265.669281 
L 216.495637 268.057534 
L 226.973197 258.789684 
L 226.058365 256.401431 
z
" clip-path="url(#p9aa7f524f7)" style="stroke: #000000; stroke-linejoin: miter"/>
   </g>
   <g id="patch_130">
    <path d="M 197.683535 242.011407 
L 195.915129 242.655565 
L 198.741127 260.570685 
L 200.509533 259.926528 
z
" clip-path="url(#p9aa7f524f7)" style="stroke: #000000; stroke-linejoin: miter"/>
   </g>
   <g id="patch_131">
    <path d="M 231.765701 248.526416 
L 233.533856 247.880672 
L 230.7009 229.96809 
L 228.932745 230.613833 
z
" clip-path="url(#p9aa7f524f7)" style="stroke: #000000; stroke-linejoin: miter"/>
   </g>
   <g id="patch_132">
    <path d="M 215.308797 227.668055 
L 214.429779 225.248942 
L 203.816834 234.153971 
L 204.695852 236.573084 
z
" clip-path="url(#p9aa7f524f7)" style="stroke: #000000; stroke-linejoin: miter"/>
   </g>
   <g id="patch_133">
    <path d="M 382.496336 174.562569 
L 380.728462 175.21009 
L 383.569216 193.119821 
L 385.33709 192.4723 
z
" clip-path="url(#p9aa7f524f7)" style="stroke: #000000; stroke-linejoin: miter"/>
   </g>
   <g id="patch_134">
    <path d="M 467.237678 373.204294 
L 465.76613 374.827845 
L 472.888846 389.735607 
L 474.360395 388.112056 
z
" clip-path="url(#p9aa7f524f7)" style="stroke: #000000; stroke-linejoin: miter"/>
   </g>
   <g id="patch_135">
    <path d="M 349.419935 578.832339 
L 348.475076 576.471235 
L 338.116628 586.043276 
L 339.061486 588.404379 
z
" clip-path="url(#p9aa7f524f7)" style="stroke: #000000; stroke-linejoin: miter"/>
   </g>
   <g id="patch_136">
    <path d="M 515.364608 477.357204 
L 516.091501 479.890233 
L 527.20421 472.526327 
L 526.477317 469.993298 
z
" clip-path="url(#p9aa7f524f7)" style="stroke: #000000; stroke-linejoin: miter"/>
   </g>
   <g id="patch_137">
    <path d="M 517.343832 472.926244 
L 515.928962 471.190244 
L 508.312915 485.523809 
L 509.727785 487.25981 
z
" clip-path="url(#p9aa7f524f7)" style="stroke: #000000; stroke-linejoin: miter"/>
   </g>
   <g id="patch_138">
    <path d="M 538.281742 458.343279 
L 539.825109 456.8818 
L 533.41342 441.246474 
L 531.870054 442.707953 
z
" clip-path="url(#p9aa7f524f7)" style="stroke: #000000; stroke-linejoin: miter"/>
   </g>
   <g id="patch_139">
    <path d="M 570.589452 550.490068 
L 571.866806 548.52319 
L 563.23787 535.582749 
L 561.960516 537.549628 
z
" clip-path="url(#p9aa7f524f7)" style="stroke: #000000; stroke-linejoin: miter"/>
   </g>
   <g id="patch_140">
    <path d="M 606.785541 469.049514 
L 605.189206 470.373107 
L 610.995969 486.545032 
L 612.592303 485.221439 
z
" clip-path="url(#p9aa7f524f7)" style="stroke: #000000; stroke-linejoin: miter"/>
   </g>
   <g id="patch_141">
    <path d="M 604.67091 461.44057 
L 603.607294 459.199138 
L 593.773858 469.974276 
L 594.837475 472.215708 
z
" clip-path="url(#p9aa7f524f7)" style="stroke: #000000; stroke-linejoin: miter"/>
   </g>
   <g id="patch_142">
    <path d="M 599.160382 517.041426 
L 598.053653 514.848721 
L 588.43399 526.060609 
L 589.540719 528.253314 
z
" clip-path="url(#p9aa7f524f7)" style="stroke: #000000; stroke-linejoin: miter"/>
   </g>
   <g id="patch_143">
    <path d="M 278.693808 398.687139 
L 277.800019 396.280557 
L 267.242047 405.335225 
L 268.135835 407.741807 
z
" clip-path="url(#p9aa7f524f7)" style="stroke: #000000; stroke-linejoin: miter"/>
   </g>
   <g id="patch_144">
    <path d="M 395.995634 198.777464 
L 396.768144 201.279122 
L 407.743223 193.45308 
L 406.970712 190.951422 
z
" clip-path="url(#p9aa7f524f7)" style="stroke: #000000; stroke-linejoin: miter"/>
   </g>
   <g id="patch_145">
    <path d="M 387.957034 148.097223 
L 386.197585 148.795725 
L 389.261998 166.620108 
L 391.021447 165.921606 
z
" clip-path="url(#p9aa7f524f7)" style="stroke: #000000; stroke-linejoin: miter"/>
   </g>
   <g id="patch_146">
    <path d="M 509.528382 512.964113 
L 507.79093 513.779914 
L 511.369951 531.38145 
L 513.107403 530.565648 
z
" clip-path="url(#p9aa7f524f7)" style="stroke: #000000; stroke-linejoin: miter"/>
   </g>
   <g id="patch_147">
    <path d="M 364.195881 581.289933 
L 362.458772 582.107417 
L 366.045176 599.705482 
L 367.782285 598.887998 
z
" clip-path="url(#p9aa7f524f7)" style="stroke: #000000; stroke-linejoin: miter"/>
   </g>
  </g>
 </g>
 <defs>
  <clipPath id="p9aa7f524f7">
   <rect x="91.799058" y="86.4" width="554.401884" height="554.4"/>
  </clipPath>
 </defs>
</svg>
