<?xml version="1.0" encoding="utf-8" standalone="no"?>
<!DOCTYPE svg PUBLIC "-//W3C//DTD SVG 1.1//EN"
  "http://www.w3.org/Graphics/SVG/1.1/DTD/svg11.dtd">
<svg xmlns:xlink="http://www.w3.org/1999/xlink" width="720pt" height="720pt" viewBox="0 0 720 720" xmlns="http://www.w3.org/2000/svg" version="1.1">
 <metadata>
  <rdf:RDF xmlns:dc="http://purl.org/dc/elements/1.1/" xmlns:cc="http://creativecommons.org/ns#" xmlns:rdf="http://www.w3.org/1999/02/22-rdf-syntax-ns#">
   <cc:Work>
    <dc:type rdf:resource="http://purl.org/dc/dcmitype/StillImage"/>
    <dc:date>2025-04-28T09:49:09.104743</dc:date>
    <dc:format>image/svg+xml</dc:format>
    <dc:creator>
     <cc:Agent>
      <dc:title>Matplotlib v3.8.3, https://matplotlib.org/</dc:title>
     </cc:Agent>
    </dc:creator>
   </cc:Work>
  </rdf:RDF>
 </metadata>
 <defs>
  <style type="text/css">*{stroke-linejoin: round; stroke-linecap: butt}</style>
 </defs>
 <g id="figure_1">
  <g id="patch_1">
   <path d="M 0 720 
L 720 720 
L 720 0 
L 0 0 
z
" style="fill: #ffffff"/>
  </g>
  <g id="axes_1">
   <g id="PatchCollection_1">
    <path d="M 293.823875 328.761426 
L 264.551933 348.171048 
L 279.137747 379.584394 
L 251.992485 473.515854 
L 20.645835 407.449082 
L -4.894386 361.007936 
L 59.307269 194.838123 
L 83.744024 181.846945 
L 332.525435 246.309107 
L 317.056849 300.187007 
L 303.0328 296.946927 
L 293.823875 328.761426 
" clip-path="url(#p78743e7e7f)" style="fill: #6cb257; fill-opacity: 0.5"/>
   </g>
   <g id="PatchCollection_2">
    <path d="M 620.088658 424.081492 
L 625.947059 402.450101 
L 647.936126 408.436535 
L 642.057662 430.037067 
L 620.088658 424.081492 
" clip-path="url(#p78743e7e7f)" style="fill: #6bb05b; fill-opacity: 0.5"/>
    <path d="M 645.709131 247.358276 
L 649.480978 237.452888 
L 666.032967 245.259938 
L 663.866161 252.789267 
L 645.709131 247.358276 
" clip-path="url(#p78743e7e7f)" style="fill: #6bb05b; fill-opacity: 0.5"/>
    <path d="M 621.89433 240.291816 
L 630.240545 232.484766 
L 642.880246 239.088357 
L 640.873944 245.661091 
L 621.89433 240.291816 
" clip-path="url(#p78743e7e7f)" style="fill: #6bb05b; fill-opacity: 0.5"/>
    <path d="M 643.401884 254.177872 
L 662.220994 259.732295 
L 658.248517 273.217199 
L 639.409344 267.631919 
L 643.401884 254.177872 
" clip-path="url(#p78743e7e7f)" style="fill: #6bb05b; fill-opacity: 0.5"/>
    <path d="M 619.326264 247.666855 
L 638.145374 253.221277 
L 634.152833 266.675324 
L 615.333723 261.120901 
L 619.326264 247.666855 
" clip-path="url(#p78743e7e7f)" style="fill: #6bb05b; fill-opacity: 0.5"/>
    <path d="M 414.723616 236.650583 
L 427.764577 206.378979 
L 508.217275 250.38235 
L 505.78965 261.954064 
L 414.723616 236.650583 
" clip-path="url(#p78743e7e7f)" style="fill: #6bb05b; fill-opacity: 0.5"/>
   </g>
   <g id="PatchCollection_3">
    <path d="M 527.39752 528.04177 
L 618.10242 530.479545 
L 627.311344 523.289653 
L 603.817551 572.137715 
L 530.687854 551.339488 
L 527.39752 528.04177 
" clip-path="url(#p78743e7e7f)" style="fill: #6bb05b; fill-opacity: 0.5"/>
    <path d="M 115.764599 54.156939 
L 140.482236 55.854123 
L 163.71521 96.061972 
L 205.867608 135.189795 
L 225.067916 129.110788 
L 251.551098 85.076558 
L 147.464166 31.445521 
L 133.018794 10.12271 
L 115.764599 54.156939 
" clip-path="url(#p78743e7e7f)" style="fill: #6bb05b; fill-opacity: 0.5"/>
   </g>
   <g id="PatchCollection_4">
    <path d="M 99.533618 339.962846 
L 143.83276 373.073377 
L 186.687364 355.083218 
L 136.569948 340.302282 
L 123.408608 294.756016 
L 101.058407 301.544755 
L 99.533618 339.962846 
" clip-path="url(#p78743e7e7f)" style="fill: #1375be; fill-opacity: 0.7"/>
   </g>
   <g id="PatchCollection_5">
    <path d="M 78.487513 632.742639 
L 70.983945 641.629715 
L 95.440763 639.34623 
L 78.487513 632.742639 
" clip-path="url(#p78743e7e7f)"/>
    <path d="M 350.782781 569.175356 
L 297.435218 548.130266 
L 287.082701 574.081763 
L 340.109255 595.713154 
L 350.782781 569.175356 
" clip-path="url(#p78743e7e7f)"/>
    <path d="M 468.291871 609.846074 
L 490.963081 621.510362 
L 496.059087 608.642616 
L 510.303829 612.901006 
L 504.465491 628.515106 
L 513.935235 632.125481 
L 518.208658 619.47374 
L 531.129241 623.114973 
L 538.331864 601.761303 
L 480.65069 585.375756 
L 468.291871 609.846074 
" clip-path="url(#p78743e7e7f)"/>
    <path d="M 175.913524 498.202177 
L 135.486545 486.877326 
L 120.419219 515.266598 
L 167.466994 528.473781 
L 175.913524 498.202177 
" clip-path="url(#p78743e7e7f)"/>
    <path d="M 130.651358 594.694843 
L 127.982976 593.429669 
L 114.340125 612.808433 
L 127.240645 622.034946 
L 139.499148 599.292671 
L 130.651358 594.694843 
" clip-path="url(#p78743e7e7f)"/>
    <path d="M 587.285625 637.803335 
L 626.528887 660.946763 
L 640.894007 630.829449 
L 597.477638 618.702292 
L 587.285625 637.803335 
" clip-path="url(#p78743e7e7f)"/>
    <path d="M 507.294376 629.903712 
L 499.128729 652.121402 
L 516.081978 659.126147 
L 508.939544 675.141399 
L 533.356236 685.046786 
L 560.541624 654.127166 
L 507.294376 629.903712 
" clip-path="url(#p78743e7e7f)"/>
    <path d="M 178.521716 575.038358 
L 197.421078 541.711822 
L 187.309318 539.058042 
L 184.239676 560.28828 
L 171.981173 557.0482 
L 176.294721 532.76303 
L 167.025607 530.201824 
L 157.515737 563.960371 
L 178.521716 575.038358 
" clip-path="url(#p78743e7e7f)"/>
    <path d="M 140.602614 688.040003 
L 166.363528 698.500832 
L 187.550074 645.024084 
L 161.448089 634.686687 
L 140.602614 688.040003 
" clip-path="url(#p78743e7e7f)"/>
    <path d="M 187.550074 645.024084 
L 209.639456 589.202136 
L 183.858479 577.506991 
L 161.448089 634.686687 
L 187.550074 645.024084 
" clip-path="url(#p78743e7e7f)"/>
    <path d="M 52.606221 462.715588 
L 42.775343 496.504993 
L 81.236147 514.64944 
L 101.178786 476.755934 
L 52.606221 462.715588 
" clip-path="url(#p78743e7e7f)"/>
    <path d="M 209.639456 589.202136 
L 228.197746 542.853564 
L 235.560874 515.019735 
L 206.730318 506.780675 
L 191.221606 556.554474 
L 198.7653 568.897635 
L 178.521716 575.038358 
L 209.639456 589.202136 
" clip-path="url(#p78743e7e7f)"/>
    <path d="M 313.024182 585.005461 
L 287.082701 574.081763 
L 266.337542 625.79961 
L 292.921039 635.550708 
L 313.024182 585.005461 
" clip-path="url(#p78743e7e7f)"/>
    <path d="M 490.963081 621.510362 
L 477.781678 614.721623 
L 474.330839 621.448646 
L 487.672746 641.321136 
L 490.963081 621.510362 
" clip-path="url(#p78743e7e7f)"/>
    <path d="M 560.040048 653.849445 
L 579.581427 613.549022 
L 557.873242 607.346584 
L 545.273668 648.634459 
L 560.040048 653.849445 
" clip-path="url(#p78743e7e7f)"/>
    <path d="M 468.291871 609.846074 
L 456.374439 632.835212 
L 499.128729 652.121402 
L 507.294376 629.903712 
L 480.670753 637.926767 
L 485.847011 627.651085 
L 468.291871 609.846074 
" clip-path="url(#p78743e7e7f)"/>
    <path d="M 98.430152 556.30761 
L 86.171649 579.512754 
L 124.81302 598.027497 
L 137.091586 582.66026 
L 98.430152 556.30761 
" clip-path="url(#p78743e7e7f)"/>
    <path d="M 206.730318 506.780675 
L 175.913524 498.202177 
L 167.025607 530.201824 
L 197.421078 541.711822 
L 206.730318 506.780675 
" clip-path="url(#p78743e7e7f)"/>
    <path d="M 157.515737 563.960371 
L 149.330026 559.269969 
L 130.651358 594.694843 
L 139.499148 599.292671 
L 118.593484 637.895909 
L 133.420054 645.548669 
L 154.325718 606.66771 
L 145.317423 602.162456 
L 163.695147 567.478172 
L 157.515737 563.960371 
" clip-path="url(#p78743e7e7f)"/>
    <path d="M 640.894007 630.829449 
L 633.871951 658.910141 
L 653.854716 668.537807 
L 669.222987 638.790788 
L 640.894007 630.829449 
" clip-path="url(#p78743e7e7f)"/>
    <path d="M 86.171649 579.512754 
L 80.99539 589.387284 
L 97.667758 597.780633 
L 78.487513 632.742639 
L 111.089916 653.63344 
L 127.240645 622.034946 
L 114.340125 612.808433 
L 124.81302 598.027497 
L 86.171649 579.512754 
" clip-path="url(#p78743e7e7f)"/>
    <path d="M 161.287585 550.444609 
L 126.257557 531.652145 
L 133.339802 518.722683 
L 120.419219 515.266598 
L 98.430152 556.30761 
L 137.091586 582.66026 
L 161.287585 550.444609 
" clip-path="url(#p78743e7e7f)"/>
    <path d="M 245.472004 678.227189 
L 271.71443 688.564587 
L 292.921039 635.550708 
L 266.337542 625.79961 
L 245.472004 678.227189 
" clip-path="url(#p78743e7e7f)"/>
    <path d="M 504.465491 628.515106 
L 510.303829 612.901006 
L 496.059087 608.642616 
L 490.963081 621.510362 
L 504.465491 628.515106 
" clip-path="url(#p78743e7e7f)"/>
    <path d="M 587.285625 637.803335 
L 580.885523 645.579527 
L 606.526059 657.583251 
L 595.551588 678.628342 
L 622.596535 693.872147 
L 614.691707 681.035258 
L 635.717749 666.408612 
L 587.285625 637.803335 
" clip-path="url(#p78743e7e7f)"/>
    <path d="M 350.782781 569.175356 
L 340.109255 595.713154 
L 401.762907 620.522909 
L 412.75744 593.676532 
L 350.782781 569.175356 
" clip-path="url(#p78743e7e7f)"/>
    <path d="M 509.84238 231.589887 
L 523.705924 240.384389 
L 533.155605 223.535974 
L 519.452565 215.20434 
L 509.84238 231.589887 
" clip-path="url(#p78743e7e7f)"/>
    <path d="M 474.310776 199.250803 
L 461.911832 190.888311 
L 455.792612 202.151446 
L 467.669918 209.773349 
L 474.310776 199.250803 
" clip-path="url(#p78743e7e7f)"/>
    <path d="M 603.636984 161.573303 
L 591.518922 157.129764 
L 587.927642 164.473945 
L 598.922175 170.275231 
L 603.636984 161.573303 
" clip-path="url(#p78743e7e7f)"/>
    <path d="M 512.16969 135.899526 
L 514.617378 137.133843 
L 519.492691 129.265077 
L 517.085129 128.030761 
L 512.16969 135.899526 
" clip-path="url(#p78743e7e7f)"/>
    <path d="M 131.473941 109.608592 
L 123.167852 106.522802 
L 120.55966 113.249825 
L 130.250097 113.188109 
L 131.473941 109.608592 
" clip-path="url(#p78743e7e7f)"/>
    <path d="M 347.512509 78.28782 
L 335.896022 100.227789 
L 344.904317 105.195912 
L 357.544017 84.212537 
L 347.512509 78.28782 
" clip-path="url(#p78743e7e7f)"/>
    <path d="M 555.987319 183.173835 
L 548.263057 196.689597 
L 561.324081 205.144663 
L 569.710422 192.276917 
L 555.987319 183.173835 
" clip-path="url(#p78743e7e7f)"/>
    <path d="M 555.947193 136.115532 
L 558.25444 143.120276 
L 562.64824 134.788642 
L 557.813053 132.32001 
L 555.947193 136.115532 
" clip-path="url(#p78743e7e7f)"/>
    <path d="M 106.054099 79.707283 
L 94.919124 108.219986 
L 108.943173 122.538054 
L 135.326041 98.962615 
L 151.035383 102.140979 
L 147.263536 76.837498 
L 129.46764 88.872081 
L 106.054099 79.707283 
" clip-path="url(#p78743e7e7f)"/>
    <path d="M 534.921151 137.133843 
L 528.019473 150.557031 
L 544.190265 159.228102 
L 552.957803 142.009391 
L 541.983333 123.741512 
L 534.921151 137.133843 
" clip-path="url(#p78743e7e7f)"/>
    <path d="M 496.620851 132.412583 
L 506.65236 112.663525 
L 490.401316 101.369532 
L 480.369808 120.871727 
L 496.620851 132.412583 
" clip-path="url(#p78743e7e7f)"/>
    <path d="M 472.043656 71.437365 
L 453.043978 61.963988 
L 445.460158 87.082322 
L 460.547547 91.433287 
L 472.043656 71.437365 
" clip-path="url(#p78743e7e7f)"/>
    <path d="M 461.189563 149.075851 
L 451.679693 163.424777 
L 477.039347 177.06397 
L 485.9072 163.51735 
L 461.189563 149.075851 
" clip-path="url(#p78743e7e7f)"/>
    <path d="M 502.479252 135.930384 
L 534.921151 137.133843 
L 541.983333 123.741512 
L 516.122104 110.102319 
L 502.479252 135.930384 
" clip-path="url(#p78743e7e7f)"/>
    <path d="M 554.482593 130.468535 
L 552.596669 134.264057 
L 555.947193 136.115532 
L 557.813053 132.32001 
L 554.482593 130.468535 
" clip-path="url(#p78743e7e7f)"/>
    <path d="M 393.757763 130.622825 
L 428.38653 140.065343 
L 447.747342 112.231514 
L 417.81332 92.914466 
L 393.757763 130.622825 
" clip-path="url(#p78743e7e7f)"/>
    <path d="M 500.452888 82.083342 
L 490.401316 101.369532 
L 507.976519 113.404114 
L 515.941537 90.013823 
L 500.452888 82.083342 
" clip-path="url(#p78743e7e7f)"/>
    <path d="M 520.656346 184.747588 
L 514.015487 195.455281 
L 526.394369 203.632626 
L 534.600143 189.684853 
L 520.656346 184.747588 
" clip-path="url(#p78743e7e7f)"/>
    <path d="M 533.737433 246.71026 
L 563.831958 265.657013 
L 584.05548 251.801814 
L 547.059276 226.776054 
L 533.737433 246.71026 
" clip-path="url(#p78743e7e7f)"/>
    <path d="M 106.054099 79.707283 
L 129.46764 88.872081 
L 140.923622 79.985004 
L 114.44044 53.724928 
L 106.054099 79.707283 
" clip-path="url(#p78743e7e7f)"/>
    <path d="M 619.065444 134.418347 
L 646.63203 156.882901 
L 662.9232 125.09926 
L 629.27752 115.039583 
L 619.065444 134.418347 
" clip-path="url(#p78743e7e7f)"/>
    <path d="M 640.894007 520.605016 
L 689.286004 547.790829 
L 702.447343 515.667751 
L 654.316165 492.246602 
L 640.894007 520.605016 
" clip-path="url(#p78743e7e7f)"/>
    <path d="M 634.79485 533.411046 
L 658.609651 544.797612 
L 663.244208 533.19504 
L 640.894007 520.605016 
L 634.79485 533.411046 
" clip-path="url(#p78743e7e7f)"/>
    <path d="M 485.9072 163.51735 
L 477.039347 177.06397 
L 451.679693 163.424777 
L 441.668248 177.094828 
L 478.423695 192.955791 
L 493.932407 168.608905 
L 485.9072 163.51735 
" clip-path="url(#p78743e7e7f)"/>
    <path d="M 285.256967 159.351533 
L 214.895966 129.388509 
L 209.278321 141.021938 
L 219.189452 149.477004 
L 212.267711 181.507508 
L 247.117171 192.708928 
L 267.039747 194.035818 
L 285.256967 159.351533 
" clip-path="url(#p78743e7e7f)"/>
    <path d="M 601.991817 213.29115 
L 587.907579 222.332515 
L 572.840253 244.365059 
L 588.308839 244.735354 
L 592.04056 229.368118 
L 605.40253 250.474924 
L 620.710612 224.399995 
L 601.991817 213.29115 
" clip-path="url(#p78743e7e7f)"/>
    <path d="M 305.701181 116.057894 
L 323.236258 87.11318 
L 312.54267 81.003315 
L 303.092989 97.57401 
L 285.056337 87.11318 
L 294.345514 70.449912 
L 281.826191 63.26002 
L 265.434706 91.772724 
L 305.701181 116.057894 
" clip-path="url(#p78743e7e7f)"/>
    <path d="M 562.64824 134.788642 
L 560.140363 139.602475 
L 569.830801 138.584164 
L 562.64824 134.788642 
" clip-path="url(#p78743e7e7f)"/>
    <path d="M 518.629981 162.961908 
L 511.969059 179.470887 
L 520.656346 184.747588 
L 529.825145 170.120942 
L 518.629981 162.961908 
" clip-path="url(#p78743e7e7f)"/>
    <path d="M 152.319416 88.378354 
L 143.672256 129.851377 
L 112.414075 123.03178 
L 99.453366 157.068049 
L 134.704087 165.430541 
L 141.485387 141.021938 
L 184.86163 118.958537 
L 152.319416 88.378354 
" clip-path="url(#p78743e7e7f)"/>
    <path d="M 542.424719 174.132469 
L 532.934912 188.573969 
L 547.641104 197.954771 
L 555.987319 183.173835 
L 542.424719 174.132469 
" clip-path="url(#p78743e7e7f)"/>
    <path d="M 631.364074 165.214535 
L 640.05136 169.904937 
L 642.398733 165.492256 
L 633.550943 160.709281 
L 631.364074 165.214535 
" clip-path="url(#p78743e7e7f)"/>
    <path d="M 445.460158 87.082322 
L 453.104167 70.943638 
L 438.999866 65.605221 
L 435.087578 80.478731 
L 445.460158 87.082322 
" clip-path="url(#p78743e7e7f)"/>
    <path d="M 382.642852 204.681794 
L 353.732044 193.079222 
L 345.104947 216.747235 
L 369.621954 222.887958 
L 382.642852 204.681794 
" clip-path="url(#p78743e7e7f)"/>
    <path d="M 455.792612 202.151446 
L 461.911832 190.888311 
L 441.668248 177.094828 
L 434.224868 188.388821 
L 455.792612 202.151446 
" clip-path="url(#p78743e7e7f)"/>
    <path d="M 319.404222 130.777114 
L 310.917566 146.236924 
L 335.61514 160.400702 
L 343.780788 145.12604 
L 319.404222 130.777114 
" clip-path="url(#p78743e7e7f)"/>
    <path d="M 630.902624 101.647253 
L 648.377512 109.608592 
L 667.397252 74.46144 
L 647.534866 69.369885 
L 630.902624 101.647253 
" clip-path="url(#p78743e7e7f)"/>
    <path d="M 496.620851 132.412583 
L 502.479252 135.930384 
L 516.122104 110.102319 
L 506.65236 112.663525 
L 496.620851 132.412583 
" clip-path="url(#p78743e7e7f)"/>
    <path d="M 604.459568 83.502805 
L 598.119655 80.077578 
L 592.762829 89.581812 
L 599.423751 92.698461 
L 604.459568 83.502805 
" clip-path="url(#p78743e7e7f)"/>
    <path d="M 674.359119 361.254799 
L 695.826548 293.36741 
L 569.650233 293.614274 
L 578.277331 367.457238 
L 674.359119 361.254799 
" clip-path="url(#p78743e7e7f)"/>
    <path d="M 547.641104 197.954771 
L 537.870414 215.111766 
L 549.747721 222.548521 
L 561.324081 205.144663 
L 547.641104 197.954771 
" clip-path="url(#p78743e7e7f)"/>
    <path d="M 305.701181 116.057894 
L 290.673981 107.078244 
L 280.82304 127.59875 
L 296.492256 135.714379 
L 305.701181 116.057894 
" clip-path="url(#p78743e7e7f)"/>
    <path d="M 631.043066 187.771663 
L 623.599686 202.490883 
L 646.471526 215.327771 
L 654.41648 200.423404 
L 631.043066 187.771663 
" clip-path="url(#p78743e7e7f)"/>
    <path d="M 629.056827 106.152507 
L 645.709131 114.514999 
L 648.377512 109.608592 
L 630.902624 101.647253 
L 629.056827 106.152507 
" clip-path="url(#p78743e7e7f)"/>
    <path d="M 289.53039 172.404427 
L 279.880078 200.454262 
L 291.295935 203.262331 
L 299.963158 175.212496 
L 289.53039 172.404427 
" clip-path="url(#p78743e7e7f)"/>
    <path d="M 549.928288 113.280683 
L 552.295724 108.868002 
L 539.274826 107.849692 
L 549.928288 113.280683 
" clip-path="url(#p78743e7e7f)"/>
    <path d="M 699.69871 601.205861 
L 708.34587 572.415436 
L 671.349667 553.653831 
L 645.508501 586.085488 
L 699.69871 601.205861 
" clip-path="url(#p78743e7e7f)"/>
    <path d="M 616.557567 139.108748 
L 597.55789 187.987668 
L 623.599686 202.490883 
L 640.05136 169.904937 
L 620.690549 159.474965 
L 630.581616 140.589928 
L 616.557567 139.108748 
" clip-path="url(#p78743e7e7f)"/>
    <path d="M 99.453366 157.068049 
L 111.872374 114.916152 
L 94.919124 108.219986 
L 77.20348 154.290837 
L 99.453366 157.068049 
" clip-path="url(#p78743e7e7f)"/>
    <path d="M 361.717125 86.712027 
L 347.432257 100.968379 
L 366.833194 113.03382 
L 377.085396 96.154546 
L 361.717125 86.712027 
" clip-path="url(#p78743e7e7f)"/>
    <path d="M 525.351092 525.017696 
L 619.406516 530.047534 
L 650.805137 457.37717 
L 612.565027 448.39752 
L 601.14917 452.37819 
L 601.650746 465.215078 
L 553.860639 461.974998 
L 530.266531 485.180142 
L 525.351092 525.017696 
" clip-path="url(#p78743e7e7f)"/>
    <path d="M 580.444137 200.423404 
L 573.201387 212.859139 
L 594.086988 226.035464 
L 601.991817 213.29115 
L 580.444137 200.423404 
" clip-path="url(#p78743e7e7f)"/>
    <path d="M 474.310776 199.250803 
L 478.423695 192.955791 
L 465.603427 193.387802 
L 474.310776 199.250803 
" clip-path="url(#p78743e7e7f)"/>
    <path d="M 364.124687 156.080596 
L 335.795707 167.65231 
L 327.228799 212.303697 
L 345.104947 216.747235 
L 378.30924 170.213516 
L 364.124687 156.080596 
" clip-path="url(#p78743e7e7f)"/>
    <path d="M 474.310776 199.250803 
L 469.716346 206.625842 
L 496.620851 223.134821 
L 520.656346 184.747588 
L 488.23451 177.465123 
L 474.310776 199.250803 
" clip-path="url(#p78743e7e7f)"/>
    <path d="M 347.432257 100.968379 
L 335.896022 100.227789 
L 319.404222 130.777114 
L 346.288665 146.607219 
L 366.833194 113.03382 
L 347.432257 100.968379 
" clip-path="url(#p78743e7e7f)"/>
    <path d="M 163.374138 127.722182 
L 167.747876 138.121295 
L 195.153957 129.018214 
L 184.86163 118.958537 
L 163.374138 127.722182 
" clip-path="url(#p78743e7e7f)"/>
    <path d="M 523.705924 240.384389 
L 533.737433 246.71026 
L 547.059276 226.776054 
L 535.523041 219.431873 
L 523.705924 240.384389 
" clip-path="url(#p78743e7e7f)"/>
    <path d="M 529.825145 170.120942 
L 522.401828 181.908661 
L 532.934912 188.573969 
L 542.424719 174.132469 
L 529.825145 170.120942 
" clip-path="url(#p78743e7e7f)"/>
    <path d="M 526.394369 203.632626 
L 518.208658 198.139919 
L 513.333345 207.520722 
L 521.198047 212.457986 
L 526.394369 203.632626 
" clip-path="url(#p78743e7e7f)"/>
    <path d="M 697.672345 566.984445 
L 702.647973 555.258442 
L 663.244208 533.19504 
L 658.609651 544.797612 
L 634.79485 533.411046 
L 623.960821 560.164848 
L 665.110068 567.601603 
L 671.349667 553.653831 
L 697.672345 566.984445 
" clip-path="url(#p78743e7e7f)"/>
    <path d="M 170.957959 174.255901 
L 176.695982 147.255235 
L 163.374138 127.722182 
L 141.485387 141.021938 
L 134.704087 165.430541 
L 170.957959 174.255901 
" clip-path="url(#p78743e7e7f)"/>
    <path d="M 183.818353 162.529898 
L 212.267711 181.507508 
L 219.189452 149.477004 
L 209.278321 141.021938 
L 183.818353 162.529898 
" clip-path="url(#p78743e7e7f)"/>
    <path d="M 534.600143 189.684853 
L 527.036385 202.552599 
L 540.077346 211.37796 
L 547.641104 197.954771 
L 534.600143 189.684853 
" clip-path="url(#p78743e7e7f)"/>
    <path d="M 605.40253 250.474924 
L 590.515771 240.908974 
L 584.05548 251.801814 
L 597.919024 260.133448 
L 605.40253 250.474924 
" clip-path="url(#p78743e7e7f)"/>
    <path d="M 654.797678 563.250639 
L 623.960821 560.164848 
L 616.858512 578.031575 
L 645.508501 586.085488 
L 654.797678 563.250639 
" clip-path="url(#p78743e7e7f)"/>
    <path d="M 380.797054 254.671599 
L 363.562922 314.906227 
L 376.664073 319.102902 
L 344.202111 433.153716 
L 330.438881 429.049614 
L 312.422292 490.765422 
L 459.383892 531.528714 
L 495.437133 512.73625 
L 515.480087 447.039772 
L 527.237015 450.403284 
L 540.839741 403.190691 
L 529.082813 399.642032 
L 545.133227 332.68038 
L 526.153612 297.317222 
L 380.797054 254.671599 
" clip-path="url(#p78743e7e7f)"/>
    <path d="M 646.471526 215.327771 
L 665.310699 225.480022 
L 671.851242 210.729944 
L 664.287485 204.74351 
L 677.468887 179.779466 
L 666.25366 178.329144 
L 646.471526 215.327771 
" clip-path="url(#p78743e7e7f)"/>
    <path d="M 461.189563 149.075851 
L 485.9072 163.51735 
L 497.122427 145.342045 
L 474.029894 130.09824 
L 461.189563 149.075851 
" clip-path="url(#p78743e7e7f)"/>
    <path d="M 599.423751 92.698461 
L 572.077858 142.749981 
L 574.806429 153.611963 
L 560.641939 146.144351 
L 552.195409 163.455635 
L 575.027122 175.243354 
L 592.802955 136.547542 
L 616.557567 139.108748 
L 633.049367 107.973123 
L 599.423751 92.698461 
" clip-path="url(#p78743e7e7f)"/>
    <path d="M 373.815124 64.370905 
L 361.717125 86.712027 
L 377.085396 96.154546 
L 390.206609 74.955166 
L 373.815124 64.370905 
" clip-path="url(#p78743e7e7f)"/>
    <path d="M 552.195409 163.455635 
L 560.641939 146.144351 
L 561.103388 144.786603 
L 553.579757 140.528212 
L 544.190265 159.228102 
L 552.195409 163.455635 
" clip-path="url(#p78743e7e7f)"/>
    <path d="M 327.228799 212.303697 
L 335.795707 180.30405 
L 311.960843 174.71877 
L 304.557589 206.594984 
L 327.228799 212.303697 
" clip-path="url(#p78743e7e7f)"/>
    <path d="M 428.38653 140.065343 
L 401.100827 134.850358 
L 353.732044 193.079222 
L 382.642852 204.681794 
L 428.38653 140.065343 
" clip-path="url(#p78743e7e7f)"/>
    <path d="M 587.907579 222.332515 
L 582.229745 218.814714 
L 569.008217 236.24943 
L 575.368193 240.538679 
L 587.907579 222.332515 
" clip-path="url(#p78743e7e7f)"/>
    <path d="M 496.620851 223.134821 
L 509.84238 231.589887 
L 521.198047 212.457986 
L 508.31759 204.373215 
L 496.620851 223.134821 
" clip-path="url(#p78743e7e7f)"/>
    <path d="M 495.537448 148.088398 
L 485.9072 163.51735 
L 511.969059 179.470887 
L 519.733447 167.467162 
L 495.537448 148.088398 
" clip-path="url(#p78743e7e7f)"/>
    <path d="M 569.710422 192.276917 
L 561.324081 205.144663 
L 573.201387 212.859139 
L 580.444137 200.423404 
L 569.710422 192.276917 
" clip-path="url(#p78743e7e7f)"/>
    <path d="M 347.512509 78.28782 
L 361.717125 86.712027 
L 373.815124 64.370905 
L 359.590445 55.267823 
L 347.512509 78.28782 
" clip-path="url(#p78743e7e7f)"/>
    <path d="M 83.744024 181.846945 
L 86.211775 172.311853 
L 105.211452 177.21826 
L 102.743701 186.753352 
L 83.744024 181.846945 
" clip-path="url(#p78743e7e7f)"/>
    <path d="M 478.203002 643.974916 
L 516.081978 659.126147 
L 489.719174 689.459466 
L 485.786822 709.825683 
L 430.653651 683.041022 
L 456.374439 632.835212 
L 478.203002 643.974916 
M 487.532305 661.8725 
L 469.355211 658.200409 
L 456.996393 689.798903 
L 470.799748 695.631047 
L 487.532305 661.8725 
" clip-path="url(#p78743e7e7f)"/>
    <path d="M 417.81332 92.914466 
L 393.757763 130.622825 
L 365.549161 115.008725 
L 390.206609 74.955166 
L 417.81332 92.914466 
M 376.202623 113.002962 
L 389.384025 120.10028 
L 401.281394 102.603848 
L 387.899362 94.241356 
L 376.202623 113.002962 
" clip-path="url(#p78743e7e7f)"/>
    <path d="M 546.196566 69.74018 
L 557.973557 73.381413 
L 599.082679 92.605887 
L 573.321766 140.40478 
L 510.945846 107.232534 
L 515.941537 90.013823 
L 500.452888 82.083342 
L 514.075676 55.391255 
L 546.196566 69.74018 
M 566.259584 121.550601 
L 576.752541 100.536368 
L 521.358551 76.343772 
L 517.947838 91.032134 
L 566.259584 121.550601 
" clip-path="url(#p78743e7e7f)"/>
    <path d="M 592.802955 136.547542 
L 602.292762 147.687246 
L 616.557567 139.108748 
L 597.55789 187.987668 
L 575.027122 175.243354 
L 592.802955 136.547542 
M 599.142868 159.073812 
L 591.518922 157.129764 
L 587.927642 164.473945 
L 598.922175 170.275231 
L 599.142868 159.073812 
" clip-path="url(#p78743e7e7f)"/>
   </g>
   <g id="LineCollection_1">
    <path d="M 493.310454 568.52734 
L 499.650367 550.660614 
" clip-path="url(#p78743e7e7f)" style="fill: none; stroke: #ffffff; stroke-width: 8"/>
    <path d="M 493.310454 568.52734 
L 486.789973 582.783692 
" clip-path="url(#p78743e7e7f)" style="fill: none; stroke: #ffffff; stroke-width: 8"/>
    <path d="M 541.602136 286.393524 
L 514.497 243.562753 
L 428.627287 192.863217 
" clip-path="url(#p78743e7e7f)" style="fill: none; stroke: #ffffff; stroke-width: 8"/>
    <path d="M 212.107207 433.986879 
L 259.67662 446.947199 
" clip-path="url(#p78743e7e7f)" style="fill: none; stroke: #ffffff; stroke-width: 8"/>
    <path d="M 212.107207 433.986879 
L 237.767806 469.442611 
" clip-path="url(#p78743e7e7f)" style="fill: none; stroke: #ffffff; stroke-width: 8"/>
    <path d="M 212.107207 433.986879 
L 177.699133 414.268678 
" clip-path="url(#p78743e7e7f)" style="fill: none; stroke: #ffffff; stroke-width: 8"/>
    <path d="M 212.107207 433.986879 
L 258.452776 380.911284 
" clip-path="url(#p78743e7e7f)" style="fill: none; stroke: #ffffff; stroke-width: 8"/>
    <path d="M 177.699133 414.268678 
L 222.981362 342.832631 
" clip-path="url(#p78743e7e7f)" style="fill: none; stroke: #ffffff; stroke-width: 8"/>
    <path d="M 177.699133 414.268678 
L 212.107207 433.986879 
" clip-path="url(#p78743e7e7f)" style="fill: none; stroke: #ffffff; stroke-width: 8"/>
    <path d="M 225.168231 336.229039 
L 222.981362 342.832631 
" clip-path="url(#p78743e7e7f)" style="fill: none; stroke: #ffffff; stroke-width: 8"/>
    <path d="M 225.168231 336.229039 
L 250.648262 343.974373 
" clip-path="url(#p78743e7e7f)" style="fill: none; stroke: #ffffff; stroke-width: 8"/>
    <path d="M 225.168231 336.229039 
L 218.306679 299.724139 
L 199.728325 283.863176 
" clip-path="url(#p78743e7e7f)" style="fill: none; stroke: #ffffff; stroke-width: 8"/>
    <path d="M 329.495919 264.052402 
L 357.644332 270.779425 
" clip-path="url(#p78743e7e7f)" style="fill: none; stroke: #ffffff; stroke-width: 8"/>
    <path d="M 329.495919 264.052402 
L 355.276896 234.367098 
" clip-path="url(#p78743e7e7f)" style="fill: none; stroke: #ffffff; stroke-width: 8"/>
    <path d="M 329.495919 264.052402 
L 260.53933 252.758409 
" clip-path="url(#p78743e7e7f)" style="fill: none; stroke: #ffffff; stroke-width: 8"/>
    <path d="M 177.638943 238.810636 
L 140.482236 218.074125 
L 92.531625 226.066322 
" clip-path="url(#p78743e7e7f)" style="fill: none; stroke: #ffffff; stroke-width: 8"/>
    <path d="M 92.531625 226.066322 
L 140.482236 218.074125 
L 177.638943 238.810636 
" clip-path="url(#p78743e7e7f)" style="fill: none; stroke: #ffffff; stroke-width: 8"/>
    <path d="M 117.690649 478.082824 
L 134.282764 482.773225 
" clip-path="url(#p78743e7e7f)" style="fill: none; stroke: #ffffff; stroke-width: 8"/>
    <path d="M 117.690649 478.082824 
L 105.271641 474.565023 
" clip-path="url(#p78743e7e7f)" style="fill: none; stroke: #ffffff; stroke-width: 8"/>
    <path d="M 285.27703 509.218449 
L 291.677132 488.543653 
" clip-path="url(#p78743e7e7f)" style="fill: none; stroke: #ffffff; stroke-width: 8"/>
    <path d="M 229.782725 106.090791 
L 265.173887 130.067383 
" clip-path="url(#p78743e7e7f)" style="fill: none; stroke: #ffffff; stroke-width: 8"/>
    <path d="M 295.489106 150.587889 
L 265.173887 130.067383 
" clip-path="url(#p78743e7e7f)" style="fill: none; stroke: #ffffff; stroke-width: 8"/>
    <path d="M 455.05028 109.114866 
L 462.333155 95.815109 
" clip-path="url(#p78743e7e7f)" style="fill: none; stroke: #ffffff; stroke-width: 8"/>
    <path d="M 455.05028 109.114866 
L 452.381899 114.175562 
" clip-path="url(#p78743e7e7f)" style="fill: none; stroke: #ffffff; stroke-width: 8"/>
    <path d="M 457.397653 127.999903 
L 467.629792 134.726926 
" clip-path="url(#p78743e7e7f)" style="fill: none; stroke: #ffffff; stroke-width: 8"/>
    <path d="M 457.397653 127.999903 
L 447.566775 121.211164 
" clip-path="url(#p78743e7e7f)" style="fill: none; stroke: #ffffff; stroke-width: 8"/>
    <path d="M 221.737455 240.600395 
L 222.680417 245.784523 
" clip-path="url(#p78743e7e7f)" style="fill: none; stroke: #ffffff; stroke-width: 8"/>
    <path d="M 222.680417 245.784523 
L 217.885356 246.339965 
" clip-path="url(#p78743e7e7f)" style="fill: none; stroke: #ffffff; stroke-width: 8"/>
    <path d="M 222.680417 245.784523 
L 221.737455 240.600395 
" clip-path="url(#p78743e7e7f)" style="fill: none; stroke: #ffffff; stroke-width: 8"/>
    <path d="M 222.680417 245.784523 
L 260.53933 252.758409 
" clip-path="url(#p78743e7e7f)" style="fill: none; stroke: #ffffff; stroke-width: 8"/>
    <path d="M 222.981362 342.832631 
L 225.168231 336.229039 
" clip-path="url(#p78743e7e7f)" style="fill: none; stroke: #ffffff; stroke-width: 8"/>
    <path d="M 222.981362 342.832631 
L 177.699133 414.268678 
" clip-path="url(#p78743e7e7f)" style="fill: none; stroke: #ffffff; stroke-width: 8"/>
    <path d="M 222.981362 342.832631 
L 151.637273 332.24837 
L 138.71669 291.485078 
L 113.838549 270.285698 
" clip-path="url(#p78743e7e7f)" style="fill: none; stroke: #ffffff; stroke-width: 8"/>
    <path d="M 260.860338 207.273858 
L 254.279669 233.348787 
L 260.53933 252.758409 
" clip-path="url(#p78743e7e7f)" style="fill: none; stroke: #ffffff; stroke-width: 8"/>
    <path d="M 237.767806 469.442611 
L 212.107207 433.986879 
" clip-path="url(#p78743e7e7f)" style="fill: none; stroke: #ffffff; stroke-width: 8"/>
    <path d="M 277.532705 316.665128 
L 260.53933 252.758409 
" clip-path="url(#p78743e7e7f)" style="fill: none; stroke: #ffffff; stroke-width: 8"/>
    <path d="M 277.532705 316.665128 
L 281.2243 330.551185 
" clip-path="url(#p78743e7e7f)" style="fill: none; stroke: #ffffff; stroke-width: 8"/>
    <path d="M 277.532705 316.665128 
L 250.648262 343.974373 
" clip-path="url(#p78743e7e7f)" style="fill: none; stroke: #ffffff; stroke-width: 8"/>
    <path d="M 277.532705 316.665128 
L 297.956857 314.474217 
" clip-path="url(#p78743e7e7f)" style="fill: none; stroke: #ffffff; stroke-width: 8"/>
    <path d="M 260.53933 252.758409 
L 277.532705 316.665128 
" clip-path="url(#p78743e7e7f)" style="fill: none; stroke: #ffffff; stroke-width: 8"/>
    <path d="M 260.53933 252.758409 
L 222.680417 245.784523 
" clip-path="url(#p78743e7e7f)" style="fill: none; stroke: #ffffff; stroke-width: 8"/>
    <path d="M 260.53933 252.758409 
L 329.495919 264.052402 
" clip-path="url(#p78743e7e7f)" style="fill: none; stroke: #ffffff; stroke-width: 8"/>
    <path d="M 260.53933 252.758409 
L 254.279669 233.348787 
L 260.860338 207.273858 
" clip-path="url(#p78743e7e7f)" style="fill: none; stroke: #ffffff; stroke-width: 8"/>
    <path d="M 281.2243 330.551185 
L 277.532705 316.665128 
" clip-path="url(#p78743e7e7f)" style="fill: none; stroke: #ffffff; stroke-width: 8"/>
    <path d="M 258.452776 380.911284 
L 269.166427 370.975039 
" clip-path="url(#p78743e7e7f)" style="fill: none; stroke: #ffffff; stroke-width: 8"/>
    <path d="M 258.452776 380.911284 
L 212.107207 433.986879 
" clip-path="url(#p78743e7e7f)" style="fill: none; stroke: #ffffff; stroke-width: 8"/>
    <path d="M 258.452776 380.911284 
L 274.924513 394.180183 
" clip-path="url(#p78743e7e7f)" style="fill: none; stroke: #ffffff; stroke-width: 8"/>
    <path d="M 258.452776 380.911284 
L 250.648262 343.974373 
" clip-path="url(#p78743e7e7f)" style="fill: none; stroke: #ffffff; stroke-width: 8"/>
    <path d="M 269.166427 370.975039 
L 258.452776 380.911284 
" clip-path="url(#p78743e7e7f)" style="fill: none; stroke: #ffffff; stroke-width: 8"/>
    <path d="M 264.551933 348.171048 
L 250.648262 343.974373 
" clip-path="url(#p78743e7e7f)" style="fill: none; stroke: #ffffff; stroke-width: 8"/>
    <path d="M 274.924513 394.180183 
L 258.452776 380.911284 
" clip-path="url(#p78743e7e7f)" style="fill: none; stroke: #ffffff; stroke-width: 8"/>
    <path d="M 250.648262 343.974373 
L 264.551933 348.171048 
" clip-path="url(#p78743e7e7f)" style="fill: none; stroke: #ffffff; stroke-width: 8"/>
    <path d="M 250.648262 343.974373 
L 225.168231 336.229039 
" clip-path="url(#p78743e7e7f)" style="fill: none; stroke: #ffffff; stroke-width: 8"/>
    <path d="M 250.648262 343.974373 
L 258.452776 380.911284 
" clip-path="url(#p78743e7e7f)" style="fill: none; stroke: #ffffff; stroke-width: 8"/>
    <path d="M 250.648262 343.974373 
L 277.532705 316.665128 
" clip-path="url(#p78743e7e7f)" style="fill: none; stroke: #ffffff; stroke-width: 8"/>
    <path d="M 297.956857 314.474217 
L 277.532705 316.665128 
" clip-path="url(#p78743e7e7f)" style="fill: none; stroke: #ffffff; stroke-width: 8"/>
    <path d="M 113.838549 270.285698 
L 138.71669 291.485078 
L 151.637273 332.24837 
L 222.981362 342.832631 
" clip-path="url(#p78743e7e7f)" style="fill: none; stroke: #ffffff; stroke-width: 8"/>
    <path d="M 113.838549 270.285698 
L 164.357226 268.125645 
" clip-path="url(#p78743e7e7f)" style="fill: none; stroke: #ffffff; stroke-width: 8"/>
    <path d="M 164.357226 268.125645 
L 113.838549 270.285698 
" clip-path="url(#p78743e7e7f)" style="fill: none; stroke: #ffffff; stroke-width: 8"/>
    <path d="M 217.885356 246.339965 
L 222.680417 245.784523 
" clip-path="url(#p78743e7e7f)" style="fill: none; stroke: #ffffff; stroke-width: 8"/>
    <path d="M 199.728325 283.863176 
L 218.306679 299.724139 
L 225.168231 336.229039 
" clip-path="url(#p78743e7e7f)" style="fill: none; stroke: #ffffff; stroke-width: 8"/>
    <path d="M 259.67662 446.947199 
L 212.107207 433.986879 
" clip-path="url(#p78743e7e7f)" style="fill: none; stroke: #ffffff; stroke-width: 8"/>
    <path d="M 586.182159 594.818275 
L 592.020497 576.48868 
" clip-path="url(#p78743e7e7f)" style="fill: none; stroke: #ffffff; stroke-width: 8"/>
    <path d="M 586.182159 594.818275 
L 581.166405 608.673474 
" clip-path="url(#p78743e7e7f)" style="fill: none; stroke: #ffffff; stroke-width: 8"/>
    <path d="M 472.826113 582.96884 
L 453.364987 576.210959 
" clip-path="url(#p78743e7e7f)" style="fill: none; stroke: #ffffff; stroke-width: 8"/>
    <path d="M 472.826113 582.96884 
L 486.789973 582.783692 
" clip-path="url(#p78743e7e7f)" style="fill: none; stroke: #ffffff; stroke-width: 8"/>
    <path d="M 453.364987 576.210959 
L 472.826113 582.96884 
" clip-path="url(#p78743e7e7f)" style="fill: none; stroke: #ffffff; stroke-width: 8"/>
    <path d="M 453.364987 576.210959 
L 280.461906 523.814238 
" clip-path="url(#p78743e7e7f)" style="fill: none; stroke: #ffffff; stroke-width: 8"/>
    <path d="M 581.166405 608.673474 
L 486.789973 582.783692 
" clip-path="url(#p78743e7e7f)" style="fill: none; stroke: #ffffff; stroke-width: 8"/>
    <path d="M 581.166405 608.673474 
L 591.43867 612.654143 
" clip-path="url(#p78743e7e7f)" style="fill: none; stroke: #ffffff; stroke-width: 8"/>
    <path d="M 581.166405 608.673474 
L 586.182159 594.818275 
" clip-path="url(#p78743e7e7f)" style="fill: none; stroke: #ffffff; stroke-width: 8"/>
    <path d="M 134.282764 482.773225 
L 117.690649 478.082824 
" clip-path="url(#p78743e7e7f)" style="fill: none; stroke: #ffffff; stroke-width: 8"/>
    <path d="M 134.282764 482.773225 
L 280.461906 523.814238 
" clip-path="url(#p78743e7e7f)" style="fill: none; stroke: #ffffff; stroke-width: 8"/>
    <path d="M 399.415534 219.740452 
L 395.40293 217.024956 
" clip-path="url(#p78743e7e7f)" style="fill: none; stroke: #ffffff; stroke-width: 8"/>
    <path d="M 399.415534 219.740452 
L 409.928555 221.159915 
" clip-path="url(#p78743e7e7f)" style="fill: none; stroke: #ffffff; stroke-width: 8"/>
    <path d="M 280.461906 523.814238 
L 453.364987 576.210959 
" clip-path="url(#p78743e7e7f)" style="fill: none; stroke: #ffffff; stroke-width: 8"/>
    <path d="M 280.461906 523.814238 
L 134.282764 482.773225 
" clip-path="url(#p78743e7e7f)" style="fill: none; stroke: #ffffff; stroke-width: 8"/>
    <path d="M 486.789973 582.783692 
L 581.166405 608.673474 
" clip-path="url(#p78743e7e7f)" style="fill: none; stroke: #ffffff; stroke-width: 8"/>
    <path d="M 486.789973 582.783692 
L 493.310454 568.52734 
" clip-path="url(#p78743e7e7f)" style="fill: none; stroke: #ffffff; stroke-width: 8"/>
    <path d="M 486.789973 582.783692 
L 472.826113 582.96884 
" clip-path="url(#p78743e7e7f)" style="fill: none; stroke: #ffffff; stroke-width: 8"/>
    <path d="M 591.43867 612.654143 
L 581.166405 608.673474 
" clip-path="url(#p78743e7e7f)" style="fill: none; stroke: #ffffff; stroke-width: 8"/>
    <path d="M 291.677132 488.543653 
L 489.016968 547.698255 
" clip-path="url(#p78743e7e7f)" style="fill: none; stroke: #ffffff; stroke-width: 8"/>
    <path d="M 291.677132 488.543653 
L 285.27703 509.218449 
" clip-path="url(#p78743e7e7f)" style="fill: none; stroke: #ffffff; stroke-width: 8"/>
    <path d="M 489.016968 547.698255 
L 291.677132 488.543653 
" clip-path="url(#p78743e7e7f)" style="fill: none; stroke: #ffffff; stroke-width: 8"/>
    <path d="M 489.016968 547.698255 
L 499.650367 550.660614 
" clip-path="url(#p78743e7e7f)" style="fill: none; stroke: #ffffff; stroke-width: 8"/>
    <path d="M 607.047697 580.963076 
L 592.020497 576.48868 
" clip-path="url(#p78743e7e7f)" style="fill: none; stroke: #ffffff; stroke-width: 8"/>
    <path d="M 592.020497 576.48868 
L 499.650367 550.660614 
" clip-path="url(#p78743e7e7f)" style="fill: none; stroke: #ffffff; stroke-width: 8"/>
    <path d="M 592.020497 576.48868 
L 607.047697 580.963076 
" clip-path="url(#p78743e7e7f)" style="fill: none; stroke: #ffffff; stroke-width: 8"/>
    <path d="M 592.020497 576.48868 
L 586.182159 594.818275 
" clip-path="url(#p78743e7e7f)" style="fill: none; stroke: #ffffff; stroke-width: 8"/>
    <path d="M 395.40293 217.024956 
L 399.415534 219.740452 
" clip-path="url(#p78743e7e7f)" style="fill: none; stroke: #ffffff; stroke-width: 8"/>
    <path d="M 395.40293 217.024956 
L 386.15388 210.729944 
" clip-path="url(#p78743e7e7f)" style="fill: none; stroke: #ffffff; stroke-width: 8"/>
    <path d="M 412.436432 246.401681 
L 386.214069 243.994764 
" clip-path="url(#p78743e7e7f)" style="fill: none; stroke: #ffffff; stroke-width: 8"/>
    <path d="M 105.271641 474.565023 
L 117.690649 478.082824 
" clip-path="url(#p78743e7e7f)" style="fill: none; stroke: #ffffff; stroke-width: 8"/>
    <path d="M 499.650367 550.660614 
L 489.016968 547.698255 
" clip-path="url(#p78743e7e7f)" style="fill: none; stroke: #ffffff; stroke-width: 8"/>
    <path d="M 499.650367 550.660614 
L 592.020497 576.48868 
" clip-path="url(#p78743e7e7f)" style="fill: none; stroke: #ffffff; stroke-width: 8"/>
    <path d="M 499.650367 550.660614 
L 493.310454 568.52734 
" clip-path="url(#p78743e7e7f)" style="fill: none; stroke: #ffffff; stroke-width: 8"/>
    <path d="M 272.737644 201.997157 
L 357.784773 223.073105 
" clip-path="url(#p78743e7e7f)" style="fill: none; stroke: #ffffff; stroke-width: 8"/>
    <path d="M 452.381899 114.175562 
L 447.566775 121.211164 
" clip-path="url(#p78743e7e7f)" style="fill: none; stroke: #ffffff; stroke-width: 8"/>
    <path d="M 452.381899 114.175562 
L 455.05028 109.114866 
" clip-path="url(#p78743e7e7f)" style="fill: none; stroke: #ffffff; stroke-width: 8"/>
    <path d="M 462.333155 95.815109 
L 455.05028 109.114866 
" clip-path="url(#p78743e7e7f)" style="fill: none; stroke: #ffffff; stroke-width: 8"/>
    <path d="M 265.173887 130.067383 
L 229.782725 106.090791 
" clip-path="url(#p78743e7e7f)" style="fill: none; stroke: #ffffff; stroke-width: 8"/>
    <path d="M 265.173887 130.067383 
L 255.22263 148.273546 
" clip-path="url(#p78743e7e7f)" style="fill: none; stroke: #ffffff; stroke-width: 8"/>
    <path d="M 265.173887 130.067383 
L 295.489106 150.587889 
" clip-path="url(#p78743e7e7f)" style="fill: none; stroke: #ffffff; stroke-width: 8"/>
    <path d="M 255.22263 148.273546 
L 265.173887 130.067383 
" clip-path="url(#p78743e7e7f)" style="fill: none; stroke: #ffffff; stroke-width: 8"/>
    <path d="M 428.627287 192.863217 
L 409.928555 221.159915 
" clip-path="url(#p78743e7e7f)" style="fill: none; stroke: #ffffff; stroke-width: 8"/>
    <path d="M 428.627287 192.863217 
L 514.497 243.562753 
L 541.602136 286.393524 
" clip-path="url(#p78743e7e7f)" style="fill: none; stroke: #ffffff; stroke-width: 8"/>
    <path d="M 428.627287 192.863217 
L 467.629792 134.726926 
" clip-path="url(#p78743e7e7f)" style="fill: none; stroke: #ffffff; stroke-width: 8"/>
    <path d="M 475.213612 122.44548 
L 467.629792 134.726926 
" clip-path="url(#p78743e7e7f)" style="fill: none; stroke: #ffffff; stroke-width: 8"/>
    <path d="M 447.566775 121.211164 
L 452.381899 114.175562 
" clip-path="url(#p78743e7e7f)" style="fill: none; stroke: #ffffff; stroke-width: 8"/>
    <path d="M 447.566775 121.211164 
L 386.15388 210.729944 
" clip-path="url(#p78743e7e7f)" style="fill: none; stroke: #ffffff; stroke-width: 8"/>
    <path d="M 447.566775 121.211164 
L 457.397653 127.999903 
" clip-path="url(#p78743e7e7f)" style="fill: none; stroke: #ffffff; stroke-width: 8"/>
    <path d="M 467.629792 134.726926 
L 428.627287 192.863217 
" clip-path="url(#p78743e7e7f)" style="fill: none; stroke: #ffffff; stroke-width: 8"/>
    <path d="M 467.629792 134.726926 
L 475.213612 122.44548 
" clip-path="url(#p78743e7e7f)" style="fill: none; stroke: #ffffff; stroke-width: 8"/>
    <path d="M 467.629792 134.726926 
L 457.397653 127.999903 
" clip-path="url(#p78743e7e7f)" style="fill: none; stroke: #ffffff; stroke-width: 8"/>
    <path d="M 386.15388 210.729944 
L 447.566775 121.211164 
" clip-path="url(#p78743e7e7f)" style="fill: none; stroke: #ffffff; stroke-width: 8"/>
    <path d="M 386.15388 210.729944 
L 357.784773 223.073105 
" clip-path="url(#p78743e7e7f)" style="fill: none; stroke: #ffffff; stroke-width: 8"/>
    <path d="M 386.15388 210.729944 
L 395.40293 217.024956 
" clip-path="url(#p78743e7e7f)" style="fill: none; stroke: #ffffff; stroke-width: 8"/>
    <path d="M 404.270784 229.707555 
L 409.928555 221.159915 
" clip-path="url(#p78743e7e7f)" style="fill: none; stroke: #ffffff; stroke-width: 8"/>
    <path d="M 404.270784 229.707555 
L 386.214069 243.994764 
" clip-path="url(#p78743e7e7f)" style="fill: none; stroke: #ffffff; stroke-width: 8"/>
    <path d="M 409.928555 221.159915 
L 404.270784 229.707555 
" clip-path="url(#p78743e7e7f)" style="fill: none; stroke: #ffffff; stroke-width: 8"/>
    <path d="M 409.928555 221.159915 
L 428.627287 192.863217 
" clip-path="url(#p78743e7e7f)" style="fill: none; stroke: #ffffff; stroke-width: 8"/>
    <path d="M 409.928555 221.159915 
L 399.415534 219.740452 
" clip-path="url(#p78743e7e7f)" style="fill: none; stroke: #ffffff; stroke-width: 8"/>
    <path d="M 357.784773 223.073105 
L 355.999165 231.157876 
" clip-path="url(#p78743e7e7f)" style="fill: none; stroke: #ffffff; stroke-width: 8"/>
    <path d="M 357.784773 223.073105 
L 386.15388 210.729944 
" clip-path="url(#p78743e7e7f)" style="fill: none; stroke: #ffffff; stroke-width: 8"/>
    <path d="M 357.784773 223.073105 
L 272.737644 201.997157 
" clip-path="url(#p78743e7e7f)" style="fill: none; stroke: #ffffff; stroke-width: 8"/>
    <path d="M 355.276896 234.367098 
L 355.999165 231.157876 
" clip-path="url(#p78743e7e7f)" style="fill: none; stroke: #ffffff; stroke-width: 8"/>
    <path d="M 355.276896 234.367098 
L 364.666388 247.080554 
" clip-path="url(#p78743e7e7f)" style="fill: none; stroke: #ffffff; stroke-width: 8"/>
    <path d="M 355.276896 234.367098 
L 329.495919 264.052402 
" clip-path="url(#p78743e7e7f)" style="fill: none; stroke: #ffffff; stroke-width: 8"/>
    <path d="M 355.999165 231.157876 
L 355.276896 234.367098 
" clip-path="url(#p78743e7e7f)" style="fill: none; stroke: #ffffff; stroke-width: 8"/>
    <path d="M 355.999165 231.157876 
L 357.784773 223.073105 
" clip-path="url(#p78743e7e7f)" style="fill: none; stroke: #ffffff; stroke-width: 8"/>
    <path d="M 364.666388 247.080554 
L 355.276896 234.367098 
" clip-path="url(#p78743e7e7f)" style="fill: none; stroke: #ffffff; stroke-width: 8"/>
    <path d="M 364.666388 247.080554 
L 386.214069 243.994764 
" clip-path="url(#p78743e7e7f)" style="fill: none; stroke: #ffffff; stroke-width: 8"/>
    <path d="M 386.214069 243.994764 
L 404.270784 229.707555 
" clip-path="url(#p78743e7e7f)" style="fill: none; stroke: #ffffff; stroke-width: 8"/>
    <path d="M 386.214069 243.994764 
L 412.436432 246.401681 
" clip-path="url(#p78743e7e7f)" style="fill: none; stroke: #ffffff; stroke-width: 8"/>
    <path d="M 386.214069 243.994764 
L 364.666388 247.080554 
" clip-path="url(#p78743e7e7f)" style="fill: none; stroke: #ffffff; stroke-width: 8"/>
    <path d="M 357.644332 270.779425 
L 329.495919 264.052402 
" clip-path="url(#p78743e7e7f)" style="fill: none; stroke: #ffffff; stroke-width: 8"/>
   </g>
   <g id="LineCollection_2">
    <path d="M 465.322545 116.057894 
L 455.05028 109.114866 
" clip-path="url(#p78743e7e7f)" style="fill: none; stroke: #800080; stroke-width: 8"/>
    <path d="M 117.690649 478.082824 
L 124.81302 464.073335 
" clip-path="url(#p78743e7e7f)" style="fill: none; stroke: #800080; stroke-width: 8"/>
   </g>
   <g id="LineCollection_3">
    <path d="M 133.520369 179.378313 
L 260.860338 207.273858 
" clip-path="url(#p78743e7e7f)" style="fill: none; stroke: #800080; stroke-width: 8"/>
    <path d="M 269.788381 209.217906 
L 355.999165 231.157876 
" clip-path="url(#p78743e7e7f)" style="fill: none; stroke: #800080; stroke-width: 8"/>
    <path d="M 457.397653 127.999903 
L 465.322545 116.057894 
" clip-path="url(#p78743e7e7f)" style="fill: none; stroke: #800080; stroke-width: 8"/>
    <path d="M 260.860338 207.273858 
L 269.788381 209.217906 
" clip-path="url(#p78743e7e7f)" style="fill: none; stroke: #800080; stroke-width: 8"/>
    <path d="M 395.40293 217.024956 
L 457.397653 127.999903 
" clip-path="url(#p78743e7e7f)" style="fill: none; stroke: #800080; stroke-width: 8"/>
    <path d="M 475.213612 122.44548 
L 465.322545 116.057894 
" clip-path="url(#p78743e7e7f)" style="fill: none; stroke: #800080; stroke-width: 8"/>
    <path d="M 355.999165 231.157876 
L 383.425309 232.268761 
L 395.40293 217.024956 
" clip-path="url(#p78743e7e7f)" style="fill: none; stroke: #800080; stroke-width: 8"/>
   </g>
   <g id="LineCollection_4">
    <path d="M 462.513722 559.979701 
L 453.364987 576.210959 
" clip-path="url(#p78743e7e7f)" style="fill: none; stroke: #800080; stroke-width: 8"/>
    <path d="M 462.513722 559.979701 
L 493.310454 568.52734 
" clip-path="url(#p78743e7e7f)" style="fill: none; stroke: #800080; stroke-width: 8"/>
    <path d="M 462.513722 559.979701 
L 285.27703 509.218449 
" clip-path="url(#p78743e7e7f)" style="fill: none; stroke: #800080; stroke-width: 8"/>
    <path d="M 124.81302 464.073335 
L 93.374272 455.494838 
" clip-path="url(#p78743e7e7f)" style="fill: none; stroke: #800080; stroke-width: 8"/>
    <path d="M 124.81302 464.073335 
L 285.27703 509.218449 
" clip-path="url(#p78743e7e7f)" style="fill: none; stroke: #800080; stroke-width: 8"/>
    <path d="M 493.310454 568.52734 
L 462.513722 559.979701 
" clip-path="url(#p78743e7e7f)" style="fill: none; stroke: #800080; stroke-width: 8"/>
    <path d="M 493.310454 568.52734 
L 586.182159 594.818275 
" clip-path="url(#p78743e7e7f)" style="fill: none; stroke: #800080; stroke-width: 8"/>
    <path d="M 598.661356 598.428649 
L 586.182159 594.818275 
" clip-path="url(#p78743e7e7f)" style="fill: none; stroke: #800080; stroke-width: 8"/>
    <path d="M 93.374272 455.494838 
L 124.81302 464.073335 
" clip-path="url(#p78743e7e7f)" style="fill: none; stroke: #800080; stroke-width: 8"/>
    <path d="M 285.27703 509.218449 
L 124.81302 464.073335 
" clip-path="url(#p78743e7e7f)" style="fill: none; stroke: #800080; stroke-width: 8"/>
    <path d="M 285.27703 509.218449 
L 462.513722 559.979701 
" clip-path="url(#p78743e7e7f)" style="fill: none; stroke: #800080; stroke-width: 8"/>
    <path d="M 586.182159 594.818275 
L 598.661356 598.428649 
" clip-path="url(#p78743e7e7f)" style="fill: none; stroke: #800080; stroke-width: 8"/>
    <path d="M 586.182159 594.818275 
L 493.310454 568.52734 
" clip-path="url(#p78743e7e7f)" style="fill: none; stroke: #800080; stroke-width: 8"/>
    <path d="M 453.364987 576.210959 
L 439.641883 602.625324 
" clip-path="url(#p78743e7e7f)" style="fill: none; stroke: #800080; stroke-width: 8"/>
   </g>
   <g id="LineCollection_5">
    <path d="M 22.351192 667.426923 
L 124.81302 464.073335 
" clip-path="url(#p78743e7e7f)" style="fill: none; stroke: #800080; stroke-width: 8"/>
    <path d="M 465.322545 116.057894 
L 285.117483 -1 
" clip-path="url(#p78743e7e7f)" style="fill: none; stroke: #800080; stroke-width: 8"/>
   </g>
   <g id="patch_2">
    <path d="M 262.968201 182.374148 
L 283.360617 202.057864 
L 284.640401 198.92141 
L 264.247985 179.237695 
z
" clip-path="url(#p78743e7e7f)" style="fill: #ff6600"/>
   </g>
   <g id="patch_3">
    <path d="M 268.711456 181.360165 
L 281.456716 193.662487 
L 282.7365 190.526033 
L 269.99124 178.223711 
z
" clip-path="url(#p78743e7e7f)" style="fill: #ff6600"/>
   </g>
   <g id="patch_4">
    <path d="M 274.454711 180.346181 
L 282.101867 187.727574 
L 283.381651 184.59112 
L 275.734495 177.209727 
z
" clip-path="url(#p78743e7e7f)" style="fill: #ff6600"/>
   </g>
   <g id="patch_5">
    <path d="M 512.129564 424.729508 
C 515.588067 424.729508 518.905384 424.079231 521.350916 422.921894 
C 523.796447 421.764556 525.170525 420.194649 525.170525 418.557927 
C 525.170525 416.921205 523.796447 415.351298 521.350916 414.19396 
C 518.905384 413.036623 515.588067 412.386346 512.129564 412.386346 
C 508.67106 412.386346 505.353743 413.036623 502.908212 414.19396 
C 500.46268 415.351298 499.088602 416.921205 499.088602 418.557927 
C 499.088602 420.194649 500.46268 421.764556 502.908212 422.921894 
C 505.353743 424.079231 508.67106 424.729508 512.129564 424.729508 
z
" clip-path="url(#p78743e7e7f)" style="fill: #ff6600; stroke: #ff6600; stroke-linejoin: miter"/>
   </g>
   <g id="patch_6">
    <path d="M 629.583752 331.699947 
C 633.042255 331.699947 636.359573 331.04967 638.805104 329.892333 
C 641.250635 328.734995 642.624713 327.165088 642.624713 325.528366 
C 642.624713 323.891644 641.250635 322.321737 638.805104 321.164399 
C 636.359573 320.007062 633.042255 319.356785 629.583752 319.356785 
C 626.125249 319.356785 622.807931 320.007062 620.3624 321.164399 
C 617.916869 322.321737 616.542791 323.891644 616.542791 325.528366 
C 616.542791 327.165088 617.916869 328.734995 620.3624 329.892333 
C 622.807931 331.04967 626.125249 331.699947 629.583752 331.699947 
z
" clip-path="url(#p78743e7e7f)" style="fill: #ff6600; stroke: #ff6600; stroke-linejoin: miter"/>
   </g>
   <g id="patch_7">
    <path d="M 250.267065 161.511587 
C 253.725568 161.511587 257.042886 160.86131 259.488417 159.703973 
C 261.933948 158.546635 263.308026 156.976728 263.308026 155.340006 
C 263.308026 153.703284 261.933948 152.133377 259.488417 150.976039 
C 257.042886 149.818702 253.725568 149.168425 250.267065 149.168425 
C 246.808562 149.168425 243.491244 149.818702 241.045713 150.976039 
C 238.600182 152.133377 237.226104 153.703284 237.226104 155.340006 
C 237.226104 156.976728 238.600182 158.546635 241.045713 159.703973 
C 243.491244 160.86131 246.808562 161.511587 250.267065 161.511587 
z
" clip-path="url(#p78743e7e7f)" style="fill: #ff6600; stroke: #ff6600; stroke-linejoin: miter"/>
   </g>
   <g id="patch_8">
    <path d="M 587.362735 500.236522 
C 590.821238 500.236522 594.138556 499.586245 596.584087 498.428908 
C 599.029618 497.27157 600.403696 495.701663 600.403696 494.064941 
C 600.403696 492.428219 599.029618 490.858312 596.584087 489.700974 
C 594.138556 488.543637 590.821238 487.89336 587.362735 487.89336 
C 583.904232 487.89336 580.586914 488.543637 578.141383 489.700974 
C 575.695852 490.858312 574.321774 492.428219 574.321774 494.064941 
C 574.321774 495.701663 575.695852 497.27157 578.141383 498.428908 
C 580.586914 499.586245 583.904232 500.236522 587.362735 500.236522 
z
" clip-path="url(#p78743e7e7f)" style="fill: #ff6600; stroke: #ff6600; stroke-linejoin: miter"/>
   </g>
   <g id="patch_9">
    <path d="M 436.591422 404.740125 
C 440.049925 404.740125 443.367242 404.089849 445.812774 402.932511 
C 448.258305 401.775174 449.632383 400.205267 449.632383 398.568545 
C 449.632383 396.931822 448.258305 395.361915 445.812774 394.204578 
C 443.367242 393.04724 440.049925 392.396964 436.591422 392.396964 
C 433.132918 392.396964 429.815601 393.04724 427.37007 394.204578 
C 424.924538 395.361915 423.55046 396.931822 423.55046 398.568545 
C 423.55046 400.205267 424.924538 401.775174 427.37007 402.932511 
C 429.815601 404.089849 433.132918 404.740125 436.591422 404.740125 
z
" clip-path="url(#p78743e7e7f)" style="fill: #ff6600; stroke: #ff6600; stroke-linejoin: miter"/>
   </g>
   <g id="PathCollection_1">
    <defs>
     <path id="m0f7d90cf54" d="M 0 -2.236068 
L 0 0 
L -2.236068 -0 
L 0 0 
L -0 2.236068 
L 0 0 
L 2.236068 0 
L 0 0 
z
" style="stroke: #ff6600; stroke-width: 1.5"/>
    </defs>
    <g clip-path="url(#p78743e7e7f)">
     <use xlink:href="#m0f7d90cf54" x="99.975005" y="95.290525" style="fill: #ff6600; stroke: #ff6600; stroke-width: 1.5"/>
     <use xlink:href="#m0f7d90cf54" x="360.533407" y="375.696298" style="fill: #ff6600; stroke: #ff6600; stroke-width: 1.5"/>
     <use xlink:href="#m0f7d90cf54" x="255.22263" y="148.273546" style="fill: #ff6600; stroke: #ff6600; stroke-width: 1.5"/>
    </g>
   </g>
   <g id="patch_10">
    <path d="M 452.83934 107.62049 
L 464.304791 128.852428 
L 470.762179 106.252112 
z
" clip-path="url(#p78743e7e7f)" style="fill: #ff6600"/>
   </g>
   <g id="patch_11">
    <path d="M 126.195207 461.354615 
L 109.986515 473.198395 
L 122.630408 488.404693 
z
" clip-path="url(#p78743e7e7f)" style="fill: #ff6600"/>
   </g>
   <g id="patch_12">
    <path d="M 205.135378 195.066551 
L 190.376935 179.365783 
L 188.113723 203.805458 
z
" clip-path="url(#p78743e7e7f)" style="fill: #ff6600"/>
   </g>
   <g id="patch_13">
    <path d="M 320.811326 222.202847 
L 306.286292 205.99535 
L 303.666147 230.350521 
z
" clip-path="url(#p78743e7e7f)" style="fill: #ff6600"/>
   </g>
   <g id="patch_14">
    <path d="M 467.09253 113.390706 
L 450.011336 121.850331 
L 461.243999 139.483852 
z
" clip-path="url(#p78743e7e7f)" style="fill: #ff6600"/>
   </g>
   <g id="patch_15">
    <path d="M 273.270331 209.976088 
L 258.503323 194.294383 
L 256.253453 218.736971 
z
" clip-path="url(#p78743e7e7f)" style="fill: #ff6600"/>
   </g>
   <g id="patch_16">
    <path d="M 432.266214 164.088905 
L 415.057609 171.913877 
L 426.011129 189.958031 
z
" clip-path="url(#p78743e7e7f)" style="fill: #ff6600"/>
   </g>
   <g id="patch_17">
    <path d="M 462.86866 114.473191 
L 474.560642 135.410851 
L 480.774352 112.649514 
z
" clip-path="url(#p78743e7e7f)" style="fill: #ff6600"/>
   </g>
   <g id="patch_18">
    <path d="M 385.298309 229.224878 
L 367.844727 222.810605 
L 371.489843 246.851886 
z
" clip-path="url(#p78743e7e7f)" style="fill: #ff6600"/>
   </g>
   <g id="patch_19">
    <path d="M 452.682524 577.421752 
L 469.259986 566.854171 
L 457.132385 550.683644 
z
" clip-path="url(#p78743e7e7f)" style="fill: #ff6600"/>
   </g>
   <g id="patch_20">
    <path d="M 470.014442 562.061527 
L 479.337266 552.106554 
L 485.809734 566.445514 
L 476.48691 576.400488 
z
" clip-path="url(#p78743e7e7f)" style="fill: #ff6600"/>
   </g>
   <g id="patch_21">
    <path d="M 381.784963 536.858682 
L 372.426238 546.733646 
L 366.00579 532.339468 
L 375.364515 522.464504 
z
" clip-path="url(#p78743e7e7f)" style="fill: #ff6600"/>
   </g>
   <g id="patch_22">
    <path d="M 116.995465 461.940208 
L 107.691791 471.937472 
L 101.191826 457.627966 
L 110.4955 447.630701 
z
" clip-path="url(#p78743e7e7f)" style="fill: #ff6600"/>
   </g>
   <g id="patch_23">
    <path d="M 197.150802 484.424923 
L 206.489042 474.50419 
L 212.939248 488.866861 
L 203.601008 498.787595 
z
" clip-path="url(#p78743e7e7f)" style="fill: #ff6600"/>
   </g>
   <g id="patch_24">
    <path d="M 485.809734 566.445514 
L 476.48691 576.400488 
L 470.014442 562.061527 
L 479.337266 552.106554 
z
" clip-path="url(#p78743e7e7f)" style="fill: #ff6600"/>
   </g>
   <g id="patch_25">
    <path d="M 531.853676 579.438493 
L 541.199001 569.533554 
L 547.638937 583.907123 
L 538.293612 593.812061 
z
" clip-path="url(#p78743e7e7f)" style="fill: #ff6600"/>
   </g>
   <g id="patch_26">
    <path d="M 600.308648 598.90523 
L 590.938211 608.753886 
L 584.534868 594.341694 
L 593.905305 584.493039 
z
" clip-path="url(#p78743e7e7f)" style="fill: #ff6600"/>
   </g>
   <g id="patch_27">
    <path d="M 101.191826 457.627966 
L 110.4955 447.630701 
L 116.995465 461.940208 
L 107.691791 471.937472 
z
" clip-path="url(#p78743e7e7f)" style="fill: #ff6600"/>
   </g>
   <g id="patch_28">
    <path d="M 212.939248 488.866861 
L 203.601008 498.787595 
L 197.150802 484.424923 
L 206.489042 474.50419 
z
" clip-path="url(#p78743e7e7f)" style="fill: #ff6600"/>
   </g>
   <g id="patch_29">
    <path d="M 366.00579 532.339468 
L 375.364515 522.464504 
L 381.784963 536.858682 
L 372.426238 546.733646 
z
" clip-path="url(#p78743e7e7f)" style="fill: #ff6600"/>
   </g>
   <g id="patch_30">
    <path d="M 584.534868 594.341694 
L 593.905305 584.493039 
L 600.308648 598.90523 
L 590.938211 608.753886 
z
" clip-path="url(#p78743e7e7f)" style="fill: #ff6600"/>
   </g>
   <g id="patch_31">
    <path d="M 547.638937 583.907123 
L 538.293612 593.812061 
L 531.853676 579.438493 
L 541.199001 569.533554 
z
" clip-path="url(#p78743e7e7f)" style="fill: #ff6600"/>
   </g>
   <g id="patch_32">
    <path d="M 441.493701 599.060926 
L 457.782659 587.480573 
L 445.243677 572.070141 
z
" clip-path="url(#p78743e7e7f)" style="fill: #ff6600"/>
   </g>
   <g id="patch_33">
    <path d="M 78.49797 555.993729 
L 62.322881 567.945689 
L 75.009602 583.067369 
z
" clip-path="url(#p78743e7e7f)" style="fill: #ff6600"/>
   </g>
   <g id="patch_34">
    <path d="M 296.913899 6.662735 
L 308.577376 27.637969 
L 314.822032 4.896675 
z
" clip-path="url(#p78743e7e7f)" style="fill: #ff6600"/>
   </g>
   <g id="patch_35">
    <path d="M 483.98763 578.482314 
L 499.782922 582.866301 
L 502.633277 558.572367 
L 486.837985 554.18838 
z
" clip-path="url(#p78743e7e7f)" style="fill: #ff6600"/>
   </g>
   <g id="patch_36">
    <path d="M 127.034353 468.174268 
L 111.24836 463.711749 
L 108.346944 487.991379 
L 124.132937 492.453899 
z
" clip-path="url(#p78743e7e7f)" style="fill: #ff6600"/>
   </g>
   <g id="patch_37">
    <path d="M 294.748696 499.601591 
L 279.024395 494.650563 
L 275.805364 518.835307 
L 291.529664 523.786335 
z
" clip-path="url(#p78743e7e7f)" style="fill: #ff6600"/>
   </g>
   <g id="patch_38">
    <path d="M 465.626047 102.780597 
L 450.931901 92.848818 
L 444.474513 115.449134 
L 459.168659 125.380914 
z
" clip-path="url(#p78743e7e7f)" style="fill: #ff6600"/>
   </g>
   <g id="patch_39">
    <path d="M 457.513753 110.54495 
L 446.048891 127.821336 
L 457.281553 145.454856 
L 468.746416 128.17847 
z
" clip-path="url(#p78743e7e7f)" style="fill: #ff6600"/>
   </g>
   <g id="patch_40">
    <path d="M 576.836416 604.72228 
L 592.62149 609.192486 
L 595.527903 584.914269 
L 579.742829 580.444063 
z
" clip-path="url(#p78743e7e7f)" style="fill: #ff6600"/>
   </g>
   <g id="patch_41">
    <path d="M 452.558017 558.799273 
L 442.044356 577.452117 
L 454.171956 593.622644 
L 464.685618 574.9698 
z
" clip-path="url(#p78743e7e7f)" style="fill: #ff6600"/>
   </g>
   <g id="patch_42">
    <path d="M 405.980584 210.698142 
L 391.289399 200.756007 
L 384.825277 223.35177 
L 399.516462 233.293905 
z
" clip-path="url(#p78743e7e7f)" style="fill: #ff6600"/>
   </g>
   <g id="patch_43">
    <path d="M 464.708751 129.052967 
L 479.50963 138.602473 
L 485.718474 115.837994 
L 470.917594 106.288488 
z
" clip-path="url(#p78743e7e7f)" style="fill: #ff6600"/>
   </g>
   <g id="patch_44">
    <path d="M 346.771539 241.320506 
L 362.606646 245.350417 
L 365.226791 220.995246 
L 349.391684 216.965335 
z
" clip-path="url(#p78743e7e7f)" style="fill: #ff6600"/>
   </g>
   <g id="patch_45">
    <path d="M 393.53707 567.755893 
L 409.587483 567.755893 
L 409.587483 543.06957 
L 393.53707 543.06957 
z
" clip-path="url(#p78743e7e7f)" style="fill: #ff6600"/>
   </g>
   <g id="patch_46">
    <path d="M 518.930926 565.719271 
L 534.98134 565.719271 
L 534.98134 541.032948 
L 518.930926 541.032948 
z
" clip-path="url(#p78743e7e7f)" style="fill: #ff6600"/>
   </g>
   <g id="patch_47">
    <path d="M 490.700629 580.345508 
L 493.069923 581.003106 
L 495.920278 556.709173 
L 493.550984 556.051575 
z
" clip-path="url(#p78743e7e7f)" style="stroke: #000000; stroke-linejoin: miter"/>
   </g>
   <g id="patch_48">
    <path d="M 120.325306 466.277697 
L 117.957407 465.608319 
L 115.055991 489.88795 
L 117.42389 490.557328 
z
" clip-path="url(#p78743e7e7f)" style="stroke: #000000; stroke-linejoin: miter"/>
   </g>
   <g id="patch_49">
    <path d="M 288.065868 497.497404 
L 285.707223 496.75475 
L 282.488192 520.939494 
L 284.846837 521.682148 
z
" clip-path="url(#p78743e7e7f)" style="stroke: #000000; stroke-linejoin: miter"/>
   </g>
   <g id="patch_50">
    <path d="M 459.381035 98.559591 
L 457.176913 97.069824 
L 450.719525 119.67014 
L 452.923647 121.159907 
z
" clip-path="url(#p78743e7e7f)" style="stroke: #000000; stroke-linejoin: miter"/>
   </g>
   <g id="patch_51">
    <path d="M 452.641186 117.887414 
L 450.921457 120.478872 
L 462.15412 138.112392 
L 463.873849 135.520934 
z
" clip-path="url(#p78743e7e7f)" style="stroke: #000000; stroke-linejoin: miter"/>
   </g>
   <g id="patch_52">
    <path d="M 583.545072 606.622118 
L 585.912833 607.292649 
L 588.819246 583.014432 
L 586.451485 582.343901 
z
" clip-path="url(#p78743e7e7f)" style="stroke: #000000; stroke-linejoin: miter"/>
   </g>
   <g id="patch_53">
    <path d="M 448.089711 566.726732 
L 446.512662 569.524658 
L 458.640262 585.695185 
L 460.217312 582.897259 
z
" clip-path="url(#p78743e7e7f)" style="stroke: #000000; stroke-linejoin: miter"/>
   </g>
   <g id="patch_54">
    <path d="M 399.73683 206.472735 
L 397.533152 204.981414 
L 391.069031 227.577177 
L 393.272709 229.068498 
z
" clip-path="url(#p78743e7e7f)" style="stroke: #000000; stroke-linejoin: miter"/>
   </g>
   <g id="patch_55">
    <path d="M 470.999124 133.111507 
L 473.219256 134.543933 
L 479.4281 111.779454 
L 477.207968 110.347028 
z
" clip-path="url(#p78743e7e7f)" style="stroke: #000000; stroke-linejoin: miter"/>
   </g>
   <g id="patch_56">
    <path d="M 353.50146 243.033218 
L 355.876726 243.637705 
L 358.49687 219.282534 
L 356.121604 218.678047 
z
" clip-path="url(#p78743e7e7f)" style="stroke: #000000; stroke-linejoin: miter"/>
   </g>
  </g>
 </g>
 <defs>
  <clipPath id="p78743e7e7f">
   <rect x="91.802347" y="86.4" width="554.395306" height="554.4"/>
  </clipPath>
 </defs>
</svg>
